<svg version="1.1" xmlns="http://www.w3.org/2000/svg" viewBox="0 0 588.890965606033 224.7820298928517" width="588.890965606033" height="224.7820298928517">
  <!-- svg-source:excalidraw -->
  
  <defs>
    <style class="style-fonts">
      @font-face {
        font-family: "Source Sans Pro, Virgil";
        src: url("https://excalidraw.com/Source Sans Pro, Virgil.woff2");
      }
      @font-face {
        font-family: "Cascadia";
        src: url("https://excalidraw.com/Cascadia.woff2");
      }
    </style>
  </defs>
  <rect x="0" y="0" width="588.890965606033" height="224.7820298928517" fill="#fffdf7"></rect><g stroke-linecap="round" transform="translate(238.30423958026074 138.17910741824554) rotate(0 10.05078125 10.05078125)"><path d="M2.45 4.78 C2.45 4.78, 2.45 4.78, 2.45 4.78 M2.45 4.78 C2.45 4.78, 2.45 4.78, 2.45 4.78 M-0.51 13.85 C4.6 10.76, 4.46 8.45, 9.72 1.08 M1.53 12.08 C2.85 10.57, 5.07 7.56, 10.27 2.81 M4.99 17.07 C7.1 12.24, 10.29 5.46, 15.9 0.77 M3.06 15.76 C7.46 10.48, 11.7 6.3, 14.44 2.81 M6.47 20.97 C9.86 15.5, 13.57 12.65, 18.29 3.98 M6.28 19 C7.94 16.62, 11.65 12.51, 18.71 5.2 M10.27 20.43 C13.81 15.78, 17.28 11.62, 20.37 8.13 M9.82 21.07 C13.84 17, 16.21 13.2, 19.08 9.74" stroke="#40c057" stroke-width="0.5" fill="none"></path><path d="M12.99 0.66 C14.77 1.17, 17.07 2.85, 18.36 4.68 C19.64 6.51, 20.91 9.48, 20.71 11.63 C20.52 13.78, 19.19 16.28, 17.21 17.61 C15.23 18.93, 11.14 19.69, 8.83 19.59 C6.52 19.49, 4.89 18.2, 3.37 16.99 C1.85 15.78, -0.09 14.34, -0.27 12.33 C-0.45 10.33, 0.92 7.03, 2.28 4.97 C3.65 2.91, 5.77 0.56, 7.93 -0.03 C10.09 -0.62, 13.76 1.12, 15.24 1.46 C16.71 1.8, 17.09 1.83, 16.8 2.01 M13.83 -0.21 C15.76 -0.13, 16.22 1.4, 17.38 3.13 C18.53 4.87, 20.7 8.09, 20.74 10.19 C20.78 12.29, 19 13.93, 17.61 15.72 C16.22 17.52, 14.49 20.31, 12.38 20.95 C10.26 21.59, 6.71 20.89, 4.91 19.55 C3.11 18.21, 2.03 15.1, 1.56 12.92 C1.09 10.74, 1.49 8.29, 2.09 6.46 C2.69 4.64, 3.54 2.75, 5.17 1.96 C6.79 1.16, 10.65 1.96, 11.83 1.69 C13 1.43, 12.31 0.24, 12.22 0.35" stroke="#000000" stroke-width="1" fill="none"></path></g><g stroke-linecap="round" transform="translate(151.58943939248923 137.32489909544617) rotate(0 10.05078125 10.05078125)"><path d="M2.91 2.53 C2.91 2.53, 2.91 2.53, 2.91 2.53 M2.91 2.53 C2.91 2.53, 2.91 2.53, 2.91 2.53 M1.98 10.65 C4.14 7.13, 8.19 4.78, 9.02 0.71 M1.12 10.38 C3.73 7.75, 5.98 4.72, 8.86 1.21 M3.17 14.31 C5.58 9.86, 9.58 8.77, 12.2 2.73 M2.5 15.16 C5.37 12.03, 8.03 8.48, 13.45 2.95 M6.62 17.81 C10.03 15.44, 13.98 10.5, 17.19 4.33 M4.13 18.95 C8.01 14.83, 12.32 8.53, 17.68 3.97 M8.75 21.48 C12.69 15.41, 17.99 11.11, 21.6 7.24 M8.13 20.38 C11.6 16.42, 15.53 12.42, 20.38 7.25 M14 21.27 C18.28 16.96, 21.81 12.9, 23.27 8.76 M14.12 20.63 C16.57 17.6, 19.38 15.04, 23.32 9.19" stroke="#40c057" stroke-width="0.5" fill="none"></path><path d="M10.12 0.97 C11.94 0.86, 13.99 1.33, 15.7 2.41 C17.41 3.49, 19.71 5.42, 20.37 7.46 C21.04 9.49, 20.78 12.59, 19.68 14.63 C18.58 16.66, 15.9 18.89, 13.77 19.66 C11.65 20.43, 8.86 19.81, 6.93 19.25 C5 18.69, 3.41 18.14, 2.19 16.32 C0.98 14.5, -0.48 10.61, -0.36 8.31 C-0.24 6.01, 1.35 3.76, 2.92 2.51 C4.5 1.27, 7.69 1.11, 9.09 0.83 C10.49 0.55, 11.34 0.64, 11.34 0.83 M9.94 0.9 C12.38 0.44, 15.38 -0.9, 16.93 0.32 C18.48 1.54, 18.92 5.92, 19.24 8.24 C19.55 10.55, 19.5 12.15, 18.81 14.19 C18.11 16.23, 16.83 19.63, 15.07 20.48 C13.31 21.34, 10.47 19.82, 8.24 19.33 C6.01 18.85, 2.93 19.21, 1.7 17.57 C0.47 15.93, 0.59 11.98, 0.85 9.47 C1.1 6.97, 2.12 4.01, 3.21 2.56 C4.31 1.12, 6.71 0.98, 7.41 0.79 C8.11 0.6, 7.33 1.44, 7.41 1.42" stroke="#000000" stroke-width="1" fill="none"></path></g><g stroke-linecap="round" transform="translate(198.88980664222595 138.02430075236657) rotate(0 10.05078125 10.05078125)"><path d="M1.65 4.09 C1.65 4.09, 1.65 4.09, 1.65 4.09 M1.65 4.09 C1.65 4.09, 1.65 4.09, 1.65 4.09 M0.59 11.23 C3.9 9.84, 4.7 5.64, 9.56 1.32 M0.57 11.5 C2.92 8.37, 5.64 5.03, 9.17 1.87 M1.55 14.36 C7.91 11.5, 10.64 4.31, 13.81 1.84 M1.29 16.95 C5.74 11.23, 11.45 5.48, 14.64 1.74 M6.53 19.8 C10.89 14.27, 14.93 6.94, 19.13 1.76 M4.52 18.78 C7.94 13.51, 12.21 10.47, 19.58 3.51 M8.11 20.82 C11.43 18.7, 15.37 14.43, 20.38 6.13 M7.99 20.7 C12.78 15.79, 17.5 10.75, 20.8 6.56" stroke="#40c057" stroke-width="0.5" fill="none"></path><path d="M8.12 0.38 C10.14 -0.27, 13.83 -0.04, 15.87 1.03 C17.91 2.1, 19.79 4.63, 20.37 6.81 C20.94 8.99, 20.26 12.15, 19.32 14.11 C18.38 16.07, 16.52 17.45, 14.74 18.56 C12.96 19.68, 10.8 21.26, 8.62 20.82 C6.44 20.37, 3.17 17.75, 1.67 15.89 C0.17 14.02, -0.38 11.58, -0.39 9.62 C-0.4 7.67, -0.43 5.65, 1.6 4.15 C3.62 2.66, 10.01 1.08, 11.74 0.65 C13.48 0.23, 12.21 1.67, 12 1.61 M8.74 -0.92 C10.42 -1.55, 12.12 0.89, 13.77 2.03 C15.41 3.17, 17.53 3.92, 18.61 5.91 C19.69 7.91, 20.61 12.05, 20.23 14.02 C19.86 15.98, 18.23 16.45, 16.36 17.7 C14.48 18.95, 11.05 21.62, 8.97 21.53 C6.89 21.45, 5.26 19.04, 3.86 17.18 C2.47 15.33, 1.16 12.42, 0.57 10.41 C-0.01 8.39, -0.54 6.58, 0.35 5.1 C1.24 3.62, 4.9 2.34, 5.9 1.52 C6.9 0.7, 6.12 0.3, 6.35 0.19" stroke="#000000" stroke-width="1" fill="none"></path></g><g stroke-linecap="round"><g transform="translate(88.66970034013241 148.94440673940372) rotate(0 244.6970395388994 -0.30006561819726585)"><path d="M-0.83 -0.3 C81.07 -0.53, 408.41 -0.35, 490.22 -0.41 M0.94 -1.51 C82.75 -1.64, 407.8 0.61, 489.15 0.92" stroke="#000000" stroke-width="1" fill="none"></path></g></g><mask></mask><g stroke-linecap="round" transform="translate(92.03807388281183 136.4488754777142) rotate(0 10.05078125 10.05078125)"><path d="M5.57 -0.45 C5.57 -0.45, 5.57 -0.45, 5.57 -0.45 M5.57 -0.45 C5.57 -0.45, 5.57 -0.45, 5.57 -0.45 M2.98 8.36 C4.86 5.86, 8.02 2.91, 9.96 0.81 M3.74 8.39 C5.42 5.9, 6.88 4.26, 10.32 0.83 M1.85 15.02 C3.32 11.58, 8.9 9.01, 12.22 2.03 M2.62 16.12 C5.23 11.97, 8.81 9.45, 13.13 2.21 M5.39 20.25 C9.89 15.2, 13.09 7.12, 18.21 4.88 M4.84 19.58 C9.79 13.2, 15.38 8.43, 18.45 2.77 M7.7 20.55 C14 13.65, 15.22 11.47, 20.56 6.06 M9.06 19.03 C11.96 15.06, 15.85 10.62, 21.01 6.67 M13.05 21.33 C15.73 19.28, 16.92 17.22, 19.34 13.48 M13.75 20.75 C14.72 19.42, 16.42 17.24, 20.25 12.94" stroke="#40c057" stroke-width="0.5" fill="none"></path><path d="M12.4 1.04 C14.48 1.59, 18.03 2.35, 19.14 4.18 C20.25 6.01, 19.47 9.77, 19.07 12.01 C18.67 14.26, 18.04 16.33, 16.76 17.64 C15.49 18.94, 13.48 19.74, 11.43 19.83 C9.38 19.91, 6.31 19.24, 4.46 18.15 C2.61 17.07, 0.84 15.26, 0.33 13.32 C-0.18 11.38, 0.57 8.75, 1.4 6.51 C2.23 4.27, 3.1 0.75, 5.3 -0.14 C7.5 -1.03, 13.03 0.9, 14.61 1.19 C16.19 1.48, 14.86 1.39, 14.78 1.6 M5.21 1.98 C6.7 0.94, 9.86 0.51, 11.95 0.93 C14.04 1.35, 16.53 2.81, 17.74 4.48 C18.95 6.16, 19.15 8.82, 19.21 10.96 C19.27 13.1, 19.26 15.65, 18.09 17.32 C16.92 18.99, 14.64 20.77, 12.22 20.97 C9.79 21.17, 5.67 19.89, 3.52 18.53 C1.37 17.18, -0.34 14.78, -0.7 12.84 C-1.05 10.91, 0.45 9.04, 1.38 6.93 C2.31 4.81, 4.07 1.33, 4.86 0.15 C5.66 -1.03, 5.73 -0.52, 6.16 -0.14" stroke="#000000" stroke-width="1" fill="none"></path></g><g stroke-linecap="round" transform="translate(303.27233853441123 137.93454205575412) rotate(0 10.05078125 10.05078125)"><path d="M2.85 3.8 C2.85 3.8, 2.85 3.8, 2.85 3.8 M2.85 3.8 C2.85 3.8, 2.85 3.8, 2.85 3.8 M2.61 9.79 C3.81 7.91, 7.9 3.69, 10.65 2.2 M1.38 10.56 C3.89 7.79, 6.73 5.87, 10.05 1.62 M4.38 15.95 C6.63 12.16, 7.54 9.35, 13.53 2.77 M2.59 16.1 C5.52 12.28, 8.66 8.89, 14.39 2.08 M6.84 19.82 C8.83 17.75, 8.53 14.21, 20.07 5.91 M5.51 18.3 C10.26 13.43, 13.73 10.2, 18.73 4.16 M7.24 20.15 C10.39 16.64, 16.41 16.13, 19.64 5.69 M7.46 20.9 C13.05 15.46, 18.62 9.63, 20.33 7.38" stroke="#40c057" stroke-width="0.5" fill="none"></path><path d="M8.68 -0.57 C10.6 -0.79, 14.1 0.27, 16.07 1.72 C18.05 3.17, 20.12 5.91, 20.52 8.15 C20.93 10.38, 19.66 13.22, 18.5 15.11 C17.34 17, 15.58 18.69, 13.56 19.48 C11.54 20.26, 8.32 20.53, 6.37 19.82 C4.43 19.1, 2.94 17, 1.9 15.18 C0.86 13.37, -0.07 10.86, 0.13 8.92 C0.34 6.97, 1.53 4.85, 3.12 3.49 C4.7 2.14, 8.26 1.26, 9.64 0.8 C11.02 0.34, 11.34 0.78, 11.38 0.76 M12.6 1.66 C14.12 2.08, 16.18 3.09, 17.35 4.54 C18.53 5.99, 19.91 7.96, 19.64 10.34 C19.38 12.73, 17.42 17.43, 15.76 18.86 C14.11 20.28, 11.84 19.21, 9.73 18.9 C7.62 18.59, 4.86 18.28, 3.13 17.01 C1.39 15.74, -0.44 13.08, -0.67 11.3 C-0.91 9.52, 0.51 8.19, 1.71 6.35 C2.9 4.51, 4.33 1.06, 6.51 0.25 C8.68 -0.55, 13.72 1.52, 14.75 1.52 C15.77 1.52, 12.84 0.43, 12.66 0.24" stroke="#000000" stroke-width="1" fill="none"></path></g><g stroke-linecap="round" transform="translate(392.4951822981918 137.5792739610054) rotate(0 10.05078125 10.05078125)"><path d="M-0.02 6.6 C-0.02 6.6, -0.02 6.6, -0.02 6.6 M-0.02 6.6 C-0.02 6.6, -0.02 6.6, -0.02 6.6 M-0.84 13.16 C1.98 9.24, 5.99 6.94, 8.95 4.49 M0.25 13.48 C1.34 10.25, 4.35 8.29, 8.64 3.49 M3.14 16.19 C4.87 11.31, 10.33 6.02, 15.14 -0.04 M2.51 16.87 C4.53 12.35, 8.42 9.17, 15.18 0.52 M4.24 20.37 C7.56 13.72, 12.11 10.08, 19.85 3.81 M5.19 18.17 C8.62 14.76, 12.87 11.48, 18.62 3.28 M10.49 20.09 C13.4 18.72, 15.86 12.59, 21.76 6.24 M8.83 19.5 C13.79 15.48, 17.53 12.44, 21.99 5.74 M13.9 21.88 C15.71 18.8, 17.66 17.17, 21.24 12.27 M12.6 22.27 C16.21 18.89, 18.21 15.89, 20.88 12.71" stroke="#40c057" stroke-width="0.5" fill="none"></path><path d="M5.11 0.98 C7.09 0.02, 10.88 -0.72, 13.21 -0.25 C15.53 0.21, 18 1.85, 19.08 3.79 C20.15 5.74, 19.86 9.15, 19.65 11.4 C19.45 13.65, 19.26 15.88, 17.85 17.3 C16.45 18.71, 13.61 19.71, 11.22 19.87 C8.84 20.03, 5.46 19.45, 3.53 18.28 C1.59 17.11, 0.16 14.83, -0.39 12.83 C-0.93 10.83, -0.8 8.39, 0.24 6.3 C1.29 4.21, 4.74 1.21, 5.88 0.28 C7.01 -0.65, 7.04 0.4, 7.07 0.71 M3.89 2.63 C5.74 1.79, 9.66 1.01, 12.08 1.34 C14.5 1.68, 16.91 3.35, 18.44 4.62 C19.97 5.89, 21.3 6.72, 21.28 8.95 C21.26 11.18, 19.73 16.09, 18.31 18 C16.89 19.91, 15.25 20.32, 12.76 20.42 C10.26 20.52, 5.37 20.04, 3.36 18.6 C1.36 17.15, 1.05 14.02, 0.73 11.75 C0.41 9.48, 0.78 6.53, 1.46 4.98 C2.15 3.43, 4.12 3.05, 4.85 2.45 C5.58 1.85, 5.8 1.48, 5.85 1.39" stroke="#000000" stroke-width="1" fill="none"></path></g><g stroke-linecap="round" transform="translate(491.11367357961433 139.0579194304535) rotate(0 10.05078125 10.05078125)"><path d="M-0.24 6.42 C-0.24 6.42, -0.24 6.42, -0.24 6.42 M-0.24 6.42 C-0.24 6.42, -0.24 6.42, -0.24 6.42 M1.55 11.26 C2.31 9.63, 3.76 7.49, 5.96 4.5 M0.99 11.02 C2.01 9.46, 3.92 7.69, 6.71 4.85 M3.06 15.1 C7.22 8.81, 12.22 3.96, 13.22 2.94 M3.26 14.65 C5.96 10.59, 8.86 8.47, 14.25 2 M5.95 17.01 C9.71 15.56, 13.51 9.01, 18.88 5.04 M5.39 17.71 C9.8 13.57, 14.14 7.94, 18.34 3.75 M7.54 20.44 C13.62 17.27, 16.9 13.77, 18.76 7.98 M8.77 20.13 C12.89 16.47, 16 11.7, 19.98 7.88 M14.5 21.16 C16.02 17.1, 17.81 15.23, 21.51 11.6 M14.18 20.47 C16.42 18.1, 18.49 15.82, 21.49 11.01" stroke="#40c057" stroke-width="0.5" fill="none"></path><path d="M11.27 -0.72 C13.22 -0.65, 15.51 0.8, 16.87 2.37 C18.24 3.95, 19.15 6.31, 19.49 8.74 C19.83 11.17, 20.23 15.26, 18.91 16.95 C17.6 18.64, 13.68 18.55, 11.59 18.91 C9.5 19.26, 8.05 20.05, 6.38 19.06 C4.7 18.06, 2.68 14.99, 1.53 12.94 C0.38 10.89, -0.94 8.58, -0.53 6.75 C-0.11 4.92, 1.85 3.08, 4.03 1.96 C6.2 0.83, 10.72 0.18, 12.52 0.01 C14.32 -0.16, 14.65 0.64, 14.85 0.93 M9.22 -0.56 C11.23 -0.66, 13.21 1.1, 15.01 2.55 C16.82 4, 19.11 6.35, 20.06 8.13 C21.01 9.92, 21.43 11.23, 20.71 13.26 C19.99 15.3, 17.71 19.06, 15.73 20.34 C13.75 21.61, 11.24 21.77, 8.81 20.91 C6.37 20.04, 2.34 17.07, 1.13 15.15 C-0.09 13.24, 1.06 11.33, 1.5 9.42 C1.94 7.52, 2.35 5.35, 3.76 3.72 C5.17 2.1, 9.08 0.13, 9.94 -0.32 C10.8 -0.76, 9.08 1.06, 8.92 1.05" stroke="#000000" stroke-width="1" fill="none"></path></g><g stroke-linecap="round" transform="translate(534.4408006337859 138.80375529942782) rotate(0 10.05078125 10.05078125)"><path d="M4.88 1.59 C4.88 1.59, 4.88 1.59, 4.88 1.59 M4.88 1.59 C4.88 1.59, 4.88 1.59, 4.88 1.59 M3.85 9.1 C6.55 5.77, 8.98 2.92, 11.99 0.54 M3.96 8.51 C6.32 6.29, 8.73 3.37, 11.72 -0.05 M4.19 14.29 C6.84 9.98, 10.15 6.66, 14.51 2.9 M3.66 15.12 C5.96 11.35, 9.48 8.55, 14.88 2.96 M4.63 17.8 C11.83 12.73, 14.03 9.99, 16.5 4.21 M5.79 18.77 C9.22 14.43, 10.69 12.95, 18.73 5.43 M11.21 18.86 C12.76 16.11, 16.05 10.22, 19.43 9.76 M9.86 19.39 C13.59 16.03, 16.35 13.84, 20.35 8.5" stroke="#40c057" stroke-width="0.5" fill="none"></path><path d="M10.8 0.11 C12.89 0.4, 15.8 2.41, 17.46 4.11 C19.12 5.8, 20.81 8.4, 20.77 10.29 C20.73 12.18, 18.65 13.91, 17.22 15.45 C15.79 17, 14.11 18.98, 12.2 19.54 C10.28 20.1, 7.52 19.67, 5.73 18.82 C3.93 17.97, 2.16 16.59, 1.42 14.44 C0.67 12.28, 0.68 8.02, 1.25 5.89 C1.81 3.77, 2.91 2.7, 4.82 1.67 C6.72 0.64, 11.12 -0.05, 12.66 -0.29 C14.2 -0.52, 14.22 -0.11, 14.08 0.27 M8.23 0.12 C10.02 -0.81, 12.97 -1.13, 14.82 0.08 C16.68 1.29, 18.58 5.15, 19.35 7.39 C20.12 9.63, 20.21 11.69, 19.43 13.53 C18.64 15.36, 16.35 17.28, 14.64 18.41 C12.94 19.54, 11.38 20.48, 9.21 20.32 C7.05 20.15, 3.04 18.9, 1.67 17.42 C0.3 15.95, 1.11 13.64, 0.99 11.48 C0.87 9.32, -0.41 6.29, 0.94 4.46 C2.3 2.63, 8.06 1.07, 9.12 0.51 C10.18 -0.04, 7.48 1.1, 7.3 1.12" stroke="#000000" stroke-width="1" fill="none"></path></g><g stroke-linecap="round" transform="translate(352.0353419266751 138.13113309632652) rotate(0 10.05078125 10.05078125)"><path d="M1.74 5.49 C1.74 5.49, 1.74 5.49, 1.74 5.49 M1.74 5.49 C1.74 5.49, 1.74 5.49, 1.74 5.49 M0.34 11.81 C3.55 10.89, 5.14 7.62, 9.33 2.44 M1.15 12.92 C2.39 11.12, 4.4 8.42, 8.27 3.77 M5.48 14.61 C4.81 12.4, 7.68 9.07, 16.15 0.96 M4.05 15.86 C8.87 10.92, 12.05 5.62, 15.06 1.75 M6.56 21.37 C7.92 14.47, 13.36 10.31, 20.05 4.72 M4.44 20.6 C10.23 15.41, 12.86 9.85, 18.84 3.3 M10.8 19.37 C13.71 15.37, 19.01 9.73, 19.91 9.7 M11.27 19.91 C14.49 15.19, 18.14 10.39, 19.91 8.54" stroke="#40c057" stroke-width="0.5" fill="none"></path><path d="M12.66 0.47 C14.79 0.75, 17.41 1.51, 18.71 3.23 C20 4.94, 20.61 8.54, 20.43 10.76 C20.25 12.99, 19.16 15.12, 17.61 16.56 C16.07 18.01, 13.38 19.01, 11.17 19.44 C8.95 19.88, 6.01 20.18, 4.3 19.16 C2.59 18.15, 1.31 15.65, 0.89 13.36 C0.47 11.07, 1 7.4, 1.8 5.42 C2.6 3.45, 3.7 2.5, 5.7 1.53 C7.7 0.57, 12.37 -0.15, 13.8 -0.34 C15.23 -0.53, 14.33 0.05, 14.29 0.39 M8.24 0.11 C10.23 -0.46, 12.77 0.29, 14.83 1.38 C16.88 2.47, 19.79 4.84, 20.56 6.64 C21.34 8.44, 20.52 10.17, 19.47 12.18 C18.42 14.18, 16.21 17.32, 14.26 18.69 C12.31 20.05, 9.75 20.53, 7.76 20.38 C5.76 20.23, 3.82 19.24, 2.3 17.78 C0.77 16.32, -1.16 13.79, -1.38 11.62 C-1.61 9.44, -0.59 6.63, 0.94 4.74 C2.47 2.85, 6.43 1.24, 7.8 0.29 C9.18 -0.66, 9.18 -0.99, 9.19 -0.97" stroke="#000000" stroke-width="1" fill="none"></path></g><g transform="translate(40.002157243085776 136.51385596838796) rotate(0 19.8599853515625 12.5)"><text x="0" y="0" font-family="Source Sans Pro, Virgil, Segoe UI Emoji" font-size="20px" fill="#000000" text-anchor="start" style="white-space: pre;" direction="ltr" dominant-baseline="text-before-edge">main</text></g><g mask="url(#mask-dgadjp1oG3iEFmrkE7_oJ)" stroke-linecap="round"><g transform="translate(105.05368741958029 159.20137364393813) rotate(0 99.5507369192417 25.309291782399754)"><path d="M0.65 -0.63 C0.51 -0.72, -6.37 -7.12, -0.85 0.38 C4.68 7.88, 10.37 35.85, 33.79 44.39 C57.21 52.93, 111.95 58.71, 139.68 51.61 C167.4 44.51, 190 10.05, 200.14 1.79 M-0.47 1.66 C-0.23 1.11, -4.69 -8.78, 1.42 -1.55 C7.53 5.69, 13.17 36.55, 36.19 45.08 C59.22 53.62, 111.94 56.91, 139.59 49.66 C167.23 42.41, 191.7 9.15, 202.09 1.58" stroke="#000000" stroke-width="1" fill="none"></path></g><g transform="translate(105.05368741958029 159.20137364393813) rotate(0 99.5507369192417 25.309291782399754)"><path d="M187.83 27.1 C193.22 18.87, 194.53 11.35, 204.02 0.81 M188.54 29.19 C190.71 24.04, 194.44 17.78, 202.33 2.28" stroke="#000000" stroke-width="1" fill="none"></path></g><g transform="translate(105.05368741958029 159.20137364393813) rotate(0 99.5507369192417 25.309291782399754)"><path d="M173.61 12.3 C183.34 8.39, 188.88 5.27, 204.02 0.81 M174.32 14.39 C179.39 12.36, 186.01 9.12, 202.33 2.28" stroke="#000000" stroke-width="1" fill="none"></path></g></g><mask id="mask-dgadjp1oG3iEFmrkE7_oJ"><rect x="0" y="0" fill="#fff" width="405.6582496663509" height="309.6538200756937"></rect><rect x="97.58940176603727" y="194.7820298928517" fill="#000" width="84.39993286132812" height="20" opacity="1"></rect></mask><g transform="translate(97.58940176603727 194.78202989285168) rotate(0 107.01502257278472 -10.27136446651383)"><text x="42.19996643066406" y="0" font-family="Source Sans Pro, Virgil, Segoe UI Emoji" font-size="16px" fill="#000000" text-anchor="middle" style="white-space: pre;" direction="ltr" dominant-baseline="text-before-edge">tricky form</text></g><g transform="translate(148.92830097178626 10) rotate(0 150.81591796875 10)"><text x="0" y="0" font-family="Source Sans Pro, Virgil, Segoe UI Emoji" font-size="16px" fill="#000000" text-anchor="start" style="white-space: pre;" direction="ltr" dominant-baseline="text-before-edge">Dependent Changes Become Sequential</text></g><g mask="url(#mask-yO5SWkzMZMdsjL3F4_exR)" stroke-linecap="round"><g transform="translate(363.4519729051808 136.49553331412733) rotate(0 85.72479297514053 -28.64068707616788)"><path d="M0.78 0.04 C0.82 -0.2, -14.64 10.15, 0.35 -0.27 C15.34 -10.69, 61.03 -61.61, 90.72 -62.49 C120.41 -63.36, 163.89 -15.09, 178.49 -5.51 M-0.27 -0.99 C-0.36 -0.53, -15.41 11.24, -0.41 1.13 C14.6 -8.99, 59.93 -60.64, 89.75 -61.67 C119.57 -62.69, 163.45 -14.46, 178.51 -5" stroke="#000000" stroke-width="1" fill="none"></path></g><g transform="translate(363.4519729051808 136.49553331412733) rotate(0 85.72479297514053 -28.64068707616788)"><path d="M150.29 -14.4 C158.56 -12.75, 166.11 -9.74, 176.62 -6.05 M149.68 -14.56 C157.71 -12.19, 164.07 -9.18, 179.24 -5.31" stroke="#000000" stroke-width="1" fill="none"></path></g><g transform="translate(363.4519729051808 136.49553331412733) rotate(0 85.72479297514053 -28.64068707616788)"><path d="M163.32 -30.25 C167.74 -23.64, 171.29 -15.77, 176.62 -6.05 M162.72 -30.4 C167.38 -24.14, 170.52 -17.2, 179.24 -5.31" stroke="#000000" stroke-width="1" fill="none"></path></g></g><mask id="mask-yO5SWkzMZMdsjL3F4_exR"><rect x="0" y="0" fill="#fff" width="642.3604766569463" height="298.03318557353646"></rect><rect x="339.7692154444353" y="88.90032593755785" fill="#000" width="133.83990478515625" height="20" opacity="1"></rect></mask><g transform="translate(339.7692154444353 88.90032593755785) rotate(0 109.40755043588604 18.954520300401597)"><text x="66.91995239257812" y="0" font-family="Source Sans Pro, Virgil, Segoe UI Emoji" font-size="16px" fill="#000000" text-anchor="middle" style="white-space: pre;" direction="ltr" dominant-baseline="text-before-edge">other tricky form</text></g><g stroke-linecap="round"><g transform="translate(27.742265692281592 206.32316870121414) rotate(0 0.07270409785675724 -59.692260082971764)"><path d="M0.96 0.57 C0.82 -18.91, -0.98 -98.34, -1.02 -118.01 M0.01 -0.18 C0.25 -19.93, 1.1 -100.09, 1.16 -119.95" stroke="#1864ab" stroke-width="1" fill="none"></path></g></g><mask></mask><g transform="translate(-39.59787831284001 140.7222767934298) rotate(270 56.497978070563676 6.900099757723623)"><text x="0" y="0" font-family="Source Sans Pro, Virgil, Segoe UI Emoji" font-size="11.040159612357794px" fill="#1864ab" text-anchor="start" style="white-space: pre;" direction="ltr" dominant-baseline="text-before-edge">all 3 tasks assigned</text></g><g mask="url(#mask-z1h1G7NQ9V4a5VftZDjbS)" stroke-linecap="round"><g transform="translate(95.72745640094274 99.57538497904991) rotate(0 118.7392197750545 -0.44047625802091517)"><path d="M-0.66 -0.26 C38.8 -0.16, 196.4 0.51, 235.88 0.62 M1.2 -1.44 C41.11 -1.68, 199.14 -1.1, 238.14 -1.15" stroke="#c92a2a" stroke-width="1" fill="none"></path></g><g transform="translate(95.72745640094274 99.57538497904991) rotate(0 118.7392197750545 -0.44047625802091517)"><path d="M27.14 -11.85 C22.28 -9.16, 15.44 -3.97, -2.44 0.78 M27.42 -9.63 C18.26 -7.76, 7.67 -2.55, -1.41 -0.14" stroke="#c92a2a" stroke-width="1" fill="none"></path></g><g transform="translate(95.72745640094274 99.57538497904991) rotate(0 118.7392197750545 -0.44047625802091517)"><path d="M27.07 8.67 C22.22 6.7, 15.4 7.23, -2.44 0.78 M27.34 10.89 C18.32 5.59, 7.76 3.62, -1.41 -0.14" stroke="#c92a2a" stroke-width="1" fill="none"></path></g><g transform="translate(95.72745640094274 99.57538497904991) rotate(0 118.7392197750545 -0.44047625802091517)"><path d="M209.5 7.63 C217.46 6, 223.44 6.57, 236.35 -0.11 M209.78 9.85 C220.46 4.82, 229.6 2.89, 237.38 -1.04" stroke="#c92a2a" stroke-width="1" fill="none"></path></g><g transform="translate(95.72745640094274 99.57538497904991) rotate(0 118.7392197750545 -0.44047625802091517)"><path d="M209.53 -12.89 C217.48 -9.86, 223.46 -4.63, 236.35 -0.11 M209.81 -10.67 C220.37 -8.53, 229.5 -3.28, 237.38 -1.04" stroke="#c92a2a" stroke-width="1" fill="none"></path></g></g><mask id="mask-z1h1G7NQ9V4a5VftZDjbS"><rect x="0" y="0" fill="#fff" width="432.4704004010059" height="199.63035294183166"></rect><rect x="186.65894884775162" y="89.54790099765904" fill="#000" width="54.87995910644531" height="20" opacity="1"></rect></mask><g transform="translate(186.65894884775162 89.54790099765904) rotate(0 27.80772732824562 9.587007723369958)"><text x="27.439979553222656" y="0" font-family="Source Sans Pro, Virgil, Segoe UI Emoji" font-size="16px" fill="#c92a2a" text-anchor="middle" style="white-space: pre;" direction="ltr" dominant-baseline="text-before-edge">blocked</text></g></svg>