<svg version="1.1" xmlns="http://www.w3.org/2000/svg" viewBox="0 0 654.8873015855685 237.37327879895994" width="654.8873015855685" height="237.37327879895994">
  <!-- svg-source:excalidraw -->
  <!--

  NOTE!!! I made some changes to make this look nice in the site:
  - Changed the `fill=` on the parent <rect> element to match the page
    background.
  - Changed the fonts to use site fonts

    -->
  
  <defs>
    <style class="style-fonts">
      @font-face {
        font-family: "Source Sans Pro, Virgil";
        src: url("https://excalidraw.com/Source Sans Pro, Virgil.woff2");
      }
      @font-face {
        font-family: "Cascadia";
        src: url("https://excalidraw.com/Cascadia.woff2");
      }
    </style>
  </defs>
  <rect x="0" y="0" width="654.8873015855685" height="237.37327879895994" fill="#fffdf7"></rect><g stroke-linecap="round" transform="translate(208.30208233717497 142.10422713095738) rotate(0 10.05078125 10.05078125)"><path d="M2.45 4.78 C2.45 4.78, 2.45 4.78, 2.45 4.78 M2.45 4.78 C2.45 4.78, 2.45 4.78, 2.45 4.78 M-0.51 13.85 C4.6 10.76, 4.46 8.45, 9.72 1.08 M1.53 12.08 C2.85 10.57, 5.07 7.56, 10.27 2.81 M4.99 17.07 C7.1 12.24, 10.29 5.46, 15.9 0.77 M3.06 15.76 C7.46 10.48, 11.7 6.3, 14.44 2.81 M6.47 20.97 C9.86 15.5, 13.57 12.65, 18.29 3.98 M6.28 19 C7.94 16.62, 11.65 12.51, 18.71 5.2 M10.27 20.43 C13.81 15.78, 17.28 11.62, 20.37 8.13 M9.82 21.07 C13.84 17, 16.21 13.2, 19.08 9.74" stroke="#40c057" stroke-width="0.5" fill="none"></path><path d="M12.99 0.66 C14.77 1.17, 17.07 2.85, 18.36 4.68 C19.64 6.51, 20.91 9.48, 20.71 11.63 C20.52 13.78, 19.19 16.28, 17.21 17.61 C15.23 18.93, 11.14 19.69, 8.83 19.59 C6.52 19.49, 4.89 18.2, 3.37 16.99 C1.85 15.78, -0.09 14.34, -0.27 12.33 C-0.45 10.33, 0.92 7.03, 2.28 4.97 C3.65 2.91, 5.77 0.56, 7.93 -0.03 C10.09 -0.62, 13.76 1.12, 15.24 1.46 C16.71 1.8, 17.09 1.83, 16.8 2.01 M13.83 -0.21 C15.76 -0.13, 16.22 1.4, 17.38 3.13 C18.53 4.87, 20.7 8.09, 20.74 10.19 C20.78 12.29, 19 13.93, 17.61 15.72 C16.22 17.52, 14.49 20.31, 12.38 20.95 C10.26 21.59, 6.71 20.89, 4.91 19.55 C3.11 18.21, 2.03 15.1, 1.56 12.92 C1.09 10.74, 1.49 8.29, 2.09 6.46 C2.69 4.64, 3.54 2.75, 5.17 1.96 C6.79 1.16, 10.65 1.96, 11.83 1.69 C13 1.43, 12.31 0.24, 12.22 0.35" stroke="#000000" stroke-width="1" fill="none"></path></g><g stroke-linecap="round" transform="translate(121.58728214940345 141.25001880815802) rotate(0 10.05078125 10.05078125)"><path d="M2.91 2.53 C2.91 2.53, 2.91 2.53, 2.91 2.53 M2.91 2.53 C2.91 2.53, 2.91 2.53, 2.91 2.53 M1.98 10.65 C4.14 7.13, 8.19 4.78, 9.02 0.71 M1.12 10.38 C3.73 7.75, 5.98 4.72, 8.86 1.21 M3.17 14.31 C5.58 9.86, 9.58 8.77, 12.2 2.73 M2.5 15.16 C5.37 12.03, 8.03 8.48, 13.45 2.95 M6.62 17.81 C10.03 15.44, 13.98 10.5, 17.19 4.33 M4.13 18.95 C8.01 14.83, 12.32 8.53, 17.68 3.97 M8.75 21.48 C12.69 15.41, 17.99 11.11, 21.6 7.24 M8.13 20.38 C11.6 16.42, 15.53 12.42, 20.38 7.25 M14 21.27 C18.28 16.96, 21.81 12.9, 23.27 8.76 M14.12 20.63 C16.57 17.6, 19.38 15.04, 23.32 9.19" stroke="#40c057" stroke-width="0.5" fill="none"></path><path d="M10.12 0.97 C11.94 0.86, 13.99 1.33, 15.7 2.41 C17.41 3.49, 19.71 5.42, 20.37 7.46 C21.04 9.49, 20.78 12.59, 19.68 14.63 C18.58 16.66, 15.9 18.89, 13.77 19.66 C11.65 20.43, 8.86 19.81, 6.93 19.25 C5 18.69, 3.41 18.14, 2.19 16.32 C0.98 14.5, -0.48 10.61, -0.36 8.31 C-0.24 6.01, 1.35 3.76, 2.92 2.51 C4.5 1.27, 7.69 1.11, 9.09 0.83 C10.49 0.55, 11.34 0.64, 11.34 0.83 M9.94 0.9 C12.38 0.44, 15.38 -0.9, 16.93 0.32 C18.48 1.54, 18.92 5.92, 19.24 8.24 C19.55 10.55, 19.5 12.15, 18.81 14.19 C18.11 16.23, 16.83 19.63, 15.07 20.48 C13.31 21.34, 10.47 19.82, 8.24 19.33 C6.01 18.85, 2.93 19.21, 1.7 17.57 C0.47 15.93, 0.59 11.98, 0.85 9.47 C1.1 6.97, 2.12 4.01, 3.21 2.56 C4.31 1.12, 6.71 0.98, 7.41 0.79 C8.11 0.6, 7.33 1.44, 7.41 1.42" stroke="#000000" stroke-width="1" fill="none"></path></g><g stroke-linecap="round" transform="translate(168.88764939914017 141.94942046507842) rotate(0 10.05078125 10.05078125)"><path d="M1.65 4.09 C1.65 4.09, 1.65 4.09, 1.65 4.09 M1.65 4.09 C1.65 4.09, 1.65 4.09, 1.65 4.09 M0.59 11.23 C3.9 9.84, 4.7 5.64, 9.56 1.32 M0.57 11.5 C2.92 8.37, 5.64 5.03, 9.17 1.87 M1.55 14.36 C7.91 11.5, 10.64 4.31, 13.81 1.84 M1.29 16.95 C5.74 11.23, 11.45 5.48, 14.64 1.74 M6.53 19.8 C10.89 14.27, 14.93 6.94, 19.13 1.76 M4.52 18.78 C7.94 13.51, 12.21 10.47, 19.58 3.51 M8.11 20.82 C11.43 18.7, 15.37 14.43, 20.38 6.13 M7.99 20.7 C12.78 15.79, 17.5 10.75, 20.8 6.56" stroke="#40c057" stroke-width="0.5" fill="none"></path><path d="M8.12 0.38 C10.14 -0.27, 13.83 -0.04, 15.87 1.03 C17.91 2.1, 19.79 4.63, 20.37 6.81 C20.94 8.99, 20.26 12.15, 19.32 14.11 C18.38 16.07, 16.52 17.45, 14.74 18.56 C12.96 19.68, 10.8 21.26, 8.62 20.82 C6.44 20.37, 3.17 17.75, 1.67 15.89 C0.17 14.02, -0.38 11.58, -0.39 9.62 C-0.4 7.67, -0.43 5.65, 1.6 4.15 C3.62 2.66, 10.01 1.08, 11.74 0.65 C13.48 0.23, 12.21 1.67, 12 1.61 M8.74 -0.92 C10.42 -1.55, 12.12 0.89, 13.77 2.03 C15.41 3.17, 17.53 3.92, 18.61 5.91 C19.69 7.91, 20.61 12.05, 20.23 14.02 C19.86 15.98, 18.23 16.45, 16.36 17.7 C14.48 18.95, 11.05 21.62, 8.97 21.53 C6.89 21.45, 5.26 19.04, 3.86 17.18 C2.47 15.33, 1.16 12.42, 0.57 10.41 C-0.01 8.39, -0.54 6.58, 0.35 5.1 C1.24 3.62, 4.9 2.34, 5.9 1.52 C6.9 0.7, 6.12 0.3, 6.35 0.19" stroke="#000000" stroke-width="1" fill="none"></path></g><g stroke-linecap="round"><g transform="translate(58.66754309704663 152.86952645211557) rotate(0 292.69628615021 -0.30006561819726585)"><path d="M-0.83 -0.3 C97.07 -0.53, 488.41 -0.35, 586.22 -0.41 M0.94 -1.51 C98.75 -1.64, 487.8 0.61, 585.15 0.92" stroke="#000000" stroke-width="1" fill="none"></path></g></g><mask></mask><g stroke-linecap="round" transform="translate(62.035916639726054 140.37399519042606) rotate(0 10.05078125 10.05078125)"><path d="M5.57 -0.45 C5.57 -0.45, 5.57 -0.45, 5.57 -0.45 M5.57 -0.45 C5.57 -0.45, 5.57 -0.45, 5.57 -0.45 M2.98 8.36 C4.86 5.86, 8.02 2.91, 9.96 0.81 M3.74 8.39 C5.42 5.9, 6.88 4.26, 10.32 0.83 M1.85 15.02 C3.32 11.58, 8.9 9.01, 12.22 2.03 M2.62 16.12 C5.23 11.97, 8.81 9.45, 13.13 2.21 M5.39 20.25 C9.89 15.2, 13.09 7.12, 18.21 4.88 M4.84 19.58 C9.79 13.2, 15.38 8.43, 18.45 2.77 M7.7 20.55 C14 13.65, 15.22 11.47, 20.56 6.06 M9.06 19.03 C11.96 15.06, 15.85 10.62, 21.01 6.67 M13.05 21.33 C15.73 19.28, 16.92 17.22, 19.34 13.48 M13.75 20.75 C14.72 19.42, 16.42 17.24, 20.25 12.94" stroke="#40c057" stroke-width="0.5" fill="none"></path><path d="M12.4 1.04 C14.48 1.59, 18.03 2.35, 19.14 4.18 C20.25 6.01, 19.47 9.77, 19.07 12.01 C18.67 14.26, 18.04 16.33, 16.76 17.64 C15.49 18.94, 13.48 19.74, 11.43 19.83 C9.38 19.91, 6.31 19.24, 4.46 18.15 C2.61 17.07, 0.84 15.26, 0.33 13.32 C-0.18 11.38, 0.57 8.75, 1.4 6.51 C2.23 4.27, 3.1 0.75, 5.3 -0.14 C7.5 -1.03, 13.03 0.9, 14.61 1.19 C16.19 1.48, 14.86 1.39, 14.78 1.6 M5.21 1.98 C6.7 0.94, 9.86 0.51, 11.95 0.93 C14.04 1.35, 16.53 2.81, 17.74 4.48 C18.95 6.16, 19.15 8.82, 19.21 10.96 C19.27 13.1, 19.26 15.65, 18.09 17.32 C16.92 18.99, 14.64 20.77, 12.22 20.97 C9.79 21.17, 5.67 19.89, 3.52 18.53 C1.37 17.18, -0.34 14.78, -0.7 12.84 C-1.05 10.91, 0.45 9.04, 1.38 6.93 C2.31 4.81, 4.07 1.33, 4.86 0.15 C5.66 -1.03, 5.73 -0.52, 6.16 -0.14" stroke="#000000" stroke-width="1" fill="none"></path></g><g stroke-linecap="round" transform="translate(273.27018129132546 141.85966176846597) rotate(0 10.05078125 10.05078125)"><path d="M2.85 3.8 C2.85 3.8, 2.85 3.8, 2.85 3.8 M2.85 3.8 C2.85 3.8, 2.85 3.8, 2.85 3.8 M2.61 9.79 C3.81 7.91, 7.9 3.69, 10.65 2.2 M1.38 10.56 C3.89 7.79, 6.73 5.87, 10.05 1.62 M4.38 15.95 C6.63 12.16, 7.54 9.35, 13.53 2.77 M2.59 16.1 C5.52 12.28, 8.66 8.89, 14.39 2.08 M6.84 19.82 C8.83 17.75, 8.53 14.21, 20.07 5.91 M5.51 18.3 C10.26 13.43, 13.73 10.2, 18.73 4.16 M7.24 20.15 C10.39 16.64, 16.41 16.13, 19.64 5.69 M7.46 20.9 C13.05 15.46, 18.62 9.63, 20.33 7.38" stroke="#40c057" stroke-width="0.5" fill="none"></path><path d="M8.68 -0.57 C10.6 -0.79, 14.1 0.27, 16.07 1.72 C18.05 3.17, 20.12 5.91, 20.52 8.15 C20.93 10.38, 19.66 13.22, 18.5 15.11 C17.34 17, 15.58 18.69, 13.56 19.48 C11.54 20.26, 8.32 20.53, 6.37 19.82 C4.43 19.1, 2.94 17, 1.9 15.18 C0.86 13.37, -0.07 10.86, 0.13 8.92 C0.34 6.97, 1.53 4.85, 3.12 3.49 C4.7 2.14, 8.26 1.26, 9.64 0.8 C11.02 0.34, 11.34 0.78, 11.38 0.76 M12.6 1.66 C14.12 2.08, 16.18 3.09, 17.35 4.54 C18.53 5.99, 19.91 7.96, 19.64 10.34 C19.38 12.73, 17.42 17.43, 15.76 18.86 C14.11 20.28, 11.84 19.21, 9.73 18.9 C7.62 18.59, 4.86 18.28, 3.13 17.01 C1.39 15.74, -0.44 13.08, -0.67 11.3 C-0.91 9.52, 0.51 8.19, 1.71 6.35 C2.9 4.51, 4.33 1.06, 6.51 0.25 C8.68 -0.55, 13.72 1.52, 14.75 1.52 C15.77 1.52, 12.84 0.43, 12.66 0.24" stroke="#000000" stroke-width="1" fill="none"></path></g><g stroke-linecap="round" transform="translate(362.49302505510605 141.50439367371726) rotate(0 10.05078125 10.05078125)"><path d="M-0.02 6.6 C-0.02 6.6, -0.02 6.6, -0.02 6.6 M-0.02 6.6 C-0.02 6.6, -0.02 6.6, -0.02 6.6 M-0.84 13.16 C1.98 9.24, 5.99 6.94, 8.95 4.49 M0.25 13.48 C1.34 10.25, 4.35 8.29, 8.64 3.49 M3.14 16.19 C4.87 11.31, 10.33 6.02, 15.14 -0.04 M2.51 16.87 C4.53 12.35, 8.42 9.17, 15.18 0.52 M4.24 20.37 C7.56 13.72, 12.11 10.08, 19.85 3.81 M5.19 18.17 C8.62 14.76, 12.87 11.48, 18.62 3.28 M10.49 20.09 C13.4 18.72, 15.86 12.59, 21.76 6.24 M8.83 19.5 C13.79 15.48, 17.53 12.44, 21.99 5.74 M13.9 21.88 C15.71 18.8, 17.66 17.17, 21.24 12.27 M12.6 22.27 C16.21 18.89, 18.21 15.89, 20.88 12.71" stroke="#40c057" stroke-width="0.5" fill="none"></path><path d="M5.11 0.98 C7.09 0.02, 10.88 -0.72, 13.21 -0.25 C15.53 0.21, 18 1.85, 19.08 3.79 C20.15 5.74, 19.86 9.15, 19.65 11.4 C19.45 13.65, 19.26 15.88, 17.85 17.3 C16.45 18.71, 13.61 19.71, 11.22 19.87 C8.84 20.03, 5.46 19.45, 3.53 18.28 C1.59 17.11, 0.16 14.83, -0.39 12.83 C-0.93 10.83, -0.8 8.39, 0.24 6.3 C1.29 4.21, 4.74 1.21, 5.88 0.28 C7.01 -0.65, 7.04 0.4, 7.07 0.71 M3.89 2.63 C5.74 1.79, 9.66 1.01, 12.08 1.34 C14.5 1.68, 16.91 3.35, 18.44 4.62 C19.97 5.89, 21.3 6.72, 21.28 8.95 C21.26 11.18, 19.73 16.09, 18.31 18 C16.89 19.91, 15.25 20.32, 12.76 20.42 C10.26 20.52, 5.37 20.04, 3.36 18.6 C1.36 17.15, 1.05 14.02, 0.73 11.75 C0.41 9.48, 0.78 6.53, 1.46 4.98 C2.15 3.43, 4.12 3.05, 4.85 2.45 C5.58 1.85, 5.8 1.48, 5.85 1.39" stroke="#000000" stroke-width="1" fill="none"></path></g><g stroke-linecap="round" transform="translate(461.11151633652855 142.98303914316534) rotate(0 10.05078125 10.05078125)"><path d="M-0.24 6.42 C-0.24 6.42, -0.24 6.42, -0.24 6.42 M-0.24 6.42 C-0.24 6.42, -0.24 6.42, -0.24 6.42 M1.55 11.26 C2.31 9.63, 3.76 7.49, 5.96 4.5 M0.99 11.02 C2.01 9.46, 3.92 7.69, 6.71 4.85 M3.06 15.1 C7.22 8.81, 12.22 3.96, 13.22 2.94 M3.26 14.65 C5.96 10.59, 8.86 8.47, 14.25 2 M5.95 17.01 C9.71 15.56, 13.51 9.01, 18.88 5.04 M5.39 17.71 C9.8 13.57, 14.14 7.94, 18.34 3.75 M7.54 20.44 C13.62 17.27, 16.9 13.77, 18.76 7.98 M8.77 20.13 C12.89 16.47, 16 11.7, 19.98 7.88 M14.5 21.16 C16.02 17.1, 17.81 15.23, 21.51 11.6 M14.18 20.47 C16.42 18.1, 18.49 15.82, 21.49 11.01" stroke="#40c057" stroke-width="0.5" fill="none"></path><path d="M11.27 -0.72 C13.22 -0.65, 15.51 0.8, 16.87 2.37 C18.24 3.95, 19.15 6.31, 19.49 8.74 C19.83 11.17, 20.23 15.26, 18.91 16.95 C17.6 18.64, 13.68 18.55, 11.59 18.91 C9.5 19.26, 8.05 20.05, 6.38 19.06 C4.7 18.06, 2.68 14.99, 1.53 12.94 C0.38 10.89, -0.94 8.58, -0.53 6.75 C-0.11 4.92, 1.85 3.08, 4.03 1.96 C6.2 0.83, 10.72 0.18, 12.52 0.01 C14.32 -0.16, 14.65 0.64, 14.85 0.93 M9.22 -0.56 C11.23 -0.66, 13.21 1.1, 15.01 2.55 C16.82 4, 19.11 6.35, 20.06 8.13 C21.01 9.92, 21.43 11.23, 20.71 13.26 C19.99 15.3, 17.71 19.06, 15.73 20.34 C13.75 21.61, 11.24 21.77, 8.81 20.91 C6.37 20.04, 2.34 17.07, 1.13 15.15 C-0.09 13.24, 1.06 11.33, 1.5 9.42 C1.94 7.52, 2.35 5.35, 3.76 3.72 C5.17 2.1, 9.08 0.13, 9.94 -0.32 C10.8 -0.76, 9.08 1.06, 8.92 1.05" stroke="#000000" stroke-width="1" fill="none"></path></g><g stroke-linecap="round" transform="translate(504.4386433907001 142.72887501213967) rotate(0 10.05078125 10.05078125)"><path d="M4.88 1.59 C4.88 1.59, 4.88 1.59, 4.88 1.59 M4.88 1.59 C4.88 1.59, 4.88 1.59, 4.88 1.59 M3.85 9.1 C6.55 5.77, 8.98 2.92, 11.99 0.54 M3.96 8.51 C6.32 6.29, 8.73 3.37, 11.72 -0.05 M4.19 14.29 C6.84 9.98, 10.15 6.66, 14.51 2.9 M3.66 15.12 C5.96 11.35, 9.48 8.55, 14.88 2.96 M4.63 17.8 C11.83 12.73, 14.03 9.99, 16.5 4.21 M5.79 18.77 C9.22 14.43, 10.69 12.95, 18.73 5.43 M11.21 18.86 C12.76 16.11, 16.05 10.22, 19.43 9.76 M9.86 19.39 C13.59 16.03, 16.35 13.84, 20.35 8.5" stroke="#40c057" stroke-width="0.5" fill="none"></path><path d="M10.8 0.11 C12.89 0.4, 15.8 2.41, 17.46 4.11 C19.12 5.8, 20.81 8.4, 20.77 10.29 C20.73 12.18, 18.65 13.91, 17.22 15.45 C15.79 17, 14.11 18.98, 12.2 19.54 C10.28 20.1, 7.52 19.67, 5.73 18.82 C3.93 17.97, 2.16 16.59, 1.42 14.44 C0.67 12.28, 0.68 8.02, 1.25 5.89 C1.81 3.77, 2.91 2.7, 4.82 1.67 C6.72 0.64, 11.12 -0.05, 12.66 -0.29 C14.2 -0.52, 14.22 -0.11, 14.08 0.27 M8.23 0.12 C10.02 -0.81, 12.97 -1.13, 14.82 0.08 C16.68 1.29, 18.58 5.15, 19.35 7.39 C20.12 9.63, 20.21 11.69, 19.43 13.53 C18.64 15.36, 16.35 17.28, 14.64 18.41 C12.94 19.54, 11.38 20.48, 9.21 20.32 C7.05 20.15, 3.04 18.9, 1.67 17.42 C0.3 15.95, 1.11 13.64, 0.99 11.48 C0.87 9.32, -0.41 6.29, 0.94 4.46 C2.3 2.63, 8.06 1.07, 9.12 0.51 C10.18 -0.04, 7.48 1.1, 7.3 1.12" stroke="#000000" stroke-width="1" fill="none"></path></g><g stroke-linecap="round" transform="translate(322.0331846835893 142.05625280903837) rotate(0 10.05078125 10.05078125)"><path d="M1.74 5.49 C1.74 5.49, 1.74 5.49, 1.74 5.49 M1.74 5.49 C1.74 5.49, 1.74 5.49, 1.74 5.49 M0.34 11.81 C3.55 10.89, 5.14 7.62, 9.33 2.44 M1.15 12.92 C2.39 11.12, 4.4 8.42, 8.27 3.77 M5.48 14.61 C4.81 12.4, 7.68 9.07, 16.15 0.96 M4.05 15.86 C8.87 10.92, 12.05 5.62, 15.06 1.75 M6.56 21.37 C7.92 14.47, 13.36 10.31, 20.05 4.72 M4.44 20.6 C10.23 15.41, 12.86 9.85, 18.84 3.3 M10.8 19.37 C13.71 15.37, 19.01 9.73, 19.91 9.7 M11.27 19.91 C14.49 15.19, 18.14 10.39, 19.91 8.54" stroke="#40c057" stroke-width="0.5" fill="none"></path><path d="M12.66 0.47 C14.79 0.75, 17.41 1.51, 18.71 3.23 C20 4.94, 20.61 8.54, 20.43 10.76 C20.25 12.99, 19.16 15.12, 17.61 16.56 C16.07 18.01, 13.38 19.01, 11.17 19.44 C8.95 19.88, 6.01 20.18, 4.3 19.16 C2.59 18.15, 1.31 15.65, 0.89 13.36 C0.47 11.07, 1 7.4, 1.8 5.42 C2.6 3.45, 3.7 2.5, 5.7 1.53 C7.7 0.57, 12.37 -0.15, 13.8 -0.34 C15.23 -0.53, 14.33 0.05, 14.29 0.39 M8.24 0.11 C10.23 -0.46, 12.77 0.29, 14.83 1.38 C16.88 2.47, 19.79 4.84, 20.56 6.64 C21.34 8.44, 20.52 10.17, 19.47 12.18 C18.42 14.18, 16.21 17.32, 14.26 18.69 C12.31 20.05, 9.75 20.53, 7.76 20.38 C5.76 20.23, 3.82 19.24, 2.3 17.78 C0.77 16.32, -1.16 13.79, -1.38 11.62 C-1.61 9.44, -0.59 6.63, 0.94 4.74 C2.47 2.85, 6.43 1.24, 7.8 0.29 C9.18 -0.66, 9.18 -0.99, 9.19 -0.97" stroke="#000000" stroke-width="1" fill="none"></path></g><g transform="translate(10 140.4389756810998) rotate(0 19.8599853515625 12.5)"><text x="0" y="0" font-family="Source Sans Pro, Virgil, Segoe UI Emoji" font-size="20px" fill="#000000" text-anchor="start" style="white-space: pre;" direction="ltr" dominant-baseline="text-before-edge">main</text></g><g mask="url(#mask-dgadjp1oG3iEFmrkE7_oJ)" stroke-linecap="round"><g transform="translate(75.05153017649451 163.12649335664997) rotate(0 99.5507369192417 25.309291782399754)"><path d="M0.65 -0.63 C0.51 -0.72, -6.37 -7.12, -0.85 0.38 C4.68 7.88, 10.37 35.85, 33.79 44.39 C57.21 52.93, 111.95 58.71, 139.68 51.61 C167.4 44.51, 190 10.05, 200.14 1.79 M-0.47 1.66 C-0.23 1.11, -4.69 -8.78, 1.42 -1.55 C7.53 5.69, 13.17 36.55, 36.19 45.08 C59.22 53.62, 111.94 56.91, 139.59 49.66 C167.23 42.41, 191.7 9.15, 202.09 1.58" stroke="#000000" stroke-width="1" fill="none"></path></g><g transform="translate(75.05153017649451 163.12649335664997) rotate(0 99.5507369192417 25.309291782399754)"><path d="M187.83 27.1 C193.22 18.87, 194.53 11.35, 204.02 0.81 M188.54 29.19 C190.71 24.04, 194.44 17.78, 202.33 2.28" stroke="#000000" stroke-width="1" fill="none"></path></g><g transform="translate(75.05153017649451 163.12649335664997) rotate(0 99.5507369192417 25.309291782399754)"><path d="M173.61 12.3 C183.34 8.39, 188.88 5.27, 204.02 0.81 M174.32 14.39 C179.39 12.36, 186.01 9.12, 202.33 2.28" stroke="#000000" stroke-width="1" fill="none"></path></g></g><mask id="mask-dgadjp1oG3iEFmrkE7_oJ"><rect x="0" y="0" fill="#fff" width="375.65609242326514" height="313.5789397884056"></rect><rect x="67.5872445229515" y="198.7071496055636" fill="#000" width="84.39993286132812" height="20" opacity="1"></rect></mask><g transform="translate(67.5872445229515 198.70714960556356) rotate(0 107.01502257278472 -10.27136446651383)"><text x="42.19996643066406" y="0" font-family="Source Sans Pro, Virgil, Segoe UI Emoji" font-size="16px" fill="#000000" text-anchor="middle" style="white-space: pre;" direction="ltr" dominant-baseline="text-before-edge">tricky form</text></g><g mask="url(#mask-bC2gI3jQvnjvo2zhuVMzw)" stroke-linecap="round"><g transform="translate(132.07977363732653 137.67836243917176) rotate(0 67.55366989556535 -33.168101630474034)"><path d="M0.82 0.23 C0.88 -0.02, -7.87 11.33, 0.23 -0.66 C8.33 -12.65, 26.22 -71.36, 49.42 -71.74 C72.63 -72.12, 124.43 -14.45, 139.48 -2.93 M-0.21 -0.7 C-0.27 -0.88, -9.29 12.25, -0.59 0.53 C8.1 -11.18, 28.61 -70.56, 51.95 -70.99 C75.29 -71.41, 124.48 -13.47, 139.44 -2.03" stroke="#000000" stroke-width="1" fill="none"></path></g><g transform="translate(132.07977363732653 137.67836243917176) rotate(0 67.55366989556535 -33.168101630474034)"><path d="M112.31 -13.61 C118.79 -11.93, 125.97 -8.24, 138.8 -2.56 M111.06 -13.41 C120.14 -11.13, 128.23 -7.27, 139.98 -2.92" stroke="#000000" stroke-width="1" fill="none"></path></g><g transform="translate(132.07977363732653 137.67836243917176) rotate(0 67.55366989556535 -33.168101630474034)"><path d="M126.44 -28.49 C128.98 -22.46, 132.11 -14.51, 138.8 -2.56 M125.19 -28.29 C130.29 -21.56, 134.27 -13.37, 139.98 -2.92" stroke="#000000" stroke-width="1" fill="none"></path></g></g><mask id="mask-bC2gI3jQvnjvo2zhuVMzw"><rect x="0" y="0" fill="#fff" width="372.10353334718525" height="308.3345889689317"></rect><rect x="74.7620687656115" y="85.70096583218788" fill="#000" width="154.44790649414062" height="20" opacity="1"></rect></mask><g transform="translate(74.76206876561156 85.70096583218788) rotate(0 124.87137476728032 18.809294976509854)"><text x="77.22395324707031" y="0" font-family="Source Sans Pro, Virgil, Segoe UI Emoji" font-size="16px" fill="#000000" text-anchor="middle" style="white-space: pre;" direction="ltr" dominant-baseline="text-before-edge">message handler v2</text></g><g mask="url(#mask-BzvDQzmFFuXL6f-VzrZH5)" stroke-linecap="round"><g transform="translate(373.7963003439015 167.49339262208923) rotate(0 43.28188201398018 27.981595165765825)"><path d="M-1.18 1.04 C-1.16 0.94, -5.83 -9.43, 1.1 0.13 C8.04 9.69, 25.75 58.39, 40.4 58.39 C55.06 58.39, 80.86 10.06, 89.03 0.1 M0.39 0.54 C0.27 0.59, -5.79 -8.16, 0.74 1.73 C7.26 11.62, 24.78 60.52, 39.53 59.87 C54.28 59.22, 81.16 8.05, 89.26 -2.16" stroke="#000000" stroke-width="1" fill="none"></path></g><g transform="translate(373.7963003439015 167.49339262208923) rotate(0 43.28188201398018 27.981595165765825)"><path d="M84.27 28.91 C85.14 15.66, 88.02 4.83, 90.19 -1.52 M81.82 26.62 C83.01 19.92, 86.16 13.41, 90.09 -2.81" stroke="#000000" stroke-width="1" fill="none"></path></g><g transform="translate(373.7963003439015 167.49339262208923) rotate(0 43.28188201398018 27.981595165765825)"><path d="M67.05 17.75 C74.54 8.92, 83.98 2.34, 90.19 -1.52 M64.6 15.46 C69.72 11.14, 76.78 7.15, 90.09 -2.81" stroke="#000000" stroke-width="1" fill="none"></path></g></g><mask id="mask-BzvDQzmFFuXL6f-VzrZH5"><rect x="0" y="0" fill="#fff" width="562.8444000503413" height="326.0240937322891"></rect><rect x="360.87330290920295" y="190.67369908601682" fill="#000" width="61.91993713378906" height="20" opacity="1"></rect></mask><g transform="translate(360.87330290920283 190.67369908601685) rotate(0 56.20487944867875 4.8012887018382315)"><text x="30.95996856689453" y="0" font-family="Source Sans Pro, Virgil, Segoe UI Emoji" font-size="16px" fill="#000000" text-anchor="middle" style="white-space: pre;" direction="ltr" dominant-baseline="text-before-edge">fix form</text></g><g stroke-linecap="round" transform="translate(554.5800349188339 141.29424541709426) rotate(0 10.05078125 10.05078125)"><path d="M2.24 3.27 C2.24 3.27, 2.24 3.27, 2.24 3.27 M2.24 3.27 C2.24 3.27, 2.24 3.27, 2.24 3.27 M0.85 11.33 C3.04 6.77, 7.19 5.52, 9.36 0.89 M1.17 10.3 C3.83 8.4, 5.64 6.12, 9.62 1.91 M0.58 15.38 C6.31 12.93, 10.91 5.25, 13.36 0.55 M1.04 16.89 C6.58 12.28, 9.41 6.49, 13.35 1.73 M4.6 19.99 C10.64 14.74, 13.5 8.32, 17.87 4.42 M5.63 18.32 C8.84 14.01, 12.03 10.57, 16.86 3.89 M9.21 21.8 C12.01 14.79, 17.11 11.86, 20.03 9.11 M7.67 19.74 C10.43 17.66, 13.58 14.35, 19.38 8.09" stroke="#40c057" stroke-width="0.5" fill="none"></path><path d="M8.84 0.76 C10.87 0.34, 13.37 0.85, 15.13 1.93 C16.89 3.02, 18.84 5.38, 19.42 7.28 C20 9.18, 19.29 11.54, 18.62 13.33 C17.94 15.13, 17.08 16.93, 15.36 18.07 C13.64 19.22, 10.64 20.54, 8.29 20.21 C5.95 19.87, 2.64 17.84, 1.31 16.07 C-0.02 14.3, 0.17 11.71, 0.33 9.58 C0.48 7.45, 0.67 4.79, 2.24 3.27 C3.81 1.75, 8.43 0.84, 9.75 0.46 C11.06 0.08, 10.31 0.85, 10.14 1.01 M11.07 -0.09 C13.33 -0.04, 15.07 0.46, 16.65 2.08 C18.23 3.71, 20.26 7.41, 20.54 9.67 C20.82 11.92, 19.72 13.83, 18.33 15.61 C16.94 17.39, 14.05 19.85, 12.21 20.35 C10.36 20.85, 9.14 19.38, 7.26 18.62 C5.38 17.86, 2.29 17.71, 0.91 15.81 C-0.46 13.91, -1.73 9.62, -0.98 7.22 C-0.23 4.83, 3.7 2.44, 5.42 1.44 C7.13 0.44, 8.65 1.43, 9.32 1.21 C9.98 0.98, 9.28 -0.02, 9.42 0.1" stroke="#000000" stroke-width="1" fill="none"></path></g><g stroke-linecap="round" transform="translate(605.596411931721 141.91314396100734) rotate(0 10.05078125 10.05078125)"><path d="M2.56 2.22 C2.56 2.22, 2.56 2.22, 2.56 2.22 M2.56 2.22 C2.56 2.22, 2.56 2.22, 2.56 2.22 M2.16 9.53 C2.51 6.95, 4.51 6.17, 8.23 0.68 M1.17 10.35 C2.84 7.61, 5.56 4.63, 8.72 1.41 M0.34 16.23 C5.84 10.04, 9.39 6.22, 12.73 2.61 M0.64 16.37 C5.12 11.56, 9.72 6.44, 12.34 3.73 M5.96 16.68 C8.51 14.29, 11.3 12.55, 16.36 1.49 M4.19 17.46 C7.75 15.11, 9.68 12, 16.86 2.47 M8.26 17.86 C10.98 15.57, 17.36 9.43, 20.14 4.45 M8.83 19.42 C12.12 15.38, 15.16 13.52, 21.39 5.81 M14.32 18.47 C17.04 16.68, 18.54 16.1, 22.66 9.06 M14.05 19.13 C16.01 16.84, 19.06 13.66, 22.8 8.93" stroke="#40c057" stroke-width="0.5" fill="none"></path><path d="M9.89 0.74 C11.83 0.55, 13.76 0.79, 15.54 1.82 C17.32 2.84, 20.06 4.59, 20.58 6.87 C21.09 9.15, 19.78 13.57, 18.63 15.5 C17.48 17.43, 15.43 17.89, 13.66 18.47 C11.89 19.05, 10.02 19.48, 8.01 18.98 C6 18.47, 2.83 17.04, 1.61 15.43 C0.39 13.82, 0.48 11.55, 0.67 9.3 C0.87 7.06, 1.05 3.33, 2.78 1.97 C4.51 0.61, 9.29 1.19, 11.07 1.13 C12.84 1.07, 13.32 1.46, 13.42 1.62 M4.65 2.36 C6.42 1.33, 10.94 1.31, 13.23 1.68 C15.52 2.05, 17.49 3.15, 18.4 4.59 C19.32 6.03, 18.77 8.36, 18.74 10.31 C18.71 12.25, 19.46 14.66, 18.24 16.28 C17.02 17.89, 13.91 19.75, 11.41 20 C8.92 20.25, 4.9 19.16, 3.25 17.78 C1.6 16.41, 2.07 13.57, 1.51 11.76 C0.95 9.95, -0.98 8.67, -0.11 6.91 C0.77 5.16, 5.89 2.3, 6.76 1.21 C7.64 0.13, 5.44 0.33, 5.16 0.39" stroke="#000000" stroke-width="1" fill="none"></path></g><g mask="url(#mask-gHzUdEbGCNxUYEuRG0JA0)" stroke-linecap="round"><g transform="translate(516.2590089208915 137.08796580188627) rotate(0 48.95173289951424 -14.213121125174858)"><path d="M0.4 0.89 C0.64 0.78, -5.22 4.12, 0.77 -1.05 C6.76 -6.22, 22.28 -27.31, 36.34 -30.15 C50.4 -32.99, 74.42 -23.23, 85.13 -18.11 C95.84 -12.98, 97.88 -2.82, 100.61 0.61 M-0.85 0.31 C-0.64 0.35, -5.8 4.86, 0.22 -0.07 C6.25 -4.99, 21.08 -26.41, 35.3 -29.23 C49.52 -32.05, 74.9 -21.95, 85.55 -16.99 C96.2 -12.03, 96.84 -2.61, 99.22 0.55" stroke="#000000" stroke-width="1" fill="none"></path></g><g transform="translate(516.2590089208915 137.08796580188627) rotate(0 48.95173289951424 -14.213121125174858)"><path d="M91.26 -7.51 C91.33 -6.76, 93.79 -3.73, 99.25 0.7 M90.94 -8.62 C92.33 -6.91, 94.47 -4.21, 98.89 0.34" stroke="#000000" stroke-width="1" fill="none"></path></g><g transform="translate(516.2590089208915 137.08796580188627) rotate(0 48.95173289951424 -14.213121125174858)"><path d="M99.03 -11.15 C97.23 -9.5, 97.81 -5.6, 99.25 0.7 M98.72 -12.26 C98.36 -9.65, 98.72 -6.12, 98.89 0.34" stroke="#000000" stroke-width="1" fill="none"></path></g></g><mask id="mask-gHzUdEbGCNxUYEuRG0JA0"><rect x="0" y="0" fill="#fff" width="716.726193932622" height="267.95756653002405"></rect><rect x="540.2040509572113" y="97.68417741459524" fill="#000" width="25.823989868164062" height="20" opacity="1"></rect></mask><g transform="translate(540.2040509572114 97.68417741459524) rotate(0 25.006690863194308 25.190667262116172)"><text x="12.911994934082031" y="0" font-family="Source Sans Pro, Virgil, Segoe UI Emoji" font-size="16px" fill="#000000" text-anchor="middle" style="white-space: pre;" direction="ltr" dominant-baseline="text-before-edge">etc</text></g><g transform="translate(189.86942517520959 10) rotate(0 139.34390258789062 10)"><text x="0" y="0" font-family="Source Sans Pro, Virgil, Segoe UI Emoji" font-size="16px" fill="#000000" text-anchor="start" style="white-space: pre;" direction="ltr" dominant-baseline="text-before-edge">Typical Feature Branching Workflow</text></g></svg>