<svg version="1.1" xmlns="http://www.w3.org/2000/svg" viewBox="0 0 1067.416015625 404.740234375" width="2134.83203125" height="809.48046875">
  <!-- svg-source:excalidraw -->
  <!--

  NOTE!!! I made some changes to make this look nice in the site:
  - Changed the `fill=` on the parent <rect> element to match the page
    background.
  - Changed the fonts to use site fonts

    -->
  <rect x="0" y="0" width="1067.416015625" height="404.740234375" fill="#fffdf7"></rect><g stroke-linecap="round" transform="translate(10 165.5546875) rotate(0 117.951171875 108.564453125)"><path d="M27.5 38.48 C27.5 38.48, 27.5 38.48, 27.5 38.48 M27.5 38.48 C27.5 38.48, 27.5 38.48, 27.5 38.48 M15.24 57.03 C23.89 51.83, 29.77 43.34, 44.39 25.64 M16.25 58.71 C21.04 51.02, 27.79 44.29, 42.85 26.57 M8.63 75.17 C22.65 56.56, 36.07 41.83, 56.77 16.62 M6.09 75.56 C27.29 50.56, 48.33 28.71, 59.47 15 M5.32 81.6 C19.6 63.13, 36.69 46.19, 62.27 17.39 M5.75 83.31 C26.58 57.5, 49.13 32.45, 62.49 14.62 M2.35 88.03 C21.24 69.07, 42.77 46.53, 71.29 14.37 M5.02 89.63 C20.88 70.35, 39 49.14, 71.48 13.64 M1.25 98.69 C29.76 66.14, 57.29 34.48, 77.86 11.6 M3.36 97.6 C28.52 67.8, 52.74 38.06, 77.11 10.94 M1.68 106.05 C21.25 83.43, 43.78 59.28, 86.31 10.04 M2.66 104.85 C20.32 85.41, 35.64 66.56, 85.87 9.85 M-1.46 111.51 C20.01 89.36, 42.7 64.92, 91.61 4.74 M0.28 112.75 C34.45 74.66, 68.29 36.04, 93.49 6.87 M2.14 117.08 C29.79 85.61, 54.45 55.37, 102.35 2.85 M2.33 117.54 C23.48 92.04, 44.22 67.31, 101.88 2.03 M4.03 122.38 C26.69 93.53, 52.12 66.06, 108.56 2.04 M3.49 121.8 C38.95 78.34, 75.96 37.15, 108 0.85 M3.17 125.99 C26.71 98.87, 54.71 70.51, 111 3.35 M4.22 125.31 C27.7 99.33, 50.55 71.65, 111.22 1.67 M7.59 128.93 C38.38 92.89, 68.66 57.1, 118.39 1.21 M6.47 130.93 C47.37 82.18, 89.57 33.51, 117.57 1.09 M6.1 136.61 C48.94 88.39, 88.17 42.28, 123.72 3.9 M6.38 134.05 C50.17 84.6, 94.04 34.27, 122.02 2.92 M7.87 139.48 C49.07 93.2, 88.94 48.39, 128.48 1.66 M9.92 139.74 C33.94 109.41, 60.7 79.65, 127.81 1.77 M9.45 143.74 C38.19 111.71, 63.33 79.21, 134.35 4.43 M10.96 142.91 C58.03 89.53, 104.57 34.07, 132.15 3.25 M10.39 148.03 C51.75 102.55, 87.43 59.06, 136.16 1.77 M10.86 147.41 C60.35 91.36, 109.03 36.04, 138.21 3.35 M11.58 154.89 C54.23 102.34, 99.38 53.3, 144.21 1.54 M11.93 153.03 C56.91 101.77, 101.98 49.43, 143.47 3.62 M14.21 155.75 C59.78 105.36, 103.99 54.94, 147.85 3.51 M14.31 156.85 C55.47 109.28, 95.4 61.46, 146.48 4.12 M17.29 159.16 C65.81 102.54, 117.39 43.14, 151.45 7.69 M16.73 161.23 C55.91 115.63, 95.18 69.22, 150.24 6.76 M19.74 162.08 C67.31 111.07, 110.7 56.94, 154.27 9 M20.07 163.46 C70.85 104.65, 120.35 47.31, 153.97 8.2 M22.12 167.74 C69.24 113.64, 112.02 62.7, 159.89 10.25 M21.31 166.8 C61.16 119.56, 102.49 72.3, 158.46 8.85 M25.21 170.1 C57.03 130.33, 93.82 89.89, 163.76 10.95 M24.45 170.86 C55.93 132.87, 88.22 97.5, 161.7 11.65 M26.7 172.21 C55.4 139.33, 83.41 108.9, 166.29 12.26 M25.78 173.56 C75.19 117.71, 122.22 62.48, 166.61 13.3 M30.32 177.92 C57 142.09, 84.83 112, 171.06 12.81 M28.32 177.44 C78.31 122.06, 125.77 67.15, 169.7 13.72 M32.04 181.94 C68.6 137.67, 106.2 95.25, 174.42 16.81 M30.65 181 C66.99 137.22, 102.32 95.86, 173.48 15.78 M32.64 182.84 C77.05 130.95, 122.33 81.84, 177.35 18.9 M34.24 183.23 C64.43 150.3, 94.67 115.15, 178.17 16.66 M34.4 186.95 C68.44 153.09, 98.66 116.61, 182.17 19.56 M35.95 187.17 C91.28 126.65, 145.61 64.29, 182.03 18.4 M41 188.42 C82.58 142.49, 123.67 91.64, 187.68 19.61 M39.99 189.07 C87.08 134.41, 136.13 78.02, 186.01 20.27 M43.51 191.67 C74.35 157.98, 104.54 123.08, 188.76 22.34 M43.06 191.64 C81.23 146.6, 120.29 101.68, 189.92 23.05 M46.33 192.66 C84.71 147.71, 125.55 103.37, 193.49 26.65 M46.56 194.42 C86.73 147.22, 126.38 101.11, 193.17 25.16 M51.56 195.18 C89.74 151.61, 126.61 110.32, 196.46 27.73 M50.44 195.83 C83.15 158.56, 115.36 120.73, 195.72 28.84 M53.58 197.07 C105.69 139.78, 154.7 78.39, 196.87 30.65 M53 196.94 C81.3 164.56, 111.08 129.69, 198.12 30.98 M55.11 198.86 C87 162.52, 120.23 125.43, 199.8 32.49 M55.74 199.42 C110.83 135.66, 166.53 70.52, 201.01 34.88 M60.84 200.36 C101.19 156.45, 144.08 105.78, 205.57 37.76 M60.48 202.49 C106.18 146.03, 154.36 91.97, 204.05 37.63 M63.31 202.38 C90.69 171.32, 121.29 138.33, 207.41 40.41 M63.07 204.1 C120.9 139.39, 175.75 75.4, 207.13 40.2 M67.74 206.73 C119.16 148.54, 171.88 88.43, 208.48 42.5 M66.08 206.67 C102.27 163.92, 138.88 122.52, 209.15 41.4 M69.94 207.65 C122.84 151.13, 172.36 93.23, 213.43 46.2 M69.8 207.96 C116.81 154.5, 161.47 102.17, 213.48 44.13 M76.58 207.55 C117.6 160.57, 159.83 111.75, 214.74 47.3 M75.11 208.59 C111.3 167.75, 145.82 127.72, 215.28 46.76 M79.05 209.5 C114.89 166.35, 151.47 126.57, 217.85 53.15 M79.19 209.23 C130.59 149.66, 181.5 91.93, 217.88 50.93 M85.29 209.99 C112.8 176.95, 141.8 146.5, 221.57 53.32 M84.6 210.8 C137.22 152.04, 188.11 90.92, 219.3 54.6 M88.59 213.86 C115.78 180.68, 141.73 150.18, 220.45 57.79 M88.35 211.35 C139.95 154.58, 191.42 97.01, 221.86 58.91 M92.03 214.09 C118.84 181.17, 143.44 153.72, 224.75 63.26 M94.23 212.67 C142.92 156.75, 190.6 101.57, 222.54 62.12 M96.09 212.21 C131.27 178.57, 160.42 145.2, 223.36 65.22 M98.64 214.57 C134.43 170.24, 173.05 125.61, 225.44 67.86 M104.2 215.15 C148.05 161.1, 197.17 105.44, 226.92 68.89 M102.29 214.62 C142.51 166.22, 185.78 118.65, 227.08 69.76 M105.21 216.98 C151.02 165.98, 191.35 115.43, 228.49 75.49 M107.79 214.98 C145.91 171.21, 184.24 126.86, 229.91 75.65 M109.72 216.09 C144.24 179.98, 177.5 142.26, 231.59 78.19 M111.93 215.75 C142.17 182.95, 171.43 147.75, 231.63 79.19 M113.01 216.9 C147.47 177.49, 184.56 136.68, 233.99 83.88 M113.71 218.12 C154.81 172.82, 193.95 128.14, 232.91 82.01 M121.3 219.95 C160.71 172, 203.4 122.29, 233.88 87.54 M120.6 218.97 C152.03 184.12, 182.33 147.01, 234.72 85.63 M125.56 218.71 C167.15 171.56, 205.59 126.61, 237.71 90.5 M127.36 217.11 C159.25 181.34, 190.11 145.92, 236.05 92.16 M130.41 218.7 C170.22 171.09, 207.77 127.51, 236.23 95.56 M132.99 216.91 C156.54 189.23, 182.09 160.68, 237.16 96.85 M139.69 216.67 C156.73 192.77, 177.31 169.64, 237.71 104.21 M137.35 216.91 C160.73 187.37, 186.38 159.91, 236.63 101.85 M144.19 214.31 C179.78 175.21, 216.71 133.72, 238.79 106.31 M142.9 216.03 C178.77 176.12, 215.01 136.47, 237.43 107.32 M150.63 214.21 C184.07 175.95, 215.58 138.73, 238.2 115.55 M148.7 214.95 C174.14 186.53, 199.79 156.98, 236.53 115.34 M158.54 211.46 C181.67 179.83, 209.04 153.71, 235.66 119.08 M157.35 212.25 C185.15 179.78, 215.33 145.01, 236.91 121.06 M166.08 205.95 C184.24 185.85, 203.45 166.64, 238.26 124.78 M167.81 208.13 C183.84 187.18, 200.62 166.98, 237.96 126.37 M176.22 200.51 C192.08 183.35, 208.9 167.66, 235.48 135.4 M175.65 203.01 C192.35 185.96, 207.44 167.6, 233.49 135.61 M187.09 195.32 C201.63 179.56, 212.12 164.65, 232.65 146.46 M186.4 197.45 C202.2 178.59, 217.92 160.71, 231.26 145.81" stroke="#12b886" stroke-width="0.5" fill="none"></path><path d="M144.66 3 C158.12 4.23, 173.24 12.19, 185.12 19.54 C197 26.89, 207.98 36.5, 215.94 47.1 C223.9 57.69, 229.68 70.39, 232.86 83.11 C236.04 95.83, 236.95 110.19, 235.01 123.42 C233.07 136.64, 228.22 150.94, 221.21 162.45 C214.21 173.97, 203.81 184.26, 192.98 192.51 C182.15 200.75, 169.78 207.97, 156.24 211.93 C142.71 215.89, 126.07 216.9, 111.8 216.25 C97.52 215.61, 83.58 213.16, 70.6 208.05 C57.62 202.93, 43.93 194.89, 33.93 185.57 C23.93 176.24, 16.38 164.01, 10.62 152.11 C4.85 140.2, 0.08 127.12, -0.66 114.13 C-1.41 101.15, 1.49 86.75, 6.15 74.19 C10.8 61.63, 18.1 48.95, 27.26 38.76 C36.43 28.57, 48.71 19.36, 61.14 13.04 C73.57 6.72, 86.16 1.99, 101.84 0.84 C117.52 -0.3, 145.02 4.54, 155.2 6.17 C165.38 7.8, 163.6 8.91, 162.92 10.63 M152.34 4.69 C165.91 6.71, 181.79 14.6, 192.88 22.75 C203.97 30.91, 212.11 42.27, 218.87 53.61 C225.62 64.96, 231.23 77.61, 233.42 90.81 C235.61 104.01, 234.99 119.84, 232.01 132.81 C229.03 145.78, 223.11 157.75, 215.56 168.61 C208 179.47, 198.07 190.41, 186.67 197.97 C175.27 205.53, 161.14 210.79, 147.16 213.97 C133.17 217.15, 116.74 218.83, 102.76 217.04 C88.78 215.24, 75.56 209.28, 63.26 203.2 C50.96 197.13, 38.54 190.26, 28.95 180.57 C19.36 170.89, 10.43 157.6, 5.72 145.09 C1 132.59, -0.14 118.41, 0.67 105.53 C1.49 92.64, 5.2 79.93, 10.6 67.79 C16.01 55.65, 23.61 42.29, 33.11 32.68 C42.61 23.07, 54.95 15.74, 67.58 10.14 C80.22 4.53, 94.86 -0.07, 108.93 -0.96 C123.01 -1.84, 144.72 3.66, 152.03 4.81 C159.34 5.96, 153.38 3.92, 152.8 5.92" stroke="#000000" stroke-width="1" fill="none"></path></g><g transform="translate(87.85713409885392 261.8524796245034) rotate(0 40.189964294433594 12.5)"><text x="40.189964294433594" y="0" font-family="Source Sans Pro, Virgil, Segoe UI Emoji" font-size="20px" fill="#000000" text-anchor="middle" style="white-space: pre;" direction="ltr" dominant-baseline="text-before-edge">Commit 1</text></g><g stroke-linecap="round" transform="translate(549.017578125 171.056640625) rotate(0 117.951171875 108.564453125)"><path d="M17.09 51.95 C17.09 51.95, 17.09 51.95, 17.09 51.95 M17.09 51.95 C17.09 51.95, 17.09 51.95, 17.09 51.95 M10.95 61.33 C24.56 51.53, 35.6 38.39, 48.25 21.67 M12.17 63.21 C27.05 46.17, 39.1 30.92, 48.54 23.29 M9.94 73.07 C25.74 53.75, 45.25 33.42, 56.43 20.21 M8.27 73.15 C22.97 57.79, 35.98 42.38, 56.34 18.76 M2.69 84.2 C21.53 67.7, 36.53 49.64, 65.45 15.33 M3.78 84.5 C21.48 65.24, 39.06 45.2, 64.76 15.73 M5.24 92.13 C23.4 68.5, 44.45 45.53, 71.57 12.77 M3.53 91.91 C23.17 68.85, 42.21 46.53, 74.04 12.69 M2.29 97.58 C35.2 60.9, 65.07 25.9, 81.72 7.46 M3.76 97.2 C22.98 78.41, 39.21 57.95, 81.11 8.38 M5.35 105.68 C24.71 78.41, 50.73 51.08, 88.54 5.7 M4.25 104.87 C35.22 67.2, 68.46 32.16, 87.67 7.45 M5.05 111.17 C34.5 71.42, 64.25 36.08, 94.56 5.08 M3.79 110.83 C36.69 72.65, 67.59 37.45, 94.43 6.81 M1.52 117.12 C38.63 76.03, 78.75 30.27, 97.99 6.72 M2.44 117.54 C23.46 94.41, 42.37 72.92, 99.84 5.34 M4.65 123.58 C32.41 90.29, 58.69 56.49, 106.92 5.39 M2.94 122.14 C33.57 87.67, 63.21 54.39, 104.45 4.54 M3.79 131.04 C27.41 100.52, 51.58 73.91, 110.38 3.76 M2.36 130.41 C39.34 85.78, 78.44 41.36, 110.89 4.16 M4.62 135.85 C37.84 95.99, 69.33 58.92, 118.64 5.3 M4.06 133.61 C38.57 91.86, 75.42 49.7, 116.26 3.65 M5.64 140.21 C34.09 106.3, 60.83 76.22, 124.1 1.73 M6.17 138.96 C40.8 100.7, 72.85 61.34, 124.05 2.99 M7.67 142.27 C39.8 103.34, 73.98 66.05, 131.09 0.96 M8.15 141.23 C38.59 107.77, 66.72 74.36, 129.93 1.2 M10.9 144.92 C37.92 116.64, 62.33 85.69, 132.74 3.04 M9.84 145.97 C42.44 109.29, 75.25 72.61, 133.7 1.68 M11.15 151.88 C58.38 94.96, 103.15 41.53, 138.6 4.78 M10.79 151.08 C45.95 112.03, 80.44 70.7, 138.93 3.35 M12.21 152.69 C63.48 96.02, 115.43 34.2, 141.06 3.28 M12.59 154.26 C67.08 94.2, 116.51 35.83, 142.37 5.59 M16.08 157.65 C67.08 98.87, 115.66 42.78, 147.53 4.48 M14.38 157.46 C62.53 103.74, 109.76 47.92, 146.34 5.25 M17.65 160.18 C67.93 104.29, 117.15 48.09, 152.85 7.03 M16.66 161.42 C71.6 101.43, 126.01 38.7, 151.66 6.42 M18.54 166.59 C73.36 102.56, 126.34 43.09, 154.19 6.8 M19.44 166.01 C58.98 120.54, 97.59 75.95, 155.04 8.06 M20.03 167.36 C75.95 107.69, 127.6 45.11, 160.99 10.84 M20.87 167.73 C56.11 130.39, 88.58 93.29, 160.73 9.96 M25.96 170.28 C59.78 128.89, 97.69 87.16, 165.24 11.55 M24.6 170.97 C73.26 116.77, 122.27 59.93, 164.94 10.15 M27.58 174.73 C57.3 140.26, 87.86 102.22, 170.15 12.05 M26.28 175.02 C66.53 129.48, 106.79 84.66, 169.32 12.06 M29.44 177.63 C85.86 115.84, 138.65 54.62, 173.85 15.1 M29.85 177.89 C69.26 130.54, 109.64 83.89, 171.88 13.98 M32.75 181.08 C75.75 128.5, 122.69 77.99, 175.15 14.58 M32.73 179 C80.31 125.29, 128.95 69.1, 175.34 15.72 M34.19 183.67 C77.51 134.95, 121.47 85.6, 179.9 18.2 M35.99 184.03 C83.74 125.51, 133.5 69.59, 179.58 17.4 M36.83 187.57 C74.14 144.66, 108.95 104.46, 183.68 20.01 M37.87 186.29 C71.51 147.05, 104.97 108.09, 182.61 19.25 M43 189.68 C88.28 136.72, 130.16 86.28, 186.56 21.9 M41.44 188.75 C71.11 152.78, 101.2 117.32, 186.71 22.76 M44.36 192.2 C81.03 149.22, 117.14 104.52, 188.25 24.69 M43.02 192.34 C78.41 149.47, 113.87 108.35, 189.23 24.68 M48.47 193.95 C85.52 146.92, 125.43 104.63, 191.76 26.11 M47.4 193.89 C89.76 144.32, 132.52 94.49, 193.24 27.64 M49.08 197.28 C98.13 142.12, 143.5 89.85, 194.41 29.93 M50.39 196.76 C84.59 159.28, 117.6 121.8, 195.93 29.7 M53.92 197.91 C105.87 137.61, 154.34 80.33, 198.25 29.84 M53.59 198.62 C86.24 161.25, 119.84 121.47, 199.11 31.16 M56.43 200.73 C96.47 155.92, 134.39 113.41, 201.46 33.01 M56.95 200.64 C105.95 146.63, 152.99 91.74, 201.46 33.44 M62.85 203.49 C108.22 146.7, 151.66 96.71, 204.9 36.41 M60.75 201.14 C117.54 139.09, 172.13 74.42, 205.14 36.56 M66.71 202.86 C103.23 160.58, 141.86 115.32, 210.02 37.65 M64.41 203.83 C101.65 162.95, 138.84 122.01, 207.58 39.13 M70.36 204.44 C101.51 167.89, 134.84 129.53, 209.96 43.61 M68.09 206.49 C117.46 149.03, 166.85 93.89, 210.13 42.21 M73.93 207.27 C123.63 148.59, 176.42 88.11, 213.13 45.08 M72.1 206.69 C128.06 145.16, 182.43 83.78, 212.81 46.04 M76.96 209.85 C127.76 153.09, 180.99 92.4, 215.18 48.93 M77.67 209.19 C107.24 173.45, 138.08 136.81, 215.99 49.55 M81.24 211.97 C126.24 159.14, 172.28 105.55, 216.68 54.3 M81.08 210.74 C123.84 161.95, 166.74 114.67, 218.02 52.22 M84.55 210.82 C122.68 170.68, 158.2 125.83, 221.74 54.78 M84.08 213.14 C132.63 153.94, 181.57 98.7, 220.85 56.89 M87.67 212.72 C139.41 156.24, 188.92 98.21, 223.43 61.16 M88.67 214.31 C121.18 173.59, 154.31 134.64, 221.68 60.02 M94.23 213.18 C133.61 164.85, 172.54 121.22, 222.38 65.42 M94.24 214.47 C123.44 180.71, 154.79 144.94, 224.88 63.94 M97.34 214.46 C134.87 172.13, 174.15 129.59, 228.02 66.19 M98.61 215.98 C129.77 178.69, 162.3 144.23, 226.38 67.12 M102.67 214.01 C144.23 167.55, 188.38 116.84, 228.15 70.49 M103.66 215.49 C143.94 165.48, 187.03 118.18, 228.05 69.5 M106.74 216.71 C139.38 180.25, 174.18 140.31, 230.65 75.97 M106.96 215.99 C151.23 164.68, 197.47 111.25, 229.22 75.13 M111.13 217.17 C140.35 183.74, 166.84 151.34, 229.86 81.23 M113.1 216.81 C144.55 180.38, 177.08 142.48, 231 80.78 M118.72 216.18 C148.77 177.53, 185.12 138.34, 230.93 86.98 M118.04 216.48 C153.3 177.76, 187.84 136.22, 231.62 84.61 M122.07 217.9 C156.34 175.83, 190.3 135.29, 233.54 89.25 M122.48 217.45 C158.81 176.86, 192.7 134.94, 232.16 89.85 M128.37 217.58 C171.99 169.82, 212.96 119.1, 236.76 95.3 M126.81 218.22 C150.5 190, 173.3 163.43, 234.49 94.16 M129.81 220.45 C167.77 178.16, 208.61 131.95, 234.81 97.37 M130.56 219.73 C154.24 191.33, 177.98 163.77, 235.01 99.83 M137.04 216.15 C166.43 180.56, 200.8 146.88, 237.28 104.77 M137.88 218.26 C158.83 195.1, 178.61 172.42, 235.93 103.4 M145.76 215.22 C164.49 191.44, 186.49 168.27, 236.84 109.66 M145.14 215.4 C163.63 192.23, 184 170.67, 237.01 107.86 M150.19 215.03 C173.84 186.04, 198.91 160.81, 235.54 117.95 M152.46 214.4 C175.64 186.84, 199.92 159.33, 236.88 117 M160.05 212.16 C185.97 182.44, 208.38 154.24, 235.05 122.94 M159.7 212.09 C174.54 195.2, 189.05 176.34, 235.33 125.61 M166.94 209.15 C181.74 188.36, 197.23 171.74, 233.71 130.33 M164.87 210.01 C182.3 190.89, 196.62 173.24, 233.39 131.86 M172.59 207.16 C189.88 189.27, 206.6 169.78, 232.89 140.9 M173.43 208.63 C192.64 184.31, 214.16 160.51, 231.65 140.47 M186.43 196.33 C196.53 185.28, 209.16 177.3, 228.52 147.4 M185.88 198.14 C199.16 183.21, 213.63 167.5, 230.97 149.14" stroke="#fab005" stroke-width="0.5" fill="none"></path><path d="M85.33 5.12 C97.94 -0.07, 114.4 -1.22, 128.48 -0.25 C142.56 0.72, 157.06 5.1, 169.82 10.96 C182.57 16.81, 195.4 25.25, 205.02 34.88 C214.64 44.5, 222.35 56.58, 227.52 68.73 C232.7 80.88, 235.8 94.66, 236.07 107.79 C236.34 120.92, 234.15 135.34, 229.15 147.51 C224.15 159.69, 215.79 171.02, 206.06 180.82 C196.34 190.62, 183.72 200.21, 170.81 206.3 C157.89 212.4, 142.52 216.39, 128.58 217.4 C114.64 218.41, 100.75 216.09, 87.16 212.36 C73.58 208.62, 58.48 202.7, 47.09 194.99 C35.71 187.28, 26.52 176.97, 18.87 166.1 C11.22 155.22, 3.94 142.39, 1.2 129.73 C-1.53 117.08, -0.23 103.16, 2.45 90.16 C5.13 77.15, 9.92 63.13, 17.3 51.71 C24.67 40.28, 32.41 30.16, 46.71 21.61 C61.02 13.06, 90.87 3.69, 103.14 0.39 C115.41 -2.92, 120.22 -0.19, 120.36 1.78 M82.04 4.93 C94.33 -0.31, 113.23 0.52, 127.48 1.37 C141.72 2.21, 154.7 4.73, 167.49 9.99 C180.27 15.25, 194.5 23.57, 204.18 32.92 C213.87 42.28, 220.35 53.73, 225.6 66.12 C230.85 78.51, 235.2 94.23, 235.67 107.27 C236.14 120.31, 233.46 132.44, 228.42 144.37 C223.38 156.3, 214.58 168.71, 205.44 178.87 C196.3 189.03, 185.84 199.06, 173.56 205.35 C161.27 211.64, 145.79 215.32, 131.73 216.6 C117.67 217.89, 102.97 216.58, 89.2 213.04 C75.42 209.5, 60.55 202.96, 49.06 195.36 C37.57 187.76, 28.23 178.08, 20.25 167.43 C12.27 156.77, 4.4 144.29, 1.16 131.44 C-2.07 118.59, -1.8 103.15, 0.84 90.35 C3.49 77.55, 9.52 65.77, 17.04 54.63 C24.56 43.49, 34.66 32, 45.96 23.52 C57.26 15.04, 78.35 6.59, 84.83 3.77 C91.31 0.96, 84.4 4.79, 84.86 6.64" stroke="#000000" stroke-width="1" fill="none"></path></g><g transform="translate(622.7747137497329 267.3544327495034) rotate(0 44.28996276855469 12.5)"><text x="44.28996276855469" y="0" font-family="Source Sans Pro, Virgil, Segoe UI Emoji" font-size="20px" fill="#000000" text-anchor="middle" style="white-space: pre;" direction="ltr" dominant-baseline="text-before-edge">Commit 3</text></g><g stroke-linecap="round" transform="translate(271.244140625 177.611328125) rotate(0 117.951171875 108.564453125)"><path d="M20.15 47.99 C20.15 47.99, 20.15 47.99, 20.15 47.99 M20.15 47.99 C20.15 47.99, 20.15 47.99, 20.15 47.99 M14.8 62.73 C22 49.14, 33.07 39.79, 49.4 19.3 M14.73 61.07 C25.9 48.9, 35.79 34.77, 51.67 19.09 M8.57 72.7 C23.85 57.3, 37.43 37.36, 60.08 17.33 M8.48 73.4 C26.46 52.87, 44.53 30.71, 58.28 16.52 M5.13 84.22 C29.07 58.34, 51.76 32.46, 66.77 12.82 M4.72 84.34 C29.21 56.65, 51.57 30.8, 66.92 12.15 M5.62 92.91 C25.05 66.78, 46.06 40.81, 74.08 9.53 M3.5 90.19 C20.39 70.59, 38.32 50.86, 74.92 10.85 M3.56 96.75 C23.37 74.87, 43.71 54.91, 80.39 7.95 M2.94 98.13 C34.6 61.06, 66.09 27.26, 81.28 6.92 M3.74 104.69 C36.95 67.07, 71.11 27.54, 90.16 2.25 M2.94 104.22 C22.04 82.7, 41.96 60.69, 90.98 3.54 M4.49 111.86 C33.28 74.58, 60.8 41.32, 94.32 5.52 M3.7 109.17 C38.38 70.54, 72.11 32.28, 96.4 3.41 M1.44 117.02 C31.9 85.46, 60.96 50.98, 102.45 5.1 M2.31 117.19 C20.58 94.09, 41.05 69.79, 101.52 2.63 M0.37 122.23 C31.6 86.95, 66.45 52.86, 106.51 1.1 M1.81 124.17 C27.29 95.87, 52.07 67.15, 106.73 2.64 M4.27 127.04 C45.85 80.96, 84.28 39.47, 113.81 2.06 M5.14 127.29 C29.71 97.09, 54.81 66.85, 111.79 2.36 M5.74 129.98 C32.62 101.73, 57.42 75.33, 119.35 1.66 M5.64 131.04 C35.32 94.56, 67.8 59.76, 119.17 2.36 M8.43 134.65 C35.74 105.54, 61.34 74.02, 124.05 1.37 M7.53 134.75 C52.68 82.9, 98.81 29.88, 124.41 2.01 M8.86 137.75 C32.48 112.08, 58.36 82.24, 131.15 3.18 M9.72 139.06 C39.17 104.15, 71.3 68.25, 129.46 1.63 M9.29 144.96 C52.36 97.84, 92.04 51.44, 136.47 0.25 M11.74 143.31 C42.78 106.34, 74.39 71.44, 135 1.65 M11.44 150.4 C49.92 107.49, 81.79 67.06, 139.45 3.13 M11.49 149.46 C55.14 101.32, 97.26 53.01, 140.52 2.27 M15.41 154.3 C38.95 122.07, 65.76 93.04, 145.33 1.9 M13.15 153.22 C46.84 114.34, 78.39 75.85, 144.54 4.11 M14.2 158.07 C60.89 105.64, 104.91 54.9, 148.82 4.26 M15.66 157.64 C55.63 107.75, 97.32 60.47, 147.43 5.56 M15.36 163.26 C68.01 104.38, 116.97 47.5, 152.86 5.31 M16.03 161.51 C60.45 110.41, 106.3 59.72, 151.6 5.76 M18.77 166.53 C49.51 131.79, 80.13 93.01, 156.21 8.94 M19.87 164.5 C45.94 132.15, 72.85 100.34, 156.87 6.57 M23.37 167 C58.66 124.23, 97.18 79.92, 158.86 8.72 M22.68 168.08 C58.08 124, 94.82 82.23, 160.04 9.18 M23.89 169.62 C59.87 129.97, 93.6 91.1, 164.32 11.32 M24.73 170.83 C62.54 126.84, 99.72 84.08, 163.61 10.46 M27.84 175.73 C71.42 119.74, 117.81 67.4, 170.22 11.21 M27.69 174.26 C76.83 116.44, 125.76 59.84, 168.06 11.47 M30.95 177.23 C64.12 140.84, 95.87 102.8, 171.77 13.29 M29.51 177.37 C82 116.69, 133.64 55.57, 172.64 13.36 M33.05 180.42 C71.12 136.34, 107.78 92.44, 176.14 15.57 M32.37 180.78 C76.53 128.32, 122.2 76.22, 175.9 14.4 M33.52 182.84 C71.52 137.06, 110.14 94.44, 178.98 15.96 M34.71 183.21 C68.24 144.68, 100.32 107.73, 179.26 16.28 M35.87 187.32 C69.67 148.49, 104.67 114.01, 183.84 18.04 M36.7 186.39 C68.4 151.99, 98.93 116.18, 182.06 19.93 M40.63 188.98 C71.54 155.51, 99.9 120.89, 187.92 22.03 M40.18 189.3 C92.62 132.83, 142.66 73.76, 185.58 21.2 M43.11 192.65 C74.72 158.97, 106.73 121.87, 189.04 22.5 M41.94 193.12 C88.46 140.46, 135.72 85.05, 189.59 24.52 M46.79 196.07 C89.5 142.83, 135.64 90.14, 193.26 25.12 M45.56 195.18 C91.41 143.02, 138.71 90.31, 192.32 26.42 M49.35 198.52 C85.98 155.5, 123.33 109.78, 197.64 27.08 M48.26 197.08 C85.9 156.17, 121.61 114.65, 195.67 29.1 M52.21 198.9 C85.58 161.15, 119.49 122.44, 198.97 30.34 M52.2 199.76 C92.22 152.81, 133.25 106.33, 199.18 30.81 M55.19 201.69 C98.27 157.75, 139.76 111.09, 203.04 32.47 M56.64 202.14 C88.23 164.06, 119.87 126.13, 202.63 34.37 M61.36 202.81 C97 162.4, 132.2 122.3, 205.79 36.45 M59.25 202.84 C99.18 155.57, 139.25 109.49, 205.14 35.74 M63.43 204 C119.62 138.9, 179.77 72.59, 207.08 37.95 M64.21 205.51 C95.14 170.17, 124.99 135.52, 208.74 37.69 M66.5 208.25 C123.01 144.88, 177.99 81.35, 211.48 42.17 M66.94 207.77 C111.86 153.33, 158.02 100.49, 211.34 40.2 M71.07 210.01 C101.5 169.55, 136.01 134.53, 213.14 45.68 M70.85 208.19 C129.08 144.31, 186.28 78.96, 214.14 45.22 M75.01 211.33 C120.36 156.27, 166.82 106.99, 215.32 48.64 M75.5 210.82 C115.97 163.72, 157.69 117.58, 216.09 47.62 M77.28 212.1 C132.08 149.47, 188.12 83.75, 219.25 52.91 M77.75 213.16 C120.69 165.76, 160.33 119.09, 218.32 51.07 M84.18 215.17 C123.04 165.63, 161.94 118.88, 220.35 56.72 M83.19 213.32 C117.56 172.65, 152.01 132.82, 219.65 55.32 M86.52 215.05 C117.17 184.08, 144.1 150.9, 222.55 57.9 M87.87 214.25 C117.4 179.31, 148.78 144.92, 222.1 59.87 M92.52 214.97 C140.46 159, 191.14 99.66, 222.8 64.25 M91.69 214.68 C137.46 160.62, 185.61 107.73, 223.34 63.09 M97.16 216.47 C145.47 159.75, 191.59 103.86, 225.33 68.64 M97.09 215.87 C132.93 174.82, 170.28 131.88, 225.73 66.03 M100.15 215.34 C151.52 159.05, 199.77 104.73, 226.31 72.74 M102.38 216.63 C141.07 171.6, 177.51 128.04, 227.1 71.98 M106.62 214.86 C146.44 175.27, 182.34 130.32, 231.26 74.31 M107.55 216.04 C150.24 168.02, 193.27 120.37, 229.04 75.54 M113.12 216.66 C138.48 185.97, 163.45 157.99, 228.83 79.02 M112.97 216.76 C147.44 176.36, 182.89 136.4, 231.3 80.83 M115.35 218.1 C143.04 189.3, 167.67 158.73, 231.55 84.21 M115.99 217.93 C142.41 188.42, 169.04 157.69, 232.7 85.54 M121.03 220 C149.6 184.86, 181.3 152.48, 234.22 89.87 M121.93 217.27 C155.19 179.86, 188.29 141.29, 232.49 89.41 M125.71 220.52 C151.38 190.1, 174.48 163.44, 232.21 97.27 M124.85 218.53 C166.65 173.72, 206.62 126.53, 232.72 95.33 M134.23 217.64 C154.52 193.75, 173.16 168.81, 232.37 98.69 M133.07 216.38 C167.87 174.94, 204.94 133.96, 234.16 100.54 M137.91 214.62 C161.9 192.11, 182.87 165.79, 235.45 104.61 M139.37 215.34 C175.14 175.38, 210.5 134.22, 234.74 104.24 M143.34 214.62 C169.07 188.28, 191.34 161.34, 234.99 109.37 M145.86 214.88 C171.18 184.26, 199.74 153.12, 235.55 110.8 M152.77 213.94 C171.01 189.26, 191.14 168.38, 239.02 114.62 M151.35 212.15 C169.33 193.15, 186.9 173.47, 238.44 115.63 M160.48 210.94 C184.35 185.96, 207.58 156.03, 235.08 121.79 M157.77 211.32 C175.23 193.3, 190.97 173.03, 236.16 123.09 M167.59 207.2 C182.43 190.14, 196.76 173.03, 233.67 132.18 M168.02 208.25 C193.98 178.76, 220.55 148.51, 231.88 133.16 M180.55 199.25 C195.33 178.54, 214.48 157.94, 229.44 140.01 M178.49 200.69 C198.76 177.06, 218.04 154.39, 229.27 141.79 M192.75 193.78 C204.67 177.42, 214.2 166.73, 225.44 153.31 M191.67 192.9 C201.65 180.75, 213.28 166.89, 226.92 152.41" stroke="#40c057" stroke-width="0.5" fill="none"></path><path d="M89.51 3.8 C102.4 -1.01, 120.39 -1.33, 134.56 0.19 C148.74 1.71, 162.13 6.49, 174.56 12.91 C187 19.32, 200.18 28.48, 209.19 38.69 C218.21 48.91, 224.15 61.66, 228.68 74.21 C233.2 86.77, 236.79 101.1, 236.35 114.02 C235.91 126.94, 231.75 140.02, 226.04 151.73 C220.33 163.44, 212.07 175.05, 202.1 184.29 C192.14 193.52, 179.43 201.79, 166.27 207.17 C153.11 212.54, 137.43 215.7, 123.13 216.55 C108.83 217.4, 93.91 216.11, 80.47 212.26 C67.02 208.4, 53.23 201.97, 42.47 193.43 C31.7 184.88, 22.74 172.42, 15.88 160.98 C9.03 149.55, 3.35 137.68, 1.33 124.8 C-0.7 111.91, 0.6 96.44, 3.72 83.66 C6.84 70.88, 12.27 59.02, 20.02 48.13 C27.77 37.25, 36.4 26.26, 50.21 18.35 C64.01 10.43, 91.61 3.4, 102.87 0.66 C114.13 -2.08, 117.54 0.25, 117.76 1.93 M72.88 8.6 C84.67 2.05, 101.8 0.09, 115.96 -0.48 C130.11 -1.06, 144.42 0.7, 157.81 5.15 C171.21 9.6, 185.83 17.36, 196.32 26.22 C206.81 35.08, 214.43 46.82, 220.76 58.31 C227.09 69.81, 232.3 82.1, 234.31 95.18 C236.33 108.25, 236.07 123.98, 232.85 136.76 C229.62 149.54, 223.07 161.6, 214.96 171.86 C206.85 182.11, 196.1 191.18, 184.2 198.28 C172.3 205.39, 157.56 211.62, 143.56 214.49 C129.55 217.37, 114.19 217.57, 100.17 215.53 C86.14 213.49, 71.7 208.71, 59.4 202.26 C47.1 195.82, 35.27 186.83, 26.35 176.87 C17.44 166.92, 10.06 155.11, 5.91 142.54 C1.75 129.97, 0.38 114.69, 1.43 101.43 C2.47 88.18, 6.49 74.96, 12.18 63.02 C17.86 51.09, 25.74 38.89, 35.54 29.81 C45.34 20.73, 64.85 11.93, 71 8.56 C77.14 5.2, 71.55 7.95, 72.42 9.6" stroke="#000000" stroke-width="1" fill="none"></path></g><g transform="translate(344.69127869113913 273.9091202495034) rotate(0 44.59996032714844 12.5)"><text x="44.59996032714844" y="0" font-family="Source Sans Pro, Virgil, Segoe UI Emoji" font-size="20px" fill="#000000" text-anchor="middle" style="white-space: pre;" direction="ltr" dominant-baseline="text-before-edge">Commit 2</text></g><g stroke-linecap="round" transform="translate(821.513671875 175.541015625) rotate(0 117.951171875 108.564453125)"><path d="M21.91 45.55 C21.91 45.55, 21.91 45.55, 21.91 45.55 M21.91 45.55 C21.91 45.55, 21.91 45.55, 21.91 45.55 M14.21 60.13 C22.91 51.54, 34.21 40.9, 49.01 22.08 M14.61 61.01 C27.62 44.54, 41.71 29.59, 47.57 21.15 M4.02 74.78 C15.7 61.5, 27.29 51.63, 56.28 18.59 M5.05 76.22 C16.89 64.91, 27.02 52.83, 55.65 18.82 M4.04 82.72 C20.6 66.79, 34.31 48.22, 64.56 17.6 M6.1 83.59 C22.01 64.81, 37.86 46.05, 62.32 15.57 M3.22 88.87 C22.99 68.9, 41.51 46.91, 72.4 14.83 M5.42 88.78 C23.26 67.15, 40.98 47.71, 71.15 14.65 M5.95 96.26 C28.48 69.53, 54.2 41.36, 78.7 11.23 M5.5 95.36 C24.22 71.42, 45.8 48.53, 77.66 11.59 M4.84 101.38 C30.41 70.58, 59.46 41.53, 84.83 10.03 M3.9 102.24 C36.44 64.22, 68.55 28.4, 85.88 8.34 M2.8 107.26 C34.68 75.27, 64.17 39.46, 96.57 5.54 M3.75 109.71 C28.02 81.18, 51.79 53.29, 95.77 4.07 M4.34 114.76 C41.54 76.72, 75.1 32.54, 99.65 3.79 M2.55 114.8 C38.31 76.28, 71.98 36.68, 101.22 4.86 M1.63 124.17 C38.37 84.06, 68.62 46.77, 105.46 5.7 M2.73 121.91 C27.93 94.8, 51.74 65.28, 105.25 4.91 M2.45 125.22 C47.25 79.75, 86.04 31.48, 109.29 5.26 M4.99 126.84 C32.38 94.14, 58.05 63.17, 110.69 3.71 M6.36 129.46 C46.3 86.66, 84.67 39.99, 118.35 4.55 M5.01 130.21 C33.23 97.59, 60.8 66.33, 117.7 3.14 M5.91 134.77 C39.29 100.79, 68.42 66.77, 120.38 3.82 M8.11 136 C53.3 82.83, 98.1 30.46, 120.81 4.56 M10.06 141.44 C34.4 109.41, 61.63 80.77, 126.36 1.51 M9.12 140.67 C47.42 95.86, 83.81 52.36, 127.14 2.85 M11.47 143.48 C57.28 90.35, 105.84 34.53, 133.22 3.14 M11.16 144.45 C54.79 93.65, 99.18 42.39, 133.56 2.33 M13.3 149.43 C53.91 99.71, 92.42 52.93, 139.19 4.54 M12.88 149.26 C47.9 106.48, 84.93 63.43, 139.49 2.07 M12.46 153.68 C54.87 107.86, 95.75 60.43, 143.81 3.22 M13.23 152.02 C57.65 100.92, 101.29 48.5, 141.42 4.22 M13.21 158.18 C67.98 96.88, 120.21 33.92, 147.19 5.18 M15.23 157.47 C63.78 100.39, 112.85 44.6, 147.56 4.94 M18.08 159.6 C57.3 111.75, 98.02 64.26, 152.82 6.11 M17.64 160.82 C49.78 124.31, 81.96 86.37, 151.51 6.41 M19.11 162.96 C50.26 130.19, 77.85 98.92, 155.97 9.88 M19.93 163.82 C48.2 132.25, 77.94 99.58, 155.01 8.05 M24.35 167.38 C69.01 115.92, 116.73 61.91, 159.41 11.42 M21.94 166.92 C66.66 116.02, 113.27 62.92, 159.56 9 M24.36 170.88 C62.64 128.86, 101.15 87.43, 162.86 10.58 M24.55 169.68 C53.23 136.5, 82.68 103.88, 162.79 11.14 M29.38 174.17 C76.8 115.26, 125.67 59.85, 167.9 12.92 M27.38 172.91 C55.95 139.44, 84.74 107.57, 167.37 11.96 M31.08 176.41 C69.07 132.88, 106.96 89.91, 170.32 15.5 M29.83 175.3 C60.35 142.37, 90.26 107.49, 171.04 13.49 M32.45 178.96 C84.29 119.8, 136.15 61.27, 175.62 14.9 M32.29 178.95 C68.79 137.48, 103.6 96.94, 175.52 15.11 M34.13 180.9 C72.73 141.51, 110.54 100.72, 181.59 17.07 M35.2 182.35 C69.33 144.83, 99.9 107.21, 179.24 16.66 M36.49 186.78 C90.62 127.11, 141.8 67.03, 182.11 18.77 M38.94 184.66 C87.63 127.32, 137.51 70.07, 183.08 18.12 M39.69 187.79 C82.38 136.11, 126.24 88.34, 184.85 19.66 M40.75 188.57 C82.96 142.35, 122.79 95.11, 186.88 21.32 M42.42 190.57 C76.25 154.68, 107.88 117.22, 188.82 23.67 M43.52 191.01 C97.73 128.28, 149.92 66.7, 188.25 23.53 M46.71 193.33 C79.83 155.79, 107.55 122.18, 193.28 25.59 M47.04 193.11 C99.68 131.63, 155.54 69.25, 192.64 26.58 M51.34 196.22 C108.4 129.44, 164.36 63.85, 196.54 28.69 M49.63 196.7 C95.19 144.65, 139.23 93.91, 195.33 29.45 M54.37 196.7 C81 163.02, 111.23 130.49, 196.61 32.86 M54.62 197.16 C106.45 139.73, 158.67 79.16, 198.87 31.95 M58.95 201.09 C89.17 164.9, 117.38 128.66, 200.4 34.88 M58.29 200.12 C106.71 143.22, 156.4 86.31, 201.95 34.2 M60.91 201.01 C94.71 167.13, 127.26 129.71, 203.58 37.35 M60.4 202.33 C92.66 165.16, 123.48 129.71, 204.71 36.91 M66.08 203.87 C114.17 143.94, 166.73 86.69, 206.75 38.56 M65.5 203.07 C112.17 146.27, 161.31 91.75, 208.07 39.08 M67.6 206.15 C103.8 164.82, 138.52 121.54, 209.06 41.44 M67.55 206.09 C123.55 141.95, 179.26 79.1, 210.35 41.79 M70.06 206.28 C100.08 173.24, 129.78 137.49, 214.12 43.43 M71.85 208.22 C126.85 145.77, 180.92 81.35, 213.49 44.12 M73.94 209.44 C129.43 147.18, 187.74 81.49, 215.91 49.65 M74.72 210.25 C110.64 169.2, 146.49 128.44, 215.6 47.7 M78.88 212.64 C127.32 158.65, 172.84 104.32, 217.09 49.96 M78.4 212.5 C113.73 172.33, 147.52 133, 217.35 52.14 M83.12 211.14 C136.66 153.44, 188.66 93.03, 220 55.57 M84.08 211.71 C120.97 170.85, 157.39 130.16, 219.6 56.59 M87.18 212.12 C139.2 156.59, 184.6 103.84, 221.75 60.4 M89.74 212.92 C128.44 166.81, 170.24 120.52, 222.32 58.85 M92.62 213.55 C129.27 175.39, 161.1 134.9, 225.02 61.62 M92.73 212.77 C142.75 155.02, 195.06 95.62, 224.36 62.07 M96.48 215.47 C136.63 172.81, 172.4 128.5, 224.39 64.75 M98.37 214.31 C124.17 180.8, 152.48 149.61, 226.5 66.54 M101.21 213.21 C142.58 169.16, 184.34 122.22, 227.73 70.16 M102.61 214.67 C135.01 176.09, 169.14 137.12, 227.91 69.45 M105.59 213.45 C132.31 186.54, 157.56 156.25, 231.8 72.03 M107.08 215.97 C139.73 176.75, 172.38 140.88, 231.18 72.58 M113.48 216.29 C158.48 164.28, 200.52 114.36, 232.55 79.15 M112.61 214.87 C146.54 176.84, 181.03 138.53, 232.47 78.56 M118.52 218.06 C158.04 170.44, 202.39 122.03, 231.84 83.07 M117.39 215.35 C141.62 188.54, 166.65 160.13, 232.7 84.16 M120.78 217.36 C149.27 186.21, 175.96 154.6, 232.79 89.44 M122.09 217.8 C149.56 185.45, 178.5 153.35, 234.27 87.65 M126.76 217.62 C158.69 177.11, 190.79 140.89, 232.57 93.08 M127.32 215.57 C149.64 189.11, 171.56 162.08, 234.38 92.91 M136.15 216.47 C165.78 181.59, 193.95 144.05, 236.95 97.51 M134.88 215.4 C171.83 171.09, 209.76 128.85, 235.03 98.99 M141.12 212.49 C176.41 174.79, 208.29 137.57, 238.41 104.55 M140.49 214.2 C173.63 173.98, 206.6 137.3, 235.65 102.73 M147.02 211.79 C177.15 178.48, 207.3 139.98, 238.83 110.37 M147 212.66 C169.86 187.47, 192.95 160.06, 237.14 108.86 M153.07 210.32 C177.55 187.26, 200.18 157.31, 236.13 117.79 M152.5 211.6 C175.49 184.46, 199.2 157.98, 235.1 117.29 M159.06 210.2 C180.82 188.23, 199.05 162.46, 233.65 125.85 M159.51 211.29 C181.02 186.72, 200.03 162.5, 234.63 124.78 M165.37 210.78 C180.19 190.33, 197.54 169.83, 230.79 134.11 M164.5 210.59 C187.98 182.04, 210.86 155.33, 231.43 134.22 M174.22 205.38 C188.27 188.59, 199.94 177.17, 227.77 145 M175.54 204.7 C188.88 189.59, 201.9 173.47, 228.03 142.99 M187.25 197 C198.05 182.25, 214.08 166.94, 225.63 151.08 M185.44 196.9 C199.48 182.32, 214.63 164.85, 226.29 151.34" stroke="#868e96" stroke-width="0.5" fill="none"></path><path d="M93.61 3.01 C106.48 -1.18, 123.14 -0.08, 137.27 1.94 C151.39 3.97, 166.16 8.44, 178.36 15.13 C190.57 21.83, 201.83 32, 210.51 42.12 C219.18 52.23, 226.16 63.51, 230.42 75.83 C234.67 88.15, 236.87 103.02, 236.05 116.04 C235.23 129.06, 231.74 141.98, 225.49 153.97 C219.25 165.96, 208.96 178.93, 198.58 187.98 C188.21 197.02, 176.25 203.51, 163.25 208.23 C150.25 212.95, 134.67 215.76, 120.57 216.29 C106.47 216.82, 91.85 215.84, 78.65 211.43 C65.45 207.01, 52.13 198.65, 41.38 189.78 C30.63 180.91, 20.92 169.7, 14.16 158.21 C7.4 146.72, 2.57 133.79, 0.79 120.86 C-0.98 107.92, -0.07 93.18, 3.5 80.57 C7.07 67.96, 13.94 55.83, 22.22 45.2 C30.5 34.57, 38.98 24.32, 53.2 16.78 C67.41 9.23, 95.88 2.41, 107.49 -0.06 C119.1 -2.53, 122.45 -0.04, 122.88 1.95 M87.03 3.32 C99.57 -1.54, 116.47 -1.42, 130.83 0.25 C145.18 1.92, 160.77 7.25, 173.14 13.35 C185.52 19.44, 195.63 27.34, 205.08 36.8 C214.54 46.26, 224.65 58.11, 229.89 70.11 C235.13 82.1, 236.76 95.66, 236.53 108.77 C236.31 121.89, 234.11 136.31, 228.55 148.78 C222.99 161.25, 212.83 174.11, 203.17 183.57 C193.5 193.03, 183.35 199.81, 170.55 205.57 C157.76 211.32, 140.54 216.92, 126.39 218.09 C112.24 219.26, 99.08 216.41, 85.65 212.57 C72.22 208.73, 57.17 202.83, 45.83 195.05 C34.48 187.27, 24.71 177.11, 17.57 165.89 C10.42 154.67, 5.47 141.09, 2.94 127.75 C0.4 114.4, -0.03 98.87, 2.36 85.82 C4.74 72.77, 9.55 60.39, 17.25 49.47 C24.95 38.54, 36.77 28.06, 48.55 20.26 C60.32 12.45, 81.14 4.94, 87.9 2.63 C94.65 0.31, 88.57 4.21, 89.09 6.37" stroke="#000000" stroke-width="1" fill="none"></path></g><g transform="translate(863.8508474777602 271.8388077495034) rotate(0 75.70992279052734 12.5)"><text x="75.70992279052734" y="0" font-family="Source Sans Pro, Virgil, Segoe UI Emoji" font-size="20px" fill="#000000" text-anchor="middle" style="white-space: pre;" direction="ltr" dominant-baseline="text-before-edge">-- wip -- commit</text></g><g transform="translate(953.14453125 217.32421875) rotate(0 29.796875 9.173828125)" stroke="none"><path fill="#087f5b" d="M 10.23,0 Q 10.23,0 10.41,2.71 10.59,5.42 10.81,7.61 11.02,9.81 10.86,11.13 10.70,12.45 10.23,13.69 9.76,14.93 9.01,16.03 8.25,17.12 7.26,18.00 6.26,18.88 5.08,19.50 3.91,20.12 2.61,20.44 1.32,20.76 -0.00,20.76 -1.33,20.76 -2.62,20.44 -3.91,20.12 -5.08,19.50 -6.26,18.88 -7.26,18.00 -8.25,17.12 -9.01,16.03 -9.76,14.93 -10.23,13.69 -10.70,12.45 -10.86,11.13 -11.02,9.81 -9.49,3.76 -7.95,-2.27 -5.61,-6.81 -3.26,-11.35 -0.69,-15.62 1.88,-19.88 6.34,-25.80 10.79,-31.71 17.48,-33.03 24.16,-34.35 28.30,-32.47 32.44,-30.60 34.70,-25.04 36.96,-19.47 37.29,-14.06 37.63,-8.65 37.63,-3.27 37.63,2.09 37.58,7.28 37.53,12.48 37.50,16.95 37.46,21.43 37.49,26.38 37.52,31.33 37.57,32.14 37.63,32.94 37.40,34.41 37.17,35.87 36.59,37.24 36.02,38.61 35.13,39.80 34.25,40.99 33.10,41.94 31.96,42.88 30.62,43.52 29.28,44.17 27.83,44.47 26.38,44.78 24.90,44.72 23.41,44.67 21.98,44.27 20.56,43.86 19.27,43.13 17.98,42.39 16.90,41.37 15.83,40.35 15.03,39.10 14.23,37.85 13.75,36.44 13.27,35.04 13.15,33.56 13.02,32.08 15.86,27.20 18.70,22.32 20.34,18.22 21.97,14.12 27.67,10.08 33.38,6.04 38.70,6.85 44.01,7.66 47.30,11.54 50.58,15.42 52.17,22.64 53.75,29.86 54.55,34.01 55.35,38.16 55.32,39.78 55.30,41.40 54.90,42.97 54.49,44.54 53.71,45.97 52.94,47.39 51.85,48.59 50.76,49.79 49.42,50.69 48.07,51.59 46.55,52.15 45.03,52.70 43.41,52.88 41.80,53.05 40.20,52.83 38.59,52.62 37.08,52.02 35.58,51.43 34.25,50.49 32.93,49.55 31.87,48.33 30.82,47.10 30.08,45.65 29.35,44.21 28.98,42.63 28.61,41.05 29.85,35.92 31.09,30.79 34.40,24.08 37.71,17.37 41.28,13.68 44.85,9.98 53.51,10.44 62.17,10.90 65.57,14.16 68.97,17.42 70.18,21.99 71.39,26.55 72.11,32.74 72.83,38.92 73.04,40.92 73.25,42.92 73.09,45.13 72.93,47.34 72.07,49.39 71.21,51.44 69.74,53.10 68.27,54.76 66.35,55.87 64.43,56.98 62.25,57.42 60.07,57.85 57.87,57.57 55.67,57.29 53.67,56.32 51.68,55.35 50.10,53.79 48.51,52.24 47.51,50.26 46.51,48.28 46.19,46.08 45.87,43.88 46.27,41.70 46.67,39.52 47.75,37.58 48.83,35.64 50.47,34.14 52.11,32.65 54.14,31.75 56.17,30.86 58.38,30.66 60.59,30.46 62.75,30.98 64.91,31.50 66.79,32.68 68.67,33.86 70.07,35.58 71.48,37.29 72.26,39.37 73.04,41.45 73.12,43.67 73.20,45.88 72.56,48.01 71.93,50.14 70.65,51.95 69.37,53.76 67.58,55.07 65.78,56.38 63.67,57.05 61.55,57.72 59.33,57.68 57.11,57.64 55.02,56.89 52.93,56.14 51.19,54.76 49.45,53.39 48.24,51.53 47.03,49.67 46.48,47.52 45.92,45.37 45.93,45.37 45.93,45.37 45.66,41.34 45.40,37.30 46.48,32.82 47.56,28.35 54.38,29.33 61.20,30.31 58.27,34.24 55.35,38.16 55.32,39.78 55.30,41.40 54.90,42.97 54.49,44.54 53.72,45.96 52.94,47.39 51.85,48.59 50.76,49.79 49.42,50.69 48.07,51.59 46.55,52.15 45.03,52.70 43.42,52.88 41.80,53.05 40.20,52.83 38.59,52.62 37.08,52.02 35.58,51.43 34.26,50.49 32.93,49.55 31.88,48.33 30.82,47.10 30.08,45.65 29.35,44.21 28.98,42.63 28.61,41.05 30.28,43.59 31.94,46.13 29.88,41.97 27.83,37.81 29.08,32.42 30.33,27.02 35.66,29.19 40.98,31.35 37.12,36.57 33.26,41.79 35.45,37.37 37.63,32.94 37.40,34.41 37.17,35.87 36.59,37.24 36.02,38.61 35.13,39.80 34.25,40.99 33.10,41.94 31.96,42.88 30.62,43.52 29.28,44.17 27.83,44.47 26.38,44.78 24.90,44.72 23.41,44.67 21.99,44.27 20.56,43.86 19.27,43.13 17.98,42.39 16.90,41.37 15.83,40.35 15.03,39.10 14.23,37.85 13.75,36.44 13.27,35.04 13.15,33.56 13.02,32.08 13.08,31.28 13.13,30.48 13.47,25.86 13.80,21.24 13.84,16.97 13.88,12.69 13.73,7.65 13.59,2.61 14.22,-6.12 14.85,-14.85 21.16,-14.91 27.47,-14.96 24.50,-11.47 21.54,-7.99 19.28,-4.26 17.02,-0.53 14.02,4.63 11.02,9.81 10.86,11.13 10.70,12.45 10.23,13.69 9.76,14.93 9.01,16.03 8.25,17.12 7.26,18.00 6.26,18.88 5.08,19.50 3.91,20.12 2.62,20.44 1.33,20.76 0.00,20.76 -1.32,20.76 -2.61,20.44 -3.91,20.12 -5.08,19.50 -6.26,18.88 -7.26,18.00 -8.25,17.12 -9.01,16.03 -9.76,14.93 -10.23,13.69 -10.70,12.45 -10.86,11.13 -11.02,9.81 -10.81,7.61 -10.59,5.42 -10.41,2.71 -10.23,0 -10.08,-1.22 -9.93,-2.44 -9.49,-3.60 -9.06,-4.75 -8.36,-5.77 -7.66,-6.78 -6.73,-7.60 -5.81,-8.42 -4.72,-8.99 -3.62,-9.56 -2.43,-9.86 -1.23,-10.15 0.00,-10.15 1.23,-10.15 2.43,-9.86 3.62,-9.56 4.72,-8.99 5.81,-8.42 6.73,-7.60 7.66,-6.78 8.36,-5.77 9.06,-4.75 9.49,-3.60 9.93,-2.44 10.08,-1.22 10.23,0.00 10.23,0.00 L 10.23,0 Z"></path></g><g transform="translate(909.9296875 225.48046875) rotate(0 -7.03515625 7.623046875)" stroke="none"><path fill="#2b8a3e" d="M 2.27,-10.45 Q 2.27,-10.45 5.90,-9.30 9.54,-8.15 13.46,-4.26 17.38,-0.37 18.76,4.63 20.14,9.64 19.75,14.96 19.36,20.28 17.23,25.47 15.09,30.66 11.61,34.82 8.13,38.97 3.51,41.73 -1.10,44.48 -6.17,45.40 -11.25,46.32 -16.66,44.44 -22.06,42.57 -25.40,37.89 -28.73,33.21 -28.02,26.98 -27.32,20.74 -23.90,16.81 -20.49,12.88 -14.32,11.17 -8.15,9.46 -6.18,9.34 -4.20,9.21 -2.61,9.29 -1.01,9.37 0.51,9.83 2.04,10.29 3.42,11.10 4.80,11.91 5.94,13.03 7.09,14.15 7.93,15.51 8.77,16.86 9.27,18.39 9.76,19.91 9.87,21.50 9.99,23.10 9.72,24.67 9.45,26.25 8.81,27.72 8.17,29.18 7.19,30.45 6.22,31.72 4.97,32.72 3.73,33.72 2.28,34.39 0.83,35.07 -0.73,35.37 -2.30,35.68 -8.74,37.10 -15.18,38.52 -21.06,37.60 -26.95,36.69 -30.93,31.92 -34.92,27.14 -34.28,21.22 -33.64,15.29 -29.84,11.56 -26.04,7.82 -19.24,6.47 -12.45,5.11 -5.21,7.57 2.02,10.03 4.46,13.94 6.91,17.85 4.93,25.09 2.95,32.33 -1.16,35.44 -5.28,38.55 -11.83,37.40 -18.39,36.25 -23.27,31.31 -28.15,26.38 -29.87,19.09 -31.59,11.80 -31.77,5.41 -31.95,-0.97 -31.37,-6.35 -30.78,-11.74 -29.37,-16.13 -27.97,-20.53 -25.15,-24.14 -22.34,-27.75 -12.62,-26.76 -2.90,-25.77 -0.08,-20.01 2.73,-14.24 2.41,-8.49 2.09,-2.74 -0.25,1.52 -2.60,5.79 -4.22,7.30 -5.83,8.82 -7.85,9.74 -9.86,10.66 -12.07,10.89 -14.27,11.12 -16.43,10.63 -18.59,10.14 -20.48,8.99 -22.38,7.84 -23.80,6.14 -25.23,4.45 -26.04,2.38 -26.85,0.32 -26.95,-1.88 -27.06,-4.09 -26.46,-6.22 -25.86,-8.36 -24.60,-10.18 -23.35,-12.01 -21.58,-13.34 -19.81,-14.67 -17.71,-15.37 -15.60,-16.06 -13.39,-16.05 -11.17,-16.04 -9.08,-15.32 -6.98,-14.60 -5.23,-13.25 -3.47,-11.90 -2.24,-10.06 -1.00,-8.23 -0.42,-6.09 0.15,-3.95 0.02,-1.74 -0.10,0.46 -0.94,2.52 -1.77,4.57 -3.21,6.25 -4.65,7.93 -6.56,9.06 -8.46,10.19 -10.63,10.66 -12.79,11.12 -14.99,10.87 -17.19,10.62 -19.20,9.68 -21.20,8.74 -22.80,7.21 -24.40,5.68 -25.43,3.71 -26.46,1.75 -26.80,-0.43 -27.15,-2.62 -26.78,-4.80 -26.41,-6.98 -25.36,-8.93 -24.31,-10.89 -24.32,-10.88 -24.32,-10.88 -22.77,-11.46 -21.23,-12.04 -12.41,-11.60 -3.58,-11.16 -4.60,-6.78 -5.61,-2.41 -6.40,4.81 -7.20,12.03 -11.10,13.96 -14.99,15.88 -14.11,24.10 -13.24,32.32 -12.12,26.10 -11.00,19.89 -12.42,15.66 -13.83,11.42 -9.02,10.32 -4.21,9.21 -2.61,9.29 -1.01,9.37 0.51,9.83 2.04,10.29 3.42,11.10 4.80,11.91 5.94,13.03 7.09,14.14 7.93,15.50 8.77,16.86 9.27,18.38 9.76,19.91 9.87,21.50 9.99,23.10 9.72,24.67 9.45,26.25 8.81,27.71 8.17,29.18 7.20,30.45 6.22,31.72 4.98,32.72 3.73,33.72 2.28,34.39 0.83,35.07 -0.73,35.37 -2.30,35.68 -4.29,33.19 -6.28,30.70 -6.15,25.45 -6.03,20.20 -2.71,15.28 0.59,10.36 -0.83,10.40 -2.27,10.45 -3.49,10.02 -4.70,9.60 -5.79,8.90 -6.87,8.19 -7.75,7.25 -8.63,6.31 -9.26,5.19 -9.89,4.06 -10.23,2.82 -10.58,1.58 -10.61,0.29 -10.65,-0.99 -10.37,-2.25 -10.10,-3.51 -9.53,-4.67 -8.96,-5.83 -8.13,-6.82 -7.31,-7.81 -6.27,-8.57 -5.22,-9.33 -4.03,-9.82 -2.84,-10.31 -1.56,-10.50 -0.29,-10.69 0.99,-10.57 2.27,-10.45 2.27,-10.45 L 2.27,-10.45 Z"></path></g><g transform="translate(959.53125 356.328125) rotate(0 5.4921875 -17.818359375)" stroke="none"><path fill="#e67700" d="M -10.41,1.76 Q -10.41,1.76 -11.11,-1.79 -11.81,-5.34 -11.07,-10.13 -10.32,-14.93 -5.14,-20.86 0.03,-26.79 4.30,-27.67 8.57,-28.54 13.16,-27.04 17.74,-25.55 20.62,-22.02 23.50,-18.50 24.99,-12.26 26.48,-6.01 24.64,-1.16 22.81,3.69 18.21,6.69 13.62,9.69 7.67,9.10 1.72,8.51 -3.03,4.40 -7.78,0.28 -9.84,-5.63 -11.90,-11.55 -12.10,-17.04 -12.30,-22.53 -10.66,-27.71 -9.03,-32.89 -5.84,-36.62 -2.65,-40.35 2.45,-42.03 7.57,-43.71 13.05,-41.97 18.52,-40.23 21.39,-35.81 24.26,-31.39 24.30,-26.69 24.34,-21.98 22.32,-17.40 20.29,-12.82 17.05,-9.71 13.81,-6.60 9.15,-4.94 4.49,-3.28 -2.18,-5.68 -8.87,-8.08 -11.78,-13.11 -14.70,-18.14 -14.12,-23.78 -13.55,-29.41 -10.85,-34.22 -8.14,-39.03 -4.65,-42.02 -1.16,-45.01 4.74,-46.06 10.64,-47.11 16.45,-44.81 22.26,-42.52 23.84,-40.89 25.41,-39.26 26.39,-37.22 27.36,-35.18 27.63,-32.93 27.90,-30.68 27.44,-28.46 26.97,-26.25 25.83,-24.29 24.68,-22.34 22.97,-20.86 21.26,-19.37 19.17,-18.51 17.08,-17.65 14.82,-17.50 12.56,-17.36 10.37,-17.94 8.18,-18.52 6.29,-19.77 4.40,-21.02 3.01,-22.81 1.63,-24.59 0.88,-26.73 0.13,-28.87 0.11,-31.13 0.08,-33.40 0.78,-35.55 1.48,-37.70 2.83,-39.52 4.18,-41.34 6.04,-42.63 7.90,-43.92 10.08,-44.55 12.25,-45.18 14.51,-45.08 16.78,-44.98 18.89,-44.17 21.00,-43.35 22.74,-41.91 24.48,-40.46 25.67,-38.53 26.86,-36.60 27.37,-34.40 27.88,-32.19 27.66,-29.94 27.44,-27.69 26.51,-25.62 25.58,-23.56 24.04,-21.90 22.51,-20.24 20.52,-19.15 18.53,-18.07 16.30,-17.68 14.07,-17.29 11.83,-17.63 9.59,-17.97 7.58,-19.01 5.57,-20.05 5.57,-20.05 5.57,-20.05 6.96,-22.80 8.34,-25.56 2.75,-26.87 -2.82,-28.19 -0.18,-24.65 2.45,-21.11 7.81,-19.61 13.17,-18.11 11.36,-13.07 9.55,-8.03 9.98,-4.89 10.41,-1.76 10.46,-0.48 10.52,0.78 10.28,2.02 10.03,3.27 9.49,4.43 8.96,5.58 8.16,6.57 7.36,7.56 6.35,8.33 5.33,9.10 4.17,9.61 3.00,10.12 1.74,10.33 0.49,10.54 -0.77,10.45 -2.04,10.35 -3.25,9.96 -4.46,9.56 -5.54,8.89 -6.62,8.22 -7.51,7.30 -8.39,6.39 -9.04,5.29 -9.68,4.20 -10.04,2.98 -10.41,1.76 -10.41,1.76 L -10.41,1.76 Z"></path></g><g stroke-linecap="round"><g transform="translate(970.140625 185.42578125) rotate(0 -379.0110333912354 -26.28145104586241)"><path d="M0.84 0.42 C-23.32 -5.98, -101.93 -30.94, -144.44 -38.97 C-186.94 -47.01, -165.83 -45.62, -254.2 -47.8 C-342.57 -49.98, -590.79 -60.44, -674.64 -52.06 C-758.49 -43.67, -743.58 -6.78, -757.3 2.52 M-0.17 -0.4 C-24.54 -7.06, -102.86 -32.78, -145.36 -40.54 C-187.85 -48.3, -166.86 -45.14, -255.13 -46.97 C-343.41 -48.8, -591.04 -59.8, -675 -51.52 C-758.95 -43.25, -745.45 -6.41, -758.87 2.7" stroke="#087f5b" stroke-width="4" fill="none"></path></g><g transform="translate(970.140625 185.42578125) rotate(0 -379.0110333912354 -26.28145104586241)"><path d="M-752.97 -26.76 C-753.85 -17.1, -758.95 -8.22, -760.68 2.4 M-753.22 -26.54 C-755.38 -18.75, -757.24 -11.73, -758.12 1.8" stroke="#087f5b" stroke-width="4" fill="none"></path></g><g transform="translate(970.140625 185.42578125) rotate(0 -379.0110333912354 -26.28145104586241)"><path d="M-735.19 -16.51 C-742.2 -10.28, -753.46 -4.96, -760.68 2.4 M-735.44 -16.29 C-742.36 -11.12, -748.97 -6.84, -758.12 1.8" stroke="#087f5b" stroke-width="4" fill="none"></path></g></g><mask></mask><g stroke-linecap="round"><g transform="translate(878.24609375 204.71484375) rotate(0 -209.1832934145205 -23.572644317045444)"><path d="M-0.65 0.89 C-0.63 0.82, 33.03 8.5, -0.98 -0.22 C-34.98 -8.93, -132.38 -47.11, -204.66 -51.42 C-276.94 -55.72, -396.58 -30.41, -434.65 -26.05 M1.21 0.31 C1.7 0.41, 35.61 9.65, 1.22 1.21 C-33.16 -7.24, -132.4 -45.95, -205.1 -50.37 C-277.8 -54.78, -396.78 -29.55, -434.98 -25.28" stroke="#2b8a3e" stroke-width="4" fill="none"></path></g><g transform="translate(878.24609375 204.71484375) rotate(0 -209.1832934145205 -23.572644317045444)"><path d="M-407.2 -41.35 C-414.51 -35.8, -420.48 -35.65, -436.06 -24.49 M-407.78 -40.39 C-417.63 -36.09, -426.1 -29.91, -434.96 -25.61" stroke="#2b8a3e" stroke-width="4" fill="none"></path></g><g transform="translate(878.24609375 204.71484375) rotate(0 -209.1832934145205 -23.572644317045444)"><path d="M-404.07 -21.07 C-412.07 -19.77, -418.69 -23.86, -436.06 -24.49 M-404.66 -20.11 C-415.35 -22.12, -424.79 -22.26, -434.96 -25.61" stroke="#2b8a3e" stroke-width="4" fill="none"></path></g></g><mask></mask><g stroke-linecap="round"><g transform="translate(946.68359375 344.2109375) rotate(0 -82.64143052044608 1.2010911042911232)"><path d="M1.09 -0.87 C0.89 -1.04, 29.22 -0.95, -0.77 -0.25 C-30.76 0.46, -149.13 3.06, -178.87 3.35 M0.2 1.28 C0.35 1.23, 31.55 1.15, 1.54 1.16 C-28.47 1.17, -149.7 1.24, -179.85 1.37" stroke="#e67700" stroke-width="4" fill="none"></path></g><g transform="translate(946.68359375 344.2109375) rotate(0 -82.64143052044608 1.2010911042911232)"><path d="M-153.14 -10.23 C-161.51 -5.91, -169.43 -3.04, -181.84 1.64 M-151.1 -9.57 C-159.49 -6.22, -164.96 -3.42, -179.75 1.35" stroke="#e67700" stroke-width="4" fill="none"></path></g><g transform="translate(946.68359375 344.2109375) rotate(0 -82.64143052044608 1.2010911042911232)"><path d="M-153.1 10.29 C-161.61 7.71, -169.55 3.66, -181.84 1.64 M-151.05 10.95 C-159.33 9.31, -164.81 7.11, -179.75 1.35" stroke="#e67700" stroke-width="4" fill="none"></path></g></g><mask></mask><g transform="translate(952.52734375 337.4296875) rotate(0 18.09375 3.951171875)" stroke="none"><path fill="#e67700" d="M -4.14,-9.79 Q -4.14,-9.79 0.73,-10.76 5.61,-11.74 10.37,-9.70 15.12,-7.67 17.36,-2.74 19.60,2.18 19.35,7.12 19.10,12.06 17.40,16.94 15.70,21.82 13.34,25.79 10.98,29.77 5.08,34.93 -0.81,40.09 -9.80,39.33 -18.79,38.58 -21.46,34.80 -24.12,31.03 -22.87,23.55 -21.62,16.07 -17.34,12.57 -13.07,9.07 -4.55,11.40 3.95,13.73 5.77,17.86 7.58,21.99 5.38,28.67 3.17,35.36 -3.19,37.70 -9.55,40.05 -14.56,38.46 -19.57,36.87 -22.37,31.99 -25.16,27.10 -25.07,19.24 -24.98,11.37 -22.84,7.20 -20.69,3.03 -17.39,0.33 -14.09,-2.35 -5.76,-2.18 2.55,-2.01 5.91,1.15 9.27,4.32 10.25,9.99 11.23,15.66 9.66,19.64 8.10,23.62 -2.00,25.44 -12.11,27.25 -15.87,24.63 -19.64,22.01 -20.89,17.42 -22.14,12.82 -21.99,6.82 -21.84,0.83 -17.58,-5.71 -13.31,-12.26 -5.54,-12.05 2.22,-11.83 5.87,-9.63 9.53,-7.42 10.91,-3.07 12.29,1.26 10.92,9.11 9.55,16.96 6.00,21.23 2.45,25.49 -2.24,27.85 -6.94,30.21 -12.91,30.35 -18.88,30.49 -24.66,27.28 -30.45,24.07 -33.60,18.75 -36.76,13.42 -37.81,8.53 -38.86,3.63 -38.68,-1.06 -38.51,-5.77 -36.64,-10.34 -34.77,-14.92 -31.52,-18.03 -28.28,-21.14 -23.43,-22.18 -18.58,-23.23 -13.14,-21.42 -7.70,-19.61 -4.57,-14.92 -1.45,-10.23 -0.65,-5.94 0.13,-1.65 -0.95,6.79 -2.03,15.24 -4.17,18.97 -6.30,22.71 -13.85,25.47 -21.41,28.24 -26.67,26.26 -31.93,24.27 -34.70,18.49 -37.48,12.70 -37.76,8.11 -38.05,3.51 -37.01,-4.32 -35.96,-12.17 -32.19,-16.55 -28.42,-20.92 -19.74,-19.99 -11.07,-19.07 -7.24,-11.56 -3.41,-4.06 -3.52,3.61 -3.63,11.30 -5.58,16.01 -7.54,20.72 -11.83,24.35 -16.11,27.99 -23.58,27.91 -31.06,27.83 -36.09,23.84 -41.13,19.85 -42.63,12.57 -44.13,5.29 -42.99,-1.38 -41.85,-8.06 -38.89,-13.89 -35.94,-19.73 -32.17,-23.80 -28.40,-27.88 -24.74,-30.28 -21.07,-32.67 -16.27,-33.63 -11.46,-34.59 -6.08,-32.70 -0.70,-30.80 2.41,-26.40 5.52,-22.00 6.64,-15.11 7.77,-8.21 7.58,-3.58 7.39,1.04 6.94,2.64 6.49,4.24 5.82,5.77 5.15,7.31 4.14,8.64 3.13,9.97 1.82,11.02 0.52,12.07 -0.99,12.78 -2.50,13.49 -4.15,13.81 -5.79,14.14 -7.46,14.06 -9.13,13.98 -10.74,13.50 -12.34,13.03 -13.79,12.18 -15.23,11.33 -16.43,10.17 -17.63,9.00 -18.52,7.58 -19.40,6.16 -19.92,4.57 -20.44,2.98 -20.57,1.31 -20.69,-0.35 -20.41,-2.00 -20.13,-3.65 -15.88,-11.74 -11.64,-19.83 -7.09,-22.60 -2.54,-25.38 1.56,-26.57 5.67,-27.77 13.41,-26.91 21.15,-26.04 24.56,-23.39 27.96,-20.73 30.32,-13.79 32.68,-6.86 31.07,-1.86 29.47,3.13 25.83,6.03 22.19,8.94 11.26,1.24 0.34,-6.45 4.54,-13.57 8.73,-20.69 13.09,-22.83 17.44,-24.97 21.68,-26.15 25.91,-27.32 33.22,-27.39 40.53,-27.46 45.03,-24.77 49.53,-22.08 51.54,-17.91 53.56,-13.74 51.80,-6.10 50.05,1.53 35.85,-0.77 21.66,-3.07 22.62,-9.57 23.58,-16.07 27.15,-20.33 30.73,-24.59 35.87,-27.19 41.02,-29.78 46.20,-30.71 51.38,-31.63 57.05,-30.59 62.72,-29.55 67.34,-26.33 71.96,-23.11 75.92,-16.51 79.87,-9.91 78.99,-3.59 78.10,2.72 74.19,6.97 70.28,11.22 64.48,11.90 58.69,12.58 53.57,10.10 48.45,7.63 45.44,3.44 42.43,-0.74 43.13,-10.26 43.83,-19.78 47.61,-23.19 51.39,-26.61 56.21,-26.86 61.03,-27.12 65.84,-24.64 70.65,-22.15 72.87,-17.23 75.09,-12.31 74.34,-7.08 73.59,-1.85 70.86,2.10 68.13,6.06 62.82,9.77 57.51,13.49 49.27,11.32 41.03,9.15 38.05,6.08 35.08,3.01 34.67,-1.46 34.26,-5.94 35.90,-10.80 37.54,-15.66 41.16,-19.34 44.79,-23.02 49.06,-24.52 53.33,-26.02 59.19,-24.81 65.05,-23.59 69.03,-19.61 73.00,-15.63 74.10,-10.88 75.19,-6.14 73.79,-0.59 72.38,4.96 68.45,9.06 64.52,13.16 60.58,14.96 56.63,16.76 48.77,16.75 40.91,16.74 36.65,7.98 32.39,-0.77 37.22,-7.15 42.05,-13.52 46.36,-14.87 50.68,-16.22 50.89,-16.14 51.10,-16.06 52.87,-16.29 54.64,-16.52 56.42,-16.32 58.19,-16.12 59.87,-15.49 61.54,-14.87 63.02,-13.87 64.50,-12.86 65.69,-11.54 66.89,-10.21 67.73,-8.63 68.57,-7.06 69.01,-5.32 69.45,-3.59 69.46,-1.80 69.48,-0.02 69.06,1.71 68.65,3.45 67.83,5.04 67.01,6.62 65.84,7.97 64.66,9.32 63.20,10.34 61.73,11.37 60.07,12.01 58.40,12.66 62.38,10.20 66.35,7.74 63.10,10.99 59.86,14.25 54.23,18.01 48.60,21.77 41.59,23.39 34.59,25.02 29.41,22.68 24.22,20.34 21.98,15.62 19.74,10.90 23.31,2.68 26.89,-5.52 37.86,-3.65 48.84,-1.77 51.08,4.89 53.31,11.57 52.10,20.05 50.88,28.53 47.69,33.13 44.49,37.74 38.30,40.23 32.11,42.72 25.65,41.04 19.19,39.36 15.28,34.31 11.38,29.27 10.22,24.48 9.06,19.69 9.23,15.15 9.40,10.61 11.76,5.81 14.11,1.00 21.35,-1.26 28.59,-3.54 33.48,-1.86 38.37,-0.19 40.99,4.33 43.61,8.86 42.75,17.52 41.89,26.17 38.78,30.07 35.67,33.97 28.01,37.04 20.35,40.12 14.08,37.21 7.80,34.29 5.41,29.35 3.02,24.41 4.22,19.45 5.42,14.49 8.54,11.02 11.66,7.56 16.78,6.42 21.90,5.29 27.31,7.36 32.72,9.44 35.36,14.66 38.01,19.89 36.84,25.65 35.68,31.42 31.63,35.58 27.58,39.73 23.16,41.51 18.73,43.29 14.01,43.70 9.29,44.12 3.31,41.63 -2.66,39.13 -6.16,33.51 -9.65,27.89 -8.45,20.92 -7.24,13.96 -2.73,9.50 1.77,5.04 6.70,3.76 11.63,2.48 16.74,3.25 21.85,4.01 27.06,7.79 32.27,11.56 33.68,13.45 35.09,15.35 35.82,17.60 36.56,19.84 36.53,22.20 36.51,24.57 35.74,26.80 34.96,29.03 33.51,30.90 32.06,32.77 30.09,34.07 28.12,35.38 25.84,35.99 23.56,36.60 21.20,36.45 18.84,36.30 16.65,35.40 14.47,34.51 12.68,32.96 10.90,31.41 9.70,29.38 8.50,27.34 8.01,25.03 7.53,22.71 7.81,20.37 8.08,18.02 9.10,15.88 10.11,13.75 11.75,12.05 13.39,10.35 15.49,9.26 17.59,8.18 19.93,7.82 22.26,7.46 24.59,7.86 26.92,8.27 29.00,9.40 31.07,10.52 32.68,12.26 34.29,13.99 35.26,16.14 36.23,18.30 36.47,20.65 36.70,23.00 36.17,25.30 35.64,27.61 34.40,29.62 33.16,31.63 31.34,33.14 29.53,34.66 27.32,35.51 25.12,36.36 22.76,36.47 20.40,36.57 18.13,35.92 15.85,35.26 13.91,33.92 11.97,32.57 11.97,32.57 11.97,32.57 14.57,29.40 17.17,26.23 13.45,22.49 9.73,18.75 11.71,24.33 13.69,29.92 17.86,31.21 22.03,32.50 26.68,29.83 31.33,27.16 29.49,22.20 27.66,17.24 21.79,17.38 15.92,17.51 20.81,19.41 25.71,21.31 29.99,18.57 34.28,15.84 28.82,18.05 23.36,20.27 24.64,15.44 25.91,10.61 35.55,12.71 45.20,14.81 45.11,9.09 45.02,3.36 38.83,0.32 32.65,-2.70 36.89,-5.20 41.13,-7.70 46.11,-11.88 51.10,-16.06 52.87,-16.29 54.64,-16.52 56.41,-16.32 58.19,-16.12 59.87,-15.49 61.54,-14.87 63.02,-13.87 64.50,-12.87 65.69,-11.54 66.89,-10.21 67.73,-8.63 68.57,-7.06 69.01,-5.32 69.45,-3.59 69.46,-1.81 69.48,-0.02 69.06,1.71 68.65,3.45 67.83,5.03 67.01,6.62 65.84,7.97 64.66,9.32 63.20,10.34 61.74,11.37 60.07,12.01 58.40,12.66 57.28,9.60 56.15,6.55 51.25,-0.57 46.34,-7.70 49.19,-3.29 52.04,1.12 56.86,1.01 61.69,0.91 60.06,-3.69 58.43,-8.29 52.34,-9.96 46.25,-11.63 48.16,-7.22 50.07,-2.80 56.60,-1.55 63.13,-0.29 65.63,-6.94 68.12,-13.58 62.96,-13.64 57.79,-13.70 53.91,-10.62 50.04,-7.53 39.37,-12.32 28.70,-17.11 27.25,-12.24 25.81,-7.38 31.19,-3.85 36.58,-0.32 30.86,-0.94 25.14,-1.55 17.36,-9.12 9.57,-16.68 7.62,-11.60 5.66,-6.53 6.07,-1.14 6.49,4.23 5.82,5.77 5.16,7.31 4.14,8.64 3.13,9.97 1.82,11.02 0.52,12.07 -0.99,12.78 -2.50,13.49 -4.15,13.81 -5.79,14.14 -7.46,14.06 -9.13,13.98 -10.74,13.50 -12.34,13.03 -13.79,12.18 -15.23,11.33 -16.43,10.17 -17.63,9.00 -18.52,7.58 -19.40,6.16 -19.92,4.57 -20.44,2.98 -20.57,1.31 -20.69,-0.35 -20.41,-2.00 -20.13,-3.65 -19.83,-7.59 -19.54,-11.52 -13.80,-10.51 -8.05,-9.49 -11.67,-6.17 -15.28,-2.85 -18.72,0.63 -22.17,4.13 -26.83,6.20 -31.49,8.27 -29.71,3.01 -27.92,-2.25 -18.73,-2.73 -9.54,-3.22 -11.18,1.19 -12.82,5.61 -18.86,3.86 -24.91,2.10 -17.89,0.42 -10.87,-1.26 -13.96,2.33 -17.05,5.93 -13.16,7.89 -9.27,9.85 -4.89,7.77 -0.50,5.69 -5.91,4.74 -11.32,3.80 -13.90,8.42 -16.48,13.04 -13.34,17.27 -10.19,21.50 -4.43,20.80 1.33,20.10 -3.84,18.43 -9.02,16.76 -13.67,18.05 -18.32,19.34 -16.94,23.94 -15.57,28.54 -8.34,30.28 -1.12,32.01 -0.60,27.66 -0.08,23.31 -4.55,20.01 -9.01,16.72 -6.51,12.83 -4.01,8.95 0.23,8.21 4.47,7.46 4.31,8.63 4.14,9.79 2.91,10.15 1.68,10.50 0.40,10.55 -0.88,10.60 -2.13,10.34 -3.39,10.08 -4.54,9.53 -5.70,8.98 -6.69,8.16 -7.69,7.35 -8.45,6.32 -9.22,5.29 -9.72,4.11 -10.22,2.93 -10.43,1.67 -10.63,0.40 -10.52,-0.87 -10.42,-2.15 -10.01,-3.36 -9.60,-4.58 -8.91,-5.66 -8.22,-6.74 -7.29,-7.63 -6.37,-8.52 -5.26,-9.16 -4.14,-9.79 -4.14,-9.79 L -4.14,-9.79 Z"></path></g><g transform="translate(314.22265625 10) rotate(0 213.35394287109375 22.5)"><text x="0" y="0" font-family="Source Sans Pro, Virgil, Segoe UI Emoji" font-size="36px" fill="#000000" text-anchor="start" style="white-space: pre;" direction="ltr" dominant-baseline="text-before-edge">Take Control of History</text></g><g transform="translate(239.24609375 77.99609375) rotate(0 295.1297607421875 12.5)"><text x="0" y="0" font-family="Source Sans Pro, Virgil, Segoe UI Emoji" font-size="20px" fill="#000000" text-anchor="start" style="white-space: pre;" direction="ltr" dominant-baseline="text-before-edge">Visual of what happens during the "interactive rebase" step</text></g></svg>