<svg version="1.1" xmlns="http://www.w3.org/2000/svg" viewBox="0 0 784.59375 357.912109375" width="1569.1875" height="715.82421875">
  <!-- svg-source:excalidraw -->
  
  <defs>
    <style class="style-fonts">
      @font-face {
        font-family: "Source Sans Pro, Virgil";
        src: url("https://excalidraw.com/Source Sans Pro, Virgil.woff2");
      }
      @font-face {
        font-family: "Cascadia";
        src: url("https://excalidraw.com/Cascadia.woff2");
      }
    </style>
    
  </defs>
  <rect x="0" y="0" width="784.59375" height="357.912109375" fill="#fffdf7"></rect><g transform="translate(38.3828125 318.0546875) rotate(0 55.88995361328125 12.5)"><text x="0" y="0" font-family="Source Sans Pro, Virgil, Segoe UI Emoji" font-size="20px" fill="#1e1e1e" text-anchor="start" style="white-space: pre;" direction="ltr" dominant-baseline="text-before-edge">your branch</text></g><g stroke-linecap="round"><g transform="translate(168.91796875 331.87109375) rotate(0 273.66347232741305 1.4006939409486847)"><path d="M1 1.13 C92.19 1.19, 456.2 0.84, 547.25 0.95 M0.07 0.68 C91.04 0.82, 454.99 1.72, 546.02 2.13" stroke="#1e1e1e" stroke-width="1" fill="none"></path></g></g><mask></mask><g stroke-linecap="round" transform="translate(169.9375 318.5703125) rotate(0 14.029296875 14.029296875)"><path d="M4.02 6.14 C4.02 6.14, 4.02 6.14, 4.02 6.14 M4.02 6.14 C4.02 6.14, 4.02 6.14, 4.02 6.14 M0.29 17.09 C2.87 13.04, 8.73 8.53, 13.98 0.29 M1.16 15.47 C4.3 12.66, 8.5 7.82, 12.71 2.43 M0.29 21.95 C7.48 14.2, 10.65 6.33, 15.83 1.26 M2.21 21.32 C8.94 12.99, 13.46 7.24, 16.46 2.14 M2.49 22.88 C10.28 18.27, 15.39 9.86, 21.73 4.05 M4.01 25.38 C8.83 17.77, 14.79 12.75, 21.39 3.94 M8.74 25.86 C11.56 18.97, 18.82 11.68, 23.96 7.15 M7.84 27.45 C11.56 21.37, 15.85 17.25, 25.03 6.01 M13.25 28.59 C13.56 22.66, 17.03 19.53, 28.35 9.57 M11.08 26.98 C17.3 22.49, 19.95 18.2, 27.72 8.9 M15.76 29.87 C19.32 25.23, 24.56 21.05, 29.18 16.27 M15.1 29.42 C19.14 26.15, 23.04 21.75, 28.81 15.26" stroke="#b2f2bb" stroke-width="0.5" fill="none"></path><path d="M19.82 1.35 C22.6 2.31, 26.26 4.95, 27.45 7.82 C28.63 10.68, 27.86 15.72, 26.92 18.56 C25.97 21.4, 24.07 23.31, 21.79 24.86 C19.51 26.41, 16.32 27.96, 13.23 27.83 C10.14 27.71, 5.42 26.2, 3.27 24.09 C1.11 21.98, 0.22 18.09, 0.29 15.16 C0.36 12.23, 1.97 8.94, 3.69 6.51 C5.41 4.08, 7.09 1.08, 10.6 0.58 C14.11 0.07, 22.07 2.13, 24.75 3.5 C27.44 4.86, 26.89 8.38, 26.7 8.76 M16.42 -0.04 C19.21 0.13, 23.13 2.27, 25.16 4.55 C27.2 6.83, 28.71 10.69, 28.63 13.64 C28.54 16.6, 26.93 20.01, 24.65 22.27 C22.37 24.53, 18.09 26.46, 14.95 27.19 C11.8 27.92, 8.26 28.23, 5.79 26.64 C3.32 25.05, 1.09 20.68, 0.12 17.64 C-0.85 14.6, -1.36 11.18, -0.05 8.41 C1.27 5.63, 5.13 2.56, 8 0.99 C10.87 -0.59, 15.9 -0.95, 17.18 -1.03 C18.46 -1.12, 15.67 0.22, 15.68 0.48" stroke="#1e1e1e" stroke-width="1" fill="none"></path></g><g stroke-linecap="round" transform="translate(222.029296875 317.927734375) rotate(0 14.029296875 14.029296875)"><path d="M0.91 7.41 C0.91 7.41, 0.91 7.41, 0.91 7.41 M0.91 7.41 C0.91 7.41, 0.91 7.41, 0.91 7.41 M0.74 12.51 C4.36 10.14, 5.64 9.02, 11.17 3.26 M0.96 14.06 C4.47 10.57, 7.62 6.02, 10.67 1.6 M3.88 19.12 C5.93 14.82, 10.26 9.02, 17.41 -0.37 M3.81 16.86 C6.96 11.79, 12.66 5.72, 15.85 0.78 M4.51 19.59 C9.66 15.97, 14.44 8.32, 21.86 2.73 M5.21 21.05 C9.03 15.6, 14.93 10.36, 20.56 3 M6.33 23.76 C11.13 16.8, 18.8 12.43, 22.39 6.47 M7.23 26.16 C10.56 20.22, 15.03 15.27, 24.41 4.57 M10.38 26.93 C14.96 21.83, 20.1 14.12, 26.45 8.32 M9.84 27.35 C15.81 20.59, 20.4 13.59, 27.52 7.6 M14.54 29.89 C16.35 24.73, 21.29 20.45, 29.13 11.33 M13.91 29.87 C18.46 25.23, 22.34 20.04, 28.97 12.66 M18.01 32.34 C22.91 27.39, 26.19 22.7, 29.1 18.05 M18.17 31.57 C20.96 27.54, 23.69 23.81, 30.07 16.85" stroke="#b2f2bb" stroke-width="0.5" fill="none"></path><path d="M18.2 0.01 C20.79 0.76, 23.89 3.55, 25.65 6.44 C27.41 9.32, 29.17 14.23, 28.77 17.33 C28.37 20.44, 25.62 23.12, 23.24 25.05 C20.87 26.97, 17.68 29.07, 14.52 28.87 C11.36 28.66, 6.54 26.09, 4.27 23.82 C2 21.56, 1.42 18.06, 0.9 15.28 C0.38 12.5, -0.31 9.7, 1.13 7.16 C2.56 4.62, 6.55 1.19, 9.53 0.05 C12.51 -1.08, 17.25 0, 19.01 0.35 C20.77 0.7, 20.18 1.81, 20.1 2.15 M11.31 0.39 C14.07 0.04, 19.24 1.92, 21.74 3.39 C24.24 4.86, 25.51 6.28, 26.31 9.19 C27.11 12.1, 27.71 17.83, 26.53 20.83 C25.35 23.83, 21.74 25.93, 19.23 27.2 C16.71 28.48, 14.24 29.11, 11.44 28.48 C8.64 27.86, 4.4 26.19, 2.42 23.47 C0.45 20.75, -0.53 15.33, -0.43 12.15 C-0.33 8.96, 1.12 6.53, 3.04 4.37 C4.96 2.2, 9.43 -0.09, 11.09 -0.87 C12.76 -1.65, 12.61 -0.54, 13.02 -0.32" stroke="#1e1e1e" stroke-width="1" fill="none"></path></g><g stroke-linecap="round" transform="translate(273.216796875 317.955078125) rotate(0 14.029296875 14.029296875)"><path d="M2.54 7.51 C2.54 7.51, 2.54 7.51, 2.54 7.51 M2.54 7.51 C2.54 7.51, 2.54 7.51, 2.54 7.51 M1.05 16.64 C2.12 13.72, 4.92 10.51, 11.71 3 M0.28 15.87 C3.34 13.27, 6.46 9.58, 11.25 3.36 M1.27 20.29 C7.06 13.5, 12.47 8.48, 17.88 3.64 M2.47 20.01 C5.67 15.17, 10.05 10.36, 17.25 3.63 M4.26 25.22 C10.98 17.25, 16.2 9.8, 22.72 4.73 M5.23 23.6 C10.96 15.69, 16.56 8.24, 22.9 3.87 M6.24 27.37 C13.01 18.3, 22.15 11.44, 24.35 7.12 M7.75 25.06 C13.91 19.65, 19.8 12.37, 25.82 6.76 M11.33 26.97 C13.89 23.78, 18.34 20.39, 26.27 8.64 M12.55 27.65 C17.7 19.44, 24.08 13.56, 27.56 8.51 M16.93 29.38 C19.03 27.19, 22.39 21.4, 29.54 15.58 M15.17 29.21 C19.13 24.35, 22.96 20.58, 29.19 14.57" stroke="#b2f2bb" stroke-width="0.5" fill="none"></path><path d="M10.05 1.54 C12.72 0.53, 17 0.29, 19.72 1.39 C22.43 2.5, 24.96 5.38, 26.34 8.16 C27.72 10.93, 28.54 15.08, 27.98 18.04 C27.42 21, 25.52 24.35, 22.99 25.92 C20.45 27.49, 15.91 27.81, 12.78 27.45 C9.65 27.08, 6.32 25.65, 4.21 23.72 C2.09 21.79, 0.32 18.63, 0.08 15.89 C-0.16 13.14, 0.81 9.75, 2.76 7.26 C4.72 4.77, 9.88 2.14, 11.81 0.96 C13.74 -0.22, 14.2 0.24, 14.33 0.19 M18.78 -0.04 C21.52 0.67, 22.47 3.62, 23.98 6.06 C25.48 8.49, 28.04 11.71, 27.81 14.54 C27.58 17.38, 24.7 20.57, 22.61 23.04 C20.51 25.52, 17.89 29.01, 15.24 29.41 C12.6 29.8, 9.39 27.32, 6.72 25.42 C4.04 23.51, 0.08 20.81, -0.8 17.97 C-1.67 15.13, 0.23 11.05, 1.48 8.38 C2.72 5.7, 3.93 3.22, 6.65 1.91 C9.36 0.59, 16 0.59, 17.79 0.51 C19.58 0.43, 17.36 1.29, 17.39 1.44" stroke="#1e1e1e" stroke-width="1" fill="none"></path></g><g stroke-linecap="round" transform="translate(322.962890625 317.955078125) rotate(0 14.029296875 14.029296875)"><path d="M2.05 5.76 C2.05 5.76, 2.05 5.76, 2.05 5.76 M2.05 5.76 C2.05 5.76, 2.05 5.76, 2.05 5.76 M-0.61 12.76 C1.79 11.33, 6.11 6.09, 12.2 0.18 M-0.32 14.54 C3.59 10.29, 7.2 5.08, 11.77 0.02 M2.57 19.7 C5.42 15.26, 9.8 10.2, 13.44 4.78 M2.25 18.62 C6.61 13.38, 10.43 7.87, 14.15 2.78 M3.11 23.08 C8.45 16.16, 15.35 6.95, 22.4 2.74 M3.04 21.48 C7.92 16.22, 12.48 12.39, 20.72 2.62 M5.41 25.29 C12.24 17.43, 17.64 10.89, 23.23 6.25 M6.74 24.81 C11.39 20.47, 14.59 14.51, 23.86 5.41 M11.12 29.08 C16.87 21.29, 20.93 17.07, 27.29 7.56 M9.61 26.85 C15.53 20.23, 21.57 12.88, 26.77 7.67 M13.21 31.02 C20.91 20.78, 26.5 13.47, 28.78 8.28 M14.02 29.02 C19.27 21.46, 26.47 14.49, 30.5 9.96 M18.76 28.89 C22.22 24.73, 27.48 20.83, 29.62 17.46 M18.73 29.22 C22.26 26.18, 24.38 22.84, 27.98 17.82" stroke="#b2f2bb" stroke-width="0.5" fill="none"></path><path d="M20.71 1.51 C23.42 2.4, 26.12 5.17, 27.32 7.84 C28.52 10.51, 28.97 14.41, 27.91 17.55 C26.86 20.69, 23.67 25.12, 20.99 26.68 C18.31 28.24, 14.7 27.49, 11.83 26.94 C8.96 26.38, 5.8 25.56, 3.76 23.35 C1.72 21.14, -0.17 16.66, -0.4 13.67 C-0.64 10.68, 0.3 7.55, 2.36 5.4 C4.42 3.25, 8.56 1.28, 11.97 0.77 C15.38 0.26, 20.68 1.53, 22.83 2.32 C24.98 3.11, 25 5.36, 24.89 5.53 M16.49 0.95 C19.42 1.22, 23.85 2.49, 25.61 4.72 C27.37 6.95, 27.13 11.08, 27.04 14.3 C26.94 17.52, 26.96 21.62, 25.04 24.02 C23.11 26.42, 18.4 28.3, 15.49 28.69 C12.57 29.08, 9.99 28.03, 7.54 26.35 C5.09 24.67, 2.1 21.66, 0.78 18.62 C-0.54 15.57, -1.23 10.85, -0.38 8.08 C0.48 5.31, 2.94 3.52, 5.89 1.99 C8.85 0.47, 15.38 -0.73, 17.33 -1.07 C19.28 -1.41, 17.88 -0.48, 17.6 -0.07" stroke="#1e1e1e" stroke-width="1" fill="none"></path></g><g stroke-linecap="round" transform="translate(377.021484375 319.853515625) rotate(0 14.029296875 14.029296875)"><path d="M1.08 8.89 C1.08 8.89, 1.08 8.89, 1.08 8.89 M1.08 8.89 C1.08 8.89, 1.08 8.89, 1.08 8.89 M0.49 15.52 C2.17 12.39, 7.29 10.08, 11.44 4.83 M1.28 14.84 C4.12 12.19, 7.05 9.09, 11.21 4.02 M1.32 18.42 C7.49 13.73, 16.28 6.23, 18.15 1.71 M2.56 20.15 C6 15.21, 9.81 12.11, 18.08 0.1 M6.5 22.35 C10.21 18.96, 15.82 10.89, 21.11 3.16 M5.16 22.44 C10.37 16.84, 14.15 12.93, 22.44 2.68 M5.54 25.98 C14.93 18.6, 19.15 9.8, 26.16 7.7 M8.21 26.34 C13.92 18.99, 21.27 10.75, 24.65 5.47 M10.49 26.88 C16.37 23.43, 21.4 15.72, 27.6 10.39 M10.65 26.69 C16.82 21.14, 23.53 12.52, 28.4 8.4 M15.84 29.35 C18.36 26.61, 20.22 21.56, 27.73 14.39 M15.98 29.22 C18.74 24.46, 21.67 20.95, 27.69 14.84" stroke="#b2f2bb" stroke-width="0.5" fill="none"></path><path d="M8.65 1.95 C11.2 0.37, 14.35 -1.13, 17.14 -0.49 C19.94 0.14, 23.59 3.37, 25.42 5.77 C27.26 8.16, 28.3 10.9, 28.17 13.91 C28.04 16.91, 26.69 21.45, 24.62 23.78 C22.54 26.11, 18.68 27.47, 15.71 27.88 C12.75 28.3, 9.38 28, 6.81 26.26 C4.25 24.51, 1.26 20.31, 0.33 17.39 C-0.61 14.47, -0.3 11.56, 1.22 8.73 C2.74 5.9, 7.88 1.66, 9.46 0.42 C11.05 -0.83, 10.72 0.95, 10.73 1.26 M12.45 0.19 C15.64 -0.11, 20.79 0.02, 23.52 1.76 C26.24 3.51, 28.47 7.56, 28.82 10.69 C29.18 13.82, 27.05 17.64, 25.63 20.55 C24.22 23.46, 23.18 27.01, 20.35 28.16 C17.52 29.3, 11.9 28.44, 8.66 27.41 C5.43 26.38, 2.29 24.68, 0.95 21.97 C-0.4 19.26, -0.15 14.34, 0.57 11.15 C1.29 7.95, 3.01 4.64, 5.26 2.82 C7.52 1, 12.74 0.76, 14.1 0.22 C15.45 -0.32, 13.33 -0.42, 13.41 -0.4" stroke="#1e1e1e" stroke-width="1" fill="none"></path></g><g transform="translate(39.167699429951654 114.009765625) rotate(0 19.8599853515625 12.5)"><text x="0" y="0" font-family="Source Sans Pro, Virgil, Segoe UI Emoji" font-size="20px" fill="#1e1e1e" text-anchor="start" style="white-space: pre;" direction="ltr" dominant-baseline="text-before-edge">main</text></g><g stroke-linecap="round"><g transform="translate(169.70285567995165 127.826171875) rotate(0 273.20303759090604 0.8775695330727302)"><path d="M-1.02 -0.54 C90.1 -0.46, 456 0.51, 547.42 1.04 M0.65 1.79 C91.52 1.97, 455.28 2.43, 546.28 2.26" stroke="#1e1e1e" stroke-width="1" fill="none"></path></g></g><mask></mask><g stroke-linecap="round" transform="translate(10 190.4765625) rotate(0 382.296875 49.345703125)"><path d="M5.91 6.46 C5.91 6.46, 5.91 6.46, 5.91 6.46 M5.91 6.46 C5.91 6.46, 5.91 6.46, 5.91 6.46 M3.68 15.13 C7.26 11.95, 10.65 8.79, 14.83 2.3 M3.68 15.13 C7.83 10.7, 10.1 6.88, 14.83 2.3 M0.14 25.3 C4.43 16.91, 11.41 11.56, 21.13 1.15 M0.14 25.3 C4.21 21.03, 9.8 14.79, 21.13 1.15 M0.53 30.94 C9.59 22.98, 16.09 14.01, 26.12 1.51 M0.53 30.94 C6.64 23.08, 14.43 14.54, 26.12 1.51 M0.27 37.34 C9.53 24.53, 22.1 12.31, 31.76 1.11 M0.27 37.34 C7.93 28.33, 15.93 18.77, 31.76 1.11 M0.67 42.98 C13.71 25.54, 28.28 12.54, 36.75 1.47 M0.67 42.98 C14.22 28.35, 26.28 12.89, 36.75 1.47 M0.41 49.38 C11.9 34.15, 23.63 18.73, 42.39 1.08 M0.41 49.38 C12.19 36.78, 24.44 22.81, 42.39 1.08 M0.14 55.78 C13.44 40.39, 31.39 19.48, 47.38 1.44 M0.14 55.78 C9.82 43.93, 19.93 34.06, 47.38 1.44 M0.54 61.42 C14.85 46.06, 28.76 29.09, 53.02 1.04 M0.54 61.42 C15.44 44.51, 28.72 28.62, 53.02 1.04 M0.28 67.82 C15.42 49.26, 30.4 33.41, 58.01 1.4 M0.28 67.82 C18.36 45.93, 37.81 23.51, 58.01 1.4 M0.02 74.22 C16.51 56.84, 32.11 39.45, 63.65 1.01 M0.02 74.22 C19.18 52.36, 37.56 31.12, 63.65 1.01 M1.07 79.1 C13.75 65.49, 27.29 47.8, 68.64 1.37 M1.07 79.1 C18.06 60.93, 34.39 41.31, 68.64 1.37 M1.46 84.75 C26.06 60.54, 48.65 32.54, 73.63 1.73 M1.46 84.75 C25.99 56.78, 49.59 29.17, 73.63 1.73 M4.48 87.37 C20.74 69.79, 37 51.56, 79.27 1.33 M4.48 87.37 C32.86 55.16, 62.08 21.49, 79.27 1.33 M6.19 91.5 C33.56 61.01, 56.36 33.86, 84.26 1.69 M6.19 91.5 C29.35 64.61, 52.24 38.89, 84.26 1.69 M9.21 94.13 C39.46 56.87, 73.12 19.02, 89.9 1.3 M9.21 94.13 C36.83 61.4, 64.38 29.44, 89.9 1.3 M11.57 97.51 C34.1 72.49, 55.55 52.45, 94.89 1.66 M11.57 97.51 C41.12 65.51, 69.54 31.95, 94.89 1.66 M15.9 98.62 C36.13 76.49, 50.72 57.69, 100.53 1.26 M15.9 98.62 C38.15 72.53, 62.91 45.54, 100.53 1.26 M20.23 99.74 C48.51 66.85, 77.94 29.94, 105.52 1.62 M20.23 99.74 C50.8 64.18, 83.58 25.77, 105.52 1.62 M25.87 99.34 C51.58 70.19, 77.54 41.93, 111.16 1.23 M25.87 99.34 C49.36 70.67, 75.02 41.69, 111.16 1.23 M30.86 99.7 C53.67 75.24, 75.14 51.06, 116.15 1.59 M30.86 99.7 C62.85 63.25, 92.44 27.91, 116.15 1.59 M36.5 99.31 C56.31 77.58, 78.54 49.81, 121.79 1.2 M36.5 99.31 C55.12 77.49, 74.46 56.63, 121.79 1.2 M41.49 99.67 C66.83 69.3, 91.15 44.43, 126.78 1.56 M41.49 99.67 C60.15 77, 79.55 55.19, 126.78 1.56 M47.13 99.27 C69.43 72.98, 94.13 47.42, 132.42 1.16 M47.13 99.27 C72.08 70.03, 96.91 41.54, 132.42 1.16 M52.12 99.63 C77.48 67.2, 104.36 36.6, 137.41 1.52 M52.12 99.63 C79.81 67.66, 108.86 34.44, 137.41 1.52 M57.76 99.24 C82.41 72.8, 104.38 47.21, 143.05 1.13 M57.76 99.24 C77.32 74.39, 98.26 51.29, 143.05 1.13 M62.75 99.6 C87.23 72.59, 110.55 41.43, 148.04 1.49 M62.75 99.6 C96.16 61.07, 128.8 23.12, 148.04 1.49 M67.74 99.96 C88.75 78.13, 108.53 52.88, 153.68 1.09 M67.74 99.96 C101.26 60.11, 133.83 22.36, 153.68 1.09 M73.38 99.56 C101.6 67.11, 131.19 30.72, 158.67 1.45 M73.38 99.56 C105.46 61.28, 137.64 23.77, 158.67 1.45 M78.37 99.92 C97.31 77.09, 114.12 56.72, 163.66 1.81 M78.37 99.92 C110.27 63.46, 142.75 25.2, 163.66 1.81 M84.01 99.53 C108.21 74.83, 132.98 47.74, 169.3 1.42 M84.01 99.53 C102.35 78.43, 120.41 57.3, 169.3 1.42 M89 99.89 C116.46 65.98, 146.07 36.85, 174.29 1.78 M89 99.89 C109.03 75.82, 130.78 51.66, 174.29 1.78 M94.64 99.5 C117.65 74.77, 140.48 47.08, 179.93 1.38 M94.64 99.5 C118.52 72.77, 140.2 45.86, 179.93 1.38 M99.63 99.86 C134.55 59.74, 168.14 22.87, 184.92 1.74 M99.63 99.86 C128.05 68.4, 154.7 36.54, 184.92 1.74 M105.27 99.46 C135.59 65.88, 165.51 32.68, 190.56 1.35 M105.27 99.46 C128.77 70.64, 152.43 42.86, 190.56 1.35 M110.26 99.82 C130.57 77.81, 151.83 51.41, 195.55 1.71 M110.26 99.82 C139.57 66.26, 168.75 32.39, 195.55 1.71 M115.9 99.43 C147.48 66.62, 175.34 31.21, 201.19 1.31 M115.9 99.43 C133.93 79.78, 152.47 57.89, 201.19 1.31 M120.89 99.79 C141.71 73.55, 166.49 46.65, 206.18 1.67 M120.89 99.79 C150.04 64.73, 179.55 29.96, 206.18 1.67 M126.53 99.39 C160.12 61.9, 188.95 25.98, 211.82 1.28 M126.53 99.39 C161.29 61.07, 194.66 20.73, 211.82 1.28 M131.52 99.75 C154.39 75.84, 172.58 49.89, 216.81 1.64 M131.52 99.75 C164.54 62.14, 197.05 24.33, 216.81 1.64 M137.16 99.36 C161.94 74.39, 182.57 45.27, 222.45 1.25 M137.16 99.36 C155.76 79.4, 172.57 57.69, 222.45 1.25 M142.15 99.72 C170.25 69.43, 196.3 39.53, 227.44 1.61 M142.15 99.72 C176.27 62.04, 209.37 22.97, 227.44 1.61 M147.79 99.32 C166.74 77.81, 184.15 58.58, 233.08 1.21 M147.79 99.32 C181.99 60.95, 215.26 23.29, 233.08 1.21 M152.78 99.68 C186.36 63.92, 219.26 25.15, 238.07 1.57 M152.78 99.68 C179.06 68.15, 205.93 36.86, 238.07 1.57 M158.42 99.29 C181.05 70.86, 207.14 44.01, 243.71 1.18 M158.42 99.29 C184.19 69.45, 210.84 39.37, 243.71 1.18 M163.41 99.65 C190.77 66.82, 218.48 34.77, 248.7 1.54 M163.41 99.65 C179.88 78.3, 198.43 58.65, 248.7 1.54 M168.4 100.01 C191.15 71.26, 216.01 47.51, 254.34 1.14 M168.4 100.01 C193.7 68, 220.45 39.07, 254.34 1.14 M174.04 99.61 C193.06 73.58, 214.62 51.41, 259.33 1.5 M174.04 99.61 C199.41 68.9, 225.97 39.24, 259.33 1.5 M179.03 99.97 C209.36 65.61, 243.42 29.1, 264.31 1.86 M179.03 99.97 C209.83 64.61, 241.15 27.04, 264.31 1.86 M184.67 99.58 C212.88 66.51, 243.9 29.86, 269.96 1.47 M184.67 99.58 C214.32 64.81, 245.66 28.44, 269.96 1.47 M189.66 99.94 C221.35 62.3, 251.62 26.38, 274.94 1.83 M189.66 99.94 C210.41 75.62, 231.04 52.76, 274.94 1.83 M195.3 99.55 C217.26 73.75, 239.76 48.29, 280.59 1.43 M195.3 99.55 C222.97 68.26, 251.94 37.12, 280.59 1.43 M200.29 99.91 C226.38 67.76, 253.51 39.8, 285.57 1.79 M200.29 99.91 C227.3 70.26, 253.51 39.09, 285.57 1.79 M205.93 99.51 C234.43 68.05, 261.55 31.48, 291.22 1.4 M205.93 99.51 C226.91 75.36, 247.65 51.6, 291.22 1.4 M210.92 99.87 C232.38 73.1, 256.11 48.09, 296.2 1.76 M210.92 99.87 C237.66 70.5, 262.66 42.51, 296.2 1.76 M216.56 99.48 C245.91 61.66, 279.7 25.34, 301.85 1.36 M216.56 99.48 C251.29 59.92, 284.89 21.56, 301.85 1.36 M221.55 99.84 C245.91 73.32, 269.8 45.47, 306.83 1.72 M221.55 99.84 C238.63 79.72, 256.52 57.75, 306.83 1.72 M227.19 99.44 C249.29 75.43, 270.27 49.23, 312.48 1.33 M227.19 99.44 C252.33 70.93, 277.78 39.96, 312.48 1.33 M232.18 99.8 C256.73 70.26, 284.37 42.42, 317.46 1.69 M232.18 99.8 C265.82 61.86, 298.07 23.1, 317.46 1.69 M237.82 99.41 C264.85 68.82, 295.12 36.56, 323.11 1.3 M237.82 99.41 C266.96 65.66, 295.99 32.83, 323.11 1.3 M242.81 99.77 C259.45 77.63, 279.18 56.89, 328.09 1.66 M242.81 99.77 C262.45 75.73, 283.5 52.25, 328.09 1.66 M248.45 99.37 C268.6 78.63, 289.13 53.49, 333.74 1.26 M248.45 99.37 C280.19 62.95, 311.31 26.23, 333.74 1.26 M253.44 99.73 C269.88 78.43, 289.14 58.29, 338.72 1.62 M253.44 99.73 C278.47 72.2, 304.49 43.49, 338.72 1.62 M259.08 99.34 C280.29 75.47, 299.1 51.81, 344.37 1.23 M259.08 99.34 C279.69 76.64, 300.75 52.54, 344.37 1.23 M264.07 99.7 C283.65 75.17, 304.62 50.78, 349.35 1.59 M264.07 99.7 C294.55 63.96, 326.05 29.87, 349.35 1.59 M269.05 100.06 C301.15 62.84, 328.94 28.06, 355 1.19 M269.05 100.06 C295.91 68.33, 321.65 37.96, 355 1.19 M274.7 99.66 C300.6 68.95, 325.5 38.9, 359.98 1.55 M274.7 99.66 C306.67 63.01, 339.96 26.35, 359.98 1.55 M279.68 100.02 C295.82 81.28, 315.95 58.86, 364.97 1.91 M279.68 100.02 C311.86 63.59, 342.5 29.79, 364.97 1.91 M285.33 99.63 C302.27 77, 321 58.55, 370.61 1.52 M285.33 99.63 C315.82 64.97, 345.89 29.98, 370.61 1.52 M290.31 99.99 C318.7 68.92, 346.31 35.18, 375.6 1.88 M290.31 99.99 C311.06 75.28, 332.73 50.78, 375.6 1.88 M295.96 99.6 C314.64 74.19, 336.21 53.82, 381.24 1.48 M295.96 99.6 C315.26 75.27, 336.17 51.87, 381.24 1.48 M300.94 99.96 C327.16 71, 351.97 41.02, 386.23 1.84 M300.94 99.96 C319.62 77.63, 340.26 54.09, 386.23 1.84 M306.59 99.56 C326.23 77.93, 341.32 58.18, 391.87 1.45 M306.59 99.56 C326.27 73.87, 349.09 50.44, 391.87 1.45 M311.57 99.92 C326.83 80.14, 345.03 61.09, 396.86 1.81 M311.57 99.92 C334.82 73.78, 359.45 46.31, 396.86 1.81 M317.22 99.53 C341.02 73.81, 360.35 47.48, 402.5 1.41 M317.22 99.53 C345.4 67.05, 373.52 34.36, 402.5 1.41 M322.2 99.89 C351.04 64.85, 383.31 31.12, 407.49 1.77 M322.2 99.89 C354.6 63.03, 385.94 25.55, 407.49 1.77 M327.85 99.49 C348.6 74.34, 370.56 47.67, 413.14 1.38 M327.85 99.49 C353.12 72.85, 376.1 44.1, 413.14 1.38 M332.83 99.85 C366.92 62.44, 399.75 22.99, 418.12 1.74 M332.83 99.85 C365.05 64.14, 397.65 26.54, 418.12 1.74 M338.48 99.46 C369.89 59.6, 402.91 22.48, 423.77 1.34 M338.48 99.46 C362.31 72.79, 386.36 44.59, 423.77 1.34 M343.46 99.82 C376.15 60.82, 408.96 26.63, 428.75 1.7 M343.46 99.82 C371.95 65.29, 403.85 31.16, 428.75 1.7 M349.11 99.42 C380.48 60.78, 413.6 25.62, 434.4 1.31 M349.11 99.42 C377.67 67.84, 405.47 34.31, 434.4 1.31 M354.09 99.78 C381.47 68.09, 407.07 36.68, 439.38 1.67 M354.09 99.78 C379.1 70.72, 403.94 42.51, 439.38 1.67 M359.08 100.14 C380.8 78.98, 398.21 54.65, 445.03 1.28 M359.08 100.14 C391.95 62.12, 425.32 22.85, 445.03 1.28 M364.72 99.75 C399.22 59.68, 429.86 22.21, 450.01 1.64 M364.72 99.75 C396.06 64.92, 426.78 29.63, 450.01 1.64 M369.71 100.11 C401.68 62.65, 429.11 31.33, 455.66 1.24 M369.71 100.11 C392.81 72.26, 415.65 45.3, 455.66 1.24 M375.35 99.71 C406.46 67.08, 436.2 32.07, 460.64 1.6 M375.35 99.71 C396.4 76.54, 417.24 52.16, 460.64 1.6 M380.34 100.07 C412.1 64.79, 445.9 26.23, 465.63 1.96 M380.34 100.07 C410.3 67.43, 439.01 31.8, 465.63 1.96 M385.98 99.68 C415.06 67.76, 442.86 32.58, 471.27 1.57 M385.98 99.68 C403.44 78.97, 421.72 58.95, 471.27 1.57 M390.97 100.04 C419.27 66.52, 450.02 33.51, 476.26 1.93 M390.97 100.04 C411.87 77.81, 432.02 54.32, 476.26 1.93 M396.61 99.64 C416.72 76.75, 437.9 51.71, 481.9 1.53 M396.61 99.64 C415.59 75.83, 436.78 51.85, 481.9 1.53 M401.6 100 C429.92 66.18, 462.93 31.26, 486.89 1.89 M401.6 100 C427.1 70.84, 451.59 40.39, 486.89 1.89 M407.25 99.61 C439.76 65.95, 469.06 29.79, 492.53 1.5 M407.25 99.61 C433.85 66.62, 462.18 35.96, 492.53 1.5 M412.23 99.97 C436.79 71.65, 459.98 46.06, 497.52 1.86 M412.23 99.97 C443.46 65.37, 472.42 30.06, 497.52 1.86 M417.88 99.58 C446.36 68.04, 475.27 35.31, 503.16 1.46 M417.88 99.58 C447.31 65.78, 475.91 32.45, 503.16 1.46 M422.86 99.94 C447.78 70.4, 470.03 46.24, 508.15 1.82 M422.86 99.94 C455.86 61.3, 488.08 25.08, 508.15 1.82 M428.51 99.54 C462.4 62.08, 491.32 22.97, 513.79 1.43 M428.51 99.54 C458.9 63.71, 491.44 26.18, 513.79 1.43 M433.49 99.9 C458.66 74.5, 481.49 47.96, 518.78 1.79 M433.49 99.9 C451.04 80.03, 469.81 58.74, 518.78 1.79 M439.14 99.51 C464.56 70.6, 489.16 38.67, 524.42 1.39 M439.14 99.51 C456.38 79.34, 474.17 57.34, 524.42 1.39 M444.12 99.87 C465.38 74.13, 488.18 47.3, 529.41 1.75 M444.12 99.87 C478.39 61.15, 512.07 22.29, 529.41 1.75 M449.77 99.47 C474.18 72.4, 500.51 44.07, 535.05 1.36 M449.77 99.47 C469.47 76.03, 491.22 51.02, 535.05 1.36 M454.75 99.83 C470.67 78.73, 491.47 59.22, 540.04 1.72 M454.75 99.83 C487.74 62.16, 518.38 25.04, 540.04 1.72 M459.74 100.19 C482.08 75.29, 502.15 49.77, 545.68 1.33 M459.74 100.19 C491.38 66.12, 521.46 31.4, 545.68 1.33 M465.38 99.8 C496.56 63.08, 530.33 26.13, 550.67 1.69 M465.38 99.8 C493.64 66.45, 521.52 33.98, 550.67 1.69 M470.37 100.16 C502.13 66.34, 531.52 29.19, 556.31 1.29 M470.37 100.16 C490.16 77.72, 511.39 54.33, 556.31 1.29 M476.01 99.76 C508.75 62.95, 540.96 29.96, 561.3 1.65 M476.01 99.76 C500.39 71.17, 523.87 43.95, 561.3 1.65 M481 100.12 C501.2 76.53, 521.53 51.39, 566.29 2.01 M481 100.12 C504.92 71.12, 529.65 41.6, 566.29 2.01 M486.64 99.73 C511.24 71.8, 533.26 44.88, 571.93 1.62 M486.64 99.73 C504.72 78.2, 524.6 56.71, 571.93 1.62 M491.63 100.09 C509.24 79.96, 529.01 55.46, 576.92 1.98 M491.63 100.09 C516.93 69.07, 544.53 39.66, 576.92 1.98 M497.27 99.69 C529.85 65.05, 560.74 30.98, 582.56 1.58 M497.27 99.69 C529.28 64.22, 560.82 27.67, 582.56 1.58 M502.26 100.05 C527.34 71.42, 552.63 42.27, 587.55 1.94 M502.26 100.05 C533.31 61.94, 566.01 26.97, 587.55 1.94 M507.9 99.66 C539.57 62.5, 572.12 25.38, 593.19 1.55 M507.9 99.66 C535.95 68.58, 561.99 36.05, 593.19 1.55 M512.89 100.02 C540.3 70.29, 566.9 39.29, 598.18 1.91 M512.89 100.02 C546.83 61.95, 581.43 22.6, 598.18 1.91 M518.53 99.63 C535.14 79.6, 553.73 60.87, 603.82 1.51 M518.53 99.63 C544.66 70.24, 569.7 40.21, 603.82 1.51 M523.52 99.99 C540.98 77.14, 559.95 60.11, 608.81 1.87 M523.52 99.99 C555.56 63.81, 586.6 25.65, 608.81 1.87 M529.16 99.59 C549.68 72.36, 573.63 49.34, 614.45 1.48 M529.16 99.59 C554.62 68.73, 580.19 39, 614.45 1.48 M534.15 99.95 C566.78 63.67, 603.55 24.84, 619.44 1.84 M534.15 99.95 C560.07 68.61, 586.46 38.97, 619.44 1.84 M539.79 99.56 C563.94 72.65, 589.06 40.99, 625.08 1.44 M539.79 99.56 C571.97 63.18, 603.46 27.28, 625.08 1.44 M544.78 99.92 C575.98 63.72, 606.59 26.81, 630.07 1.8 M544.78 99.92 C570.13 71.36, 594.31 40.85, 630.07 1.8 M550.42 99.52 C578.01 66.21, 606.94 34.11, 635.71 1.41 M550.42 99.52 C576.15 69.31, 600.15 42.37, 635.71 1.41 M555.41 99.88 C576.45 76.35, 599.74 48.34, 640.7 1.77 M555.41 99.88 C575.14 75.96, 596.67 53.44, 640.7 1.77 M560.4 100.24 C592.25 63.15, 623.44 26.61, 646.34 1.38 M560.4 100.24 C587.22 69.68, 612.73 39.44, 646.34 1.38 M566.04 99.85 C594.18 66.39, 621.29 34.45, 651.33 1.74 M566.04 99.85 C596.67 64.9, 626.44 31.37, 651.33 1.74 M571.03 100.21 C595.49 70.45, 622.6 35.66, 656.97 1.34 M571.03 100.21 C586.71 79.9, 604.75 58.9, 656.97 1.34 M576.67 99.81 C596.42 75.89, 616.63 52.93, 661.96 1.7 M576.67 99.81 C595.75 77.61, 615.43 54.48, 661.96 1.7 M581.66 100.17 C616.08 61.81, 651.52 20.71, 666.95 2.06 M581.66 100.17 C601.86 77.37, 621.12 53.47, 666.95 2.06 M587.3 99.78 C606.67 79.13, 623.03 57.43, 672.59 1.67 M587.3 99.78 C620.8 61.55, 656.25 23.62, 672.59 1.67 M592.29 100.14 C620.42 65.09, 653.67 31.75, 677.58 2.03 M592.29 100.14 C623.96 63.07, 658.09 23.25, 677.58 2.03 M597.93 99.74 C619.78 76.95, 641.09 50.52, 683.22 1.63 M597.93 99.74 C627.64 65.55, 658.25 32.54, 683.22 1.63 M602.92 100.1 C627.17 74.02, 647.06 49.7, 688.21 1.99 M602.92 100.1 C632.63 66.35, 660.75 34.81, 688.21 1.99 M608.56 99.71 C635.69 67.02, 664.92 36.08, 693.85 1.6 M608.56 99.71 C634.37 68.91, 659.38 40.05, 693.85 1.6 M613.55 100.07 C643.47 68.74, 667.64 35.41, 698.84 1.96 M613.55 100.07 C633.33 76.73, 653.67 52.13, 698.84 1.96 M619.19 99.68 C652.82 59.63, 684.14 21.33, 704.48 1.56 M619.19 99.68 C642.62 73.22, 666.73 46.27, 704.48 1.56 M624.18 100.04 C649.12 74.79, 670.64 45.98, 709.47 1.92 M624.18 100.04 C656.25 63.4, 689.03 25.28, 709.47 1.92 M629.82 99.64 C660.51 65.9, 687.75 30.81, 715.11 1.53 M629.82 99.64 C661.34 63.16, 691.82 25.94, 715.11 1.53 M634.81 100 C660.32 69.08, 687.09 36.46, 720.1 1.89 M634.81 100 C664.87 65.9, 693.55 29.81, 720.1 1.89 M640.45 99.61 C665.77 66.56, 696.48 33.76, 725.74 1.49 M640.45 99.61 C667.81 68.74, 695.08 35.73, 725.74 1.49 M645.44 99.97 C665.83 73.95, 687.17 50.16, 730.73 1.85 M645.44 99.97 C663.62 79.27, 681.85 57.98, 730.73 1.85 M651.08 99.57 C680.52 66.53, 712.44 32.15, 736.37 1.46 M651.08 99.57 C680.7 68.37, 707.56 34.97, 736.37 1.46 M656.07 99.93 C684.89 65.39, 718.95 26.6, 741.36 1.82 M656.07 99.93 C685.54 63.43, 717.69 27.9, 741.36 1.82 M661.06 100.29 C687.74 72.76, 712.93 44.03, 747 1.42 M661.06 100.29 C678.72 78.43, 699.02 57.38, 747 1.42 M666.7 99.9 C690.11 72.08, 713.2 44.66, 751.33 2.54 M666.7 99.9 C688.96 73.03, 709.53 49.2, 751.33 2.54 M671.69 100.26 C700.03 67.95, 726.03 34.15, 755 4.41 M671.69 100.26 C698.47 69.87, 725.23 40.97, 755 4.41 M677.33 99.86 C703.05 72.14, 725.66 44.15, 758.68 6.28 M677.33 99.86 C703.36 69.71, 728.1 39.28, 758.68 6.28 M682.32 100.22 C706.16 72.1, 728.64 44.42, 761.04 9.66 M682.32 100.22 C709.3 69.41, 735.25 38.39, 761.04 9.66 M687.96 99.83 C712.04 71.73, 737.59 43.55, 762.75 13.79 M687.96 99.83 C717.82 66.2, 747.24 32.14, 762.75 13.79 M692.95 100.19 C715.71 71.86, 740.29 45.64, 765.77 16.42 M692.95 100.19 C714.45 73.51, 736.97 49.14, 765.77 16.42 M698.59 99.79 C721.85 72.28, 746.01 48.1, 766.82 21.3 M698.59 99.79 C720.25 74.79, 740.61 52.28, 766.82 21.3 M703.58 100.15 C727.37 71.01, 752.79 44.87, 767.21 26.95 M703.58 100.15 C719.89 81.62, 736.85 62, 767.21 26.95 M709.22 99.76 C722.24 84.74, 733.51 68.28, 766.95 33.34 M709.22 99.76 C726.13 79.67, 744.64 58.35, 766.95 33.34 M714.21 100.12 C731.86 80.23, 747.3 63.03, 767.35 38.99 M714.21 100.12 C731.36 80.56, 747.73 63.55, 767.35 38.99 M719.85 99.72 C729.91 89.19, 739.28 75.3, 767.08 45.39 M719.85 99.72 C729.93 86.77, 740.68 75, 767.08 45.39 M724.84 100.08 C733.62 89.04, 743.9 76.52, 766.82 51.78 M724.84 100.08 C741.38 80.47, 757.33 61.8, 766.82 51.78 M730.48 99.69 C740.91 88.34, 750.5 73.07, 767.22 57.43 M730.48 99.69 C742.51 85.3, 753.8 71.5, 767.22 57.43 M735.47 100.05 C740.27 92.73, 750.05 84.39, 766.96 63.82 M735.47 100.05 C745.85 88.37, 757.43 74.88, 766.96 63.82 M741.11 99.66 C749.07 91.94, 756.44 80.65, 766.7 70.22 M741.11 99.66 C746.77 94.07, 751.2 86.84, 766.7 70.22 M747.41 98.51 C753.47 92.62, 756.54 86.63, 767.09 75.87 M747.41 98.51 C754.71 90.37, 762.84 80.9, 767.09 75.87 M752.39 98.87 C756.26 96.64, 758.14 91.31, 764.2 85.28 M752.39 98.87 C757.19 94.51, 760.78 89.33, 764.2 85.28" stroke="#a5d8ff" stroke-width="0.5" fill="none"></path><path d="M24.67 0 M24.67 0 C298.36 2.72, 572.67 2.91, 739.92 0 M24.67 0 C196.82 -1.11, 368.64 -0.9, 739.92 0 M739.92 0 C757 -1.27, 766.47 7.85, 764.59 24.67 M739.92 0 C757.25 -1.08, 763.96 6.25, 764.59 24.67 M764.59 24.67 C766.2 35.84, 764.75 46.91, 764.59 74.02 M764.59 24.67 C765.53 43.29, 763.89 61.04, 764.59 74.02 M764.59 74.02 C763.84 91.69, 755.96 98.35, 739.92 98.69 M764.59 74.02 C765.93 90.23, 756.68 96.59, 739.92 98.69 M739.92 98.69 C558.74 97.32, 378.03 96.11, 24.67 98.69 M739.92 98.69 C462.34 97.78, 184.17 97.97, 24.67 98.69 M24.67 98.69 C6.91 98.82, -0.5 91.98, 0 74.02 M24.67 98.69 C9.88 98.64, 1.72 92.41, 0 74.02 M0 74.02 C-0.47 60.37, -0.76 44.09, 0 24.67 M0 74.02 C0.56 59.78, 1.1 47.3, 0 24.67 M0 24.67 C1.13 7.04, 10.2 -1.45, 24.67 0 M0 24.67 C-1.93 7.85, 8.7 -1.64, 24.67 0" stroke="#1e1e1e" stroke-width="1" fill="none"></path></g><g transform="translate(23.6015625 228.13671875) rotate(0 55.469947814941406 12.5)"><text x="0" y="0" font-family="Source Sans Pro, Virgil, Segoe UI Emoji" font-size="20px" fill="#1e1e1e" text-anchor="start" style="white-space: pre;" direction="ltr" dominant-baseline="text-before-edge">code review</text></g><g stroke-linecap="round"><g transform="translate(186.1640625 315.37890625) rotate(0 -0.2953092499654417 -84.9195567886252)"><path d="M0.36 0.76 C0.35 -27.47, 0.35 -140.58, 0.23 -168.96 M-0.91 0.12 C-1.09 -28.47, -0.53 -141.96, -0.6 -170.6" stroke="#1e1e1e" stroke-width="1" fill="none"></path></g><g transform="translate(186.1640625 315.37890625) rotate(0 -0.2953092499654417 -84.9195567886252)"><path d="M10.88 -142.02 C7.76 -152.15, 3.5 -160.85, 0.33 -168.82 M10.02 -141.66 C6.68 -149.3, 5.33 -155.17, -0.72 -171.49" stroke="#1e1e1e" stroke-width="1" fill="none"></path></g><g transform="translate(186.1640625 315.37890625) rotate(0 -0.2953092499654417 -84.9195567886252)"><path d="M-9.64 -142.05 C-6.12 -152.23, -3.75 -160.92, 0.33 -168.82 M-10.5 -141.69 C-9.22 -149.17, -5.96 -155.03, -0.72 -171.49" stroke="#1e1e1e" stroke-width="1" fill="none"></path></g></g><mask></mask><g stroke-linecap="round"><g transform="translate(289.703125 313.40234375) rotate(0 0.10180745109914824 -80.40589854829012)"><path d="M0.16 0.68 C0 -26.05, -0.91 -134.29, -0.85 -161.49 M-1.21 -0.01 C-1.01 -26.43, 1.21 -132.97, 1.41 -159.93" stroke="#1e1e1e" stroke-width="1" fill="none"></path></g><g transform="translate(289.703125 313.40234375) rotate(0 0.10180745109914824 -80.40589854829012)"><path d="M12.38 -133.01 C8.54 -139.51, 3.73 -148.83, -0.55 -158.23 M10.98 -131.72 C9.75 -139.04, 6.2 -146.79, 1.67 -160.49" stroke="#1e1e1e" stroke-width="1" fill="none"></path></g><g transform="translate(289.703125 313.40234375) rotate(0 0.10180745109914824 -80.40589854829012)"><path d="M-8.13 -133.31 C-5.61 -139.75, -4.05 -148.98, -0.55 -158.23 M-9.53 -132.02 C-5.4 -139.35, -3.59 -147.02, 1.67 -160.49" stroke="#1e1e1e" stroke-width="1" fill="none"></path></g></g><mask></mask><g stroke-linecap="round"><g transform="translate(239.2421875 314.12890625) rotate(0 -0.32496715318413294 -35.219815102107816)"><path d="M-0.23 -0.15 C0.14 -11.53, 1.15 -56.89, 1.16 -68.4 M-1.81 -1.27 C-1.4 -13.01, 0.69 -59.16, 0.82 -70.29" stroke="#1e1e1e" stroke-width="1" fill="none"></path></g><g transform="translate(239.2421875 314.12890625) rotate(0 -0.32496715318413294 -35.219815102107816)"><path d="M9.95 -39.86 C8.96 -48.13, 5.67 -53.12, 2.41 -72.22 M10.67 -41.85 C7.87 -52.31, 3.45 -62.43, -0.08 -69.54" stroke="#1e1e1e" stroke-width="1" fill="none"></path></g><g transform="translate(239.2421875 314.12890625) rotate(0 -0.32496715318413294 -35.219815102107816)"><path d="M-10.56 -40.5 C-7.21 -48.6, -6.15 -53.45, 2.41 -72.22 M-9.84 -42.49 C-5.43 -52.8, -2.63 -62.7, -0.08 -69.54" stroke="#1e1e1e" stroke-width="1" fill="none"></path></g></g><mask></mask><g transform="translate(104.5 10) rotate(0 258.33978271484375 25)"><text x="258.33978271484375" y="0" font-family="Source Sans Pro, Virgil, Segoe UI Emoji" font-size="20px" fill="#1e1e1e" text-anchor="middle" style="white-space: pre;" direction="ltr" dominant-baseline="text-before-edge">Commits move towards the main branch independently</text><text x="258.33978271484375" y="25" font-family="Source Sans Pro, Virgil, Segoe UI Emoji" font-size="20px" fill="#1e1e1e" text-anchor="middle" style="white-space: pre;" direction="ltr" dominant-baseline="text-before-edge">while you continue to work</text></g></svg>